<mxfile host="app.diagrams.net" agent="Mozilla/5.0 (Windows NT 10.0; Win64; x64; rv:135.0) Gecko/20100101 Firefox/135.0" version="26.0.12">
  <diagram name="Page-1" id="dso4_rUK_KJYRXZjyuwH">
    <mxGraphModel dx="4522" dy="2717" grid="1" gridSize="10" guides="1" tooltips="1" connect="1" arrows="1" fold="1" page="1" pageScale="1" pageWidth="827" pageHeight="1169" math="0" shadow="0">
      <root>
        <mxCell id="0" />
        <mxCell id="1" parent="0" />
        <mxCell id="4" value="Analyse Multicritère" style="ellipse;aspect=fixed;strokeWidth=2;whiteSpace=wrap;" parent="1" vertex="1">
          <mxGeometry x="154" y="33" width="159" height="159" as="geometry" />
        </mxCell>
        <mxCell id="5" value="Choix des cas d&#39;étude" style="whiteSpace=wrap;strokeWidth=2;" parent="1" vertex="1">
          <mxGeometry x="127" y="242" width="214" height="54" as="geometry" />
        </mxCell>
        <mxCell id="CHFiDNSgDXIeCjRcxI2d-54" style="edgeStyle=orthogonalEdgeStyle;rounded=0;orthogonalLoop=1;jettySize=auto;html=1;exitX=0.5;exitY=1;exitDx=0;exitDy=0;" edge="1" parent="1" source="6" target="9">
          <mxGeometry relative="1" as="geometry">
            <Array as="points">
              <mxPoint x="195" y="747" />
            </Array>
          </mxGeometry>
        </mxCell>
        <mxCell id="6" value="Cas d&#39;étude 1" style="rhombus;strokeWidth=2;whiteSpace=wrap;" parent="1" vertex="1">
          <mxGeometry x="120" y="320" width="149" height="149" as="geometry" />
        </mxCell>
        <mxCell id="7" value="Cas d&#39;étude 2" style="rhombus;strokeWidth=2;whiteSpace=wrap;" parent="1" vertex="1">
          <mxGeometry x="270" y="450" width="149" height="149" as="geometry" />
        </mxCell>
        <mxCell id="CHFiDNSgDXIeCjRcxI2d-53" style="edgeStyle=orthogonalEdgeStyle;rounded=0;orthogonalLoop=1;jettySize=auto;html=1;" edge="1" parent="1" source="9" target="CHFiDNSgDXIeCjRcxI2d-40">
          <mxGeometry relative="1" as="geometry" />
        </mxCell>
        <mxCell id="9" value="Itération 1" style="whiteSpace=wrap;strokeWidth=2;" parent="1" vertex="1">
          <mxGeometry x="520" y="720" width="136" height="54" as="geometry" />
        </mxCell>
        <mxCell id="10" value="Itération 2" style="whiteSpace=wrap;strokeWidth=2;" parent="1" vertex="1">
          <mxGeometry x="1320" y="720" width="136" height="54" as="geometry" />
        </mxCell>
        <mxCell id="11" value="Itération 3" style="whiteSpace=wrap;strokeWidth=2;" parent="1" vertex="1">
          <mxGeometry x="1544" y="720" width="136" height="54" as="geometry" />
        </mxCell>
        <mxCell id="12" value="Itération 4" style="whiteSpace=wrap;strokeWidth=2;" parent="1" vertex="1">
          <mxGeometry x="1767" y="720" width="136" height="54" as="geometry" />
        </mxCell>
        <mxCell id="13" value="" style="curved=1;startArrow=none;endArrow=block;strokeWidth=3;exitX=0.5;exitY=1;entryX=0.5;entryY=-0.01;" parent="1" source="4" target="5" edge="1">
          <mxGeometry relative="1" as="geometry">
            <Array as="points" />
          </mxGeometry>
        </mxCell>
        <mxCell id="14" value="" style="curved=1;startArrow=none;endArrow=block;exitX=0.26;exitY=0.99;entryX=0.5;entryY=0;" parent="1" source="5" target="6" edge="1">
          <mxGeometry relative="1" as="geometry">
            <Array as="points">
              <mxPoint x="134" y="321" />
            </Array>
          </mxGeometry>
        </mxCell>
        <mxCell id="15" value="" style="curved=1;startArrow=none;endArrow=block;exitX=0.74;exitY=0.99;entryX=0.5;entryY=0;" parent="1" source="5" target="7" edge="1">
          <mxGeometry relative="1" as="geometry">
            <Array as="points">
              <mxPoint x="333" y="321" />
            </Array>
          </mxGeometry>
        </mxCell>
        <mxCell id="19" value="" style="curved=1;startArrow=none;endArrow=block;exitX=1;exitY=0.5;entryX=0;entryY=0.5;exitDx=0;exitDy=0;entryDx=0;entryDy=0;" parent="1" source="9" target="10" edge="1">
          <mxGeometry relative="1" as="geometry">
            <Array as="points" />
          </mxGeometry>
        </mxCell>
        <mxCell id="20" value="" style="curved=1;startArrow=none;endArrow=block;exitX=1;exitY=0.5;entryX=0;entryY=0.5;entryDx=0;entryDy=0;exitDx=0;exitDy=0;" parent="1" source="10" target="11" edge="1">
          <mxGeometry relative="1" as="geometry">
            <Array as="points" />
          </mxGeometry>
        </mxCell>
        <mxCell id="21" value="" style="curved=1;startArrow=none;endArrow=block;exitX=1;exitY=0.5;entryX=0;entryY=0.5;exitDx=0;exitDy=0;entryDx=0;entryDy=0;" parent="1" source="11" target="12" edge="1">
          <mxGeometry relative="1" as="geometry">
            <Array as="points" />
          </mxGeometry>
        </mxCell>
        <mxCell id="CHFiDNSgDXIeCjRcxI2d-25" value="&lt;font&gt;Sélection des cas d&#39;étude&lt;/font&gt;" style="text;whiteSpace=wrap;html=1;rotation=-90;fontSize=41;" vertex="1" parent="1">
          <mxGeometry x="-1200" y="240" width="530" height="40" as="geometry" />
        </mxCell>
        <mxCell id="CHFiDNSgDXIeCjRcxI2d-52" style="edgeStyle=orthogonalEdgeStyle;rounded=0;orthogonalLoop=1;jettySize=auto;html=1;exitX=0.5;exitY=0;exitDx=0;exitDy=0;" edge="1" parent="1" source="CHFiDNSgDXIeCjRcxI2d-27" target="4">
          <mxGeometry relative="1" as="geometry">
            <Array as="points">
              <mxPoint x="-210" y="-40" />
              <mxPoint x="234" y="-40" />
            </Array>
          </mxGeometry>
        </mxCell>
        <mxCell id="CHFiDNSgDXIeCjRcxI2d-27" value="Problématiques" style="swimlane;fontStyle=0;childLayout=stackLayout;horizontal=1;startSize=30;horizontalStack=0;resizeParent=1;resizeParentMax=0;resizeLast=0;collapsible=1;marginBottom=0;whiteSpace=wrap;html=1;" vertex="1" parent="1">
          <mxGeometry x="-280" y="20" width="140" height="210" as="geometry" />
        </mxCell>
        <mxCell id="CHFiDNSgDXIeCjRcxI2d-28" value="ressources en eau&lt;span style=&quot;white-space: pre;&quot;&gt;&#x9;&lt;/span&gt;" style="text;strokeColor=none;fillColor=none;align=left;verticalAlign=middle;spacingLeft=4;spacingRight=4;overflow=hidden;points=[[0,0.5],[1,0.5]];portConstraint=eastwest;rotatable=0;whiteSpace=wrap;html=1;" vertex="1" parent="CHFiDNSgDXIeCjRcxI2d-27">
          <mxGeometry y="30" width="140" height="30" as="geometry" />
        </mxCell>
        <mxCell id="CHFiDNSgDXIeCjRcxI2d-34" value="génie civil" style="text;strokeColor=none;fillColor=none;align=left;verticalAlign=middle;spacingLeft=4;spacingRight=4;overflow=hidden;points=[[0,0.5],[1,0.5]];portConstraint=eastwest;rotatable=0;whiteSpace=wrap;html=1;" vertex="1" parent="CHFiDNSgDXIeCjRcxI2d-27">
          <mxGeometry y="60" width="140" height="30" as="geometry" />
        </mxCell>
        <mxCell id="CHFiDNSgDXIeCjRcxI2d-33" value="stockage déchet" style="text;strokeColor=none;fillColor=none;align=left;verticalAlign=middle;spacingLeft=4;spacingRight=4;overflow=hidden;points=[[0,0.5],[1,0.5]];portConstraint=eastwest;rotatable=0;whiteSpace=wrap;html=1;" vertex="1" parent="CHFiDNSgDXIeCjRcxI2d-27">
          <mxGeometry y="90" width="140" height="30" as="geometry" />
        </mxCell>
        <mxCell id="CHFiDNSgDXIeCjRcxI2d-29" value="protection" style="text;strokeColor=none;fillColor=none;align=left;verticalAlign=middle;spacingLeft=4;spacingRight=4;overflow=hidden;points=[[0,0.5],[1,0.5]];portConstraint=eastwest;rotatable=0;whiteSpace=wrap;html=1;" vertex="1" parent="CHFiDNSgDXIeCjRcxI2d-27">
          <mxGeometry y="120" width="140" height="30" as="geometry" />
        </mxCell>
        <mxCell id="CHFiDNSgDXIeCjRcxI2d-30" value="géothermie" style="text;strokeColor=none;fillColor=none;align=left;verticalAlign=middle;spacingLeft=4;spacingRight=4;overflow=hidden;points=[[0,0.5],[1,0.5]];portConstraint=eastwest;rotatable=0;whiteSpace=wrap;html=1;" vertex="1" parent="CHFiDNSgDXIeCjRcxI2d-27">
          <mxGeometry y="150" width="140" height="30" as="geometry" />
        </mxCell>
        <mxCell id="CHFiDNSgDXIeCjRcxI2d-35" value="&lt;div&gt;...&lt;/div&gt;&lt;div&gt;&lt;br&gt;&lt;/div&gt;" style="text;strokeColor=none;fillColor=none;align=left;verticalAlign=middle;spacingLeft=4;spacingRight=4;overflow=hidden;points=[[0,0.5],[1,0.5]];portConstraint=eastwest;rotatable=0;whiteSpace=wrap;html=1;" vertex="1" parent="CHFiDNSgDXIeCjRcxI2d-27">
          <mxGeometry y="180" width="140" height="30" as="geometry" />
        </mxCell>
        <mxCell id="CHFiDNSgDXIeCjRcxI2d-51" style="edgeStyle=orthogonalEdgeStyle;rounded=0;orthogonalLoop=1;jettySize=auto;html=1;" edge="1" parent="1" source="CHFiDNSgDXIeCjRcxI2d-36" target="4">
          <mxGeometry relative="1" as="geometry">
            <Array as="points">
              <mxPoint x="-430" y="-40" />
              <mxPoint x="234" y="-40" />
            </Array>
          </mxGeometry>
        </mxCell>
        <mxCell id="CHFiDNSgDXIeCjRcxI2d-36" value="Rock matrix lithology" style="swimlane;fontStyle=0;childLayout=stackLayout;horizontal=1;startSize=30;horizontalStack=0;resizeParent=1;resizeParentMax=0;resizeLast=0;collapsible=1;marginBottom=0;whiteSpace=wrap;html=1;" vertex="1" parent="1">
          <mxGeometry x="-510" y="20" width="140" height="120" as="geometry" />
        </mxCell>
        <mxCell id="CHFiDNSgDXIeCjRcxI2d-37" value="Item 1" style="text;strokeColor=none;fillColor=none;align=left;verticalAlign=middle;spacingLeft=4;spacingRight=4;overflow=hidden;points=[[0,0.5],[1,0.5]];portConstraint=eastwest;rotatable=0;whiteSpace=wrap;html=1;" vertex="1" parent="CHFiDNSgDXIeCjRcxI2d-36">
          <mxGeometry y="30" width="140" height="30" as="geometry" />
        </mxCell>
        <mxCell id="CHFiDNSgDXIeCjRcxI2d-38" value="Item 2" style="text;strokeColor=none;fillColor=none;align=left;verticalAlign=middle;spacingLeft=4;spacingRight=4;overflow=hidden;points=[[0,0.5],[1,0.5]];portConstraint=eastwest;rotatable=0;whiteSpace=wrap;html=1;" vertex="1" parent="CHFiDNSgDXIeCjRcxI2d-36">
          <mxGeometry y="60" width="140" height="30" as="geometry" />
        </mxCell>
        <mxCell id="CHFiDNSgDXIeCjRcxI2d-39" value="Item 3" style="text;strokeColor=none;fillColor=none;align=left;verticalAlign=middle;spacingLeft=4;spacingRight=4;overflow=hidden;points=[[0,0.5],[1,0.5]];portConstraint=eastwest;rotatable=0;whiteSpace=wrap;html=1;" vertex="1" parent="CHFiDNSgDXIeCjRcxI2d-36">
          <mxGeometry y="90" width="140" height="30" as="geometry" />
        </mxCell>
        <mxCell id="CHFiDNSgDXIeCjRcxI2d-55" style="edgeStyle=orthogonalEdgeStyle;rounded=0;orthogonalLoop=1;jettySize=auto;html=1;" edge="1" parent="1" source="CHFiDNSgDXIeCjRcxI2d-40">
          <mxGeometry relative="1" as="geometry">
            <mxPoint x="-440" y="180" as="targetPoint" />
          </mxGeometry>
        </mxCell>
        <mxCell id="CHFiDNSgDXIeCjRcxI2d-56" style="edgeStyle=orthogonalEdgeStyle;rounded=0;orthogonalLoop=1;jettySize=auto;html=1;" edge="1" parent="1" source="CHFiDNSgDXIeCjRcxI2d-40">
          <mxGeometry relative="1" as="geometry">
            <mxPoint x="-630" y="180" as="targetPoint" />
          </mxGeometry>
        </mxCell>
        <mxCell id="CHFiDNSgDXIeCjRcxI2d-57" style="edgeStyle=orthogonalEdgeStyle;rounded=0;orthogonalLoop=1;jettySize=auto;html=1;" edge="1" parent="1" source="CHFiDNSgDXIeCjRcxI2d-40" target="CHFiDNSgDXIeCjRcxI2d-58">
          <mxGeometry relative="1" as="geometry">
            <mxPoint x="-770" y="170" as="targetPoint" />
          </mxGeometry>
        </mxCell>
        <mxCell id="CHFiDNSgDXIeCjRcxI2d-40" value="" style="shape=image;verticalLabelPosition=bottom;labelBackgroundColor=default;verticalAlign=top;aspect=fixed;imageAspect=0;image=data:image/png,iVBORw0KGgoAAAANSUhEUgAAAjcAAAEyCAYAAAAGDfGAAAAgAElEQVR4XuzdBZhcRdYG4EqCQ7DgGnRxWdzd3YO72wKLLQR3FltscXf34O7uAYK7BYcQCPzzFnvzTyaZpGemp6e759TDPEOmb99b9yv7zndOneryZ0NJUQKBQCAQCAQCgUAgEKgTBLoEuamTlozXCAQCgUAgEAgEAoGMQJCb6AiBQCAQCAQCgUAgUFcIBLmpq+aMlwkEAoFAIBAIBAKBIDfRBwKBQCAQCAQCgUCgrhAIclNXzRkvEwgEAoFAIBAIBAJBbqIPBAKBQCAQCAQCgUBdIRDkpq6aM14mEAgEAoFAIBAIBILcRB8IBAKBQCAQCAQCgbpCIMhNXTVnvEwgEAgEAoFAIBAItIjcPPDAA+nLL79Mw0tqPNtss6VZZpml6pB9//330+uvv56+//77NO6446YpppgiTTfddGnUUUdNAwYMSH369Em//fZbmmGGGdJcc83VbP2/+uqrdP/996eBAwempZdeOk066aRDXPvmm2+mN954I/3yyy9pggkmSFNNNVXq2bNnGmmkkaoOk6hQIBAIBAKBQCBQjwi0iNzMO++86dlnnx0uDnvuuWc64YQTqgYrZGz//fdPN954Y/r6668H12uMMcZIa6+9drrgggvSoEGD0gYbbJBuuummTG68Y/fu3Yf5Dt7vpJNOSpNMMkl6+umnM0lSkJp999033XPPPenHH38c/N1xxhkn7bDDDumYY46pGkyiIoFAIBAIBAKBQD0j0CJys9RSSyXqDcVihRVWyIpH40LRcc3iiy9eFZh99tlnmcA8/vjjmYysv/76abLJJkvvvvtuuuaaa9K6666bzjrrrFzXt956Ky2wwALpm2++Sf/973/T9ttvP9Q7vPfee2nuuedO3377bbriiitSr1698jWvvfZaWm211dI777yTZpxxxrTWWmslpMbfb7nllkyuEJ8ogUAgEAgEAoFAIND+CLSK3Bx77LFpn332af/atfEJhxxySDr00EPTfPPNl5UbxKYohXttookmGvw3JITCMtNMM6Unn3wyjT322EPUYMcdd8zEZ9VVV80qT9euXbOLbtNNN02XXXZZWnPNNdNFF100xPc++eSTNProo6fxxhuvjW8TXw8EAoFAIBAIBAKBUhBoFbk5/PDD04EHHjjc+1v0u3TpUkod2uUarqa///3v6aWXXkqXXHJJ2mSTTUb4HISHMvPxxx8Ppd68+OKLacEFF8xk5pFHHklcdMrnn3+eZp555qz4PProo2nhhRce4XPigkAgEAgEAoFAIBBoPwRaRW4OO+yw1Lt37+HW6osvvkirrLJKdgdxzQjmFYtDEbnwwgvTPPPMk2Nd+vbtm11EDz/8cBL0O9ZYY6Vlllkmbb311sMNTO7Xr1+69dZb07333pvvLTBYILNnIjJIyLTTTps++uijwS6oUmA87bTT0q677prdS2Jv1EfZfPPN08UXX5yoN2ecccbgW6mzwGTv8txzz2VyFCUQCAQCgUAgEAgEOg6BdiM3P/30U447mXDCCdPpp5+ett1229S/f//8pvfdd1+OzeGymXXWWXMMCxLEfSPo144m7qLbb789k6Cm5fzzz0/77bdf3rk12mij5R1Lf/zxR76f3VpPPfVU3p20+uqrZ2K17LLL5nuNPPLII0RavREUMTjicbbbbrus/qjH+OOPn55//vkh3FuuX2ihhdLLL7+ctthiixygHCUQCAQCgUAgEAgEOg6BVpEbCoxdQ8MrFv2pp546E4pRRhklb40W0+JvSyyxROrRo0dyzfHHH5/JwWKLLZbsYOIScu+rr746By5TZhoXsS2Fi2mvvfbKO5Gmn376fIkA3t9//z3NMccc+d933XVXDvS1bRvBOeigg/JzRlTEzSAqiBdig5ghVKeeemraZZddhvr6eeedl7bZZpv89w033DC/5+yzzz6ix8TngUAgEAgEAoFAINAOCLSK3CAKlJemRV4XwbUUGMQF6bBjybbqBx98sGSXzYcffpjJwc8//5xeffXVvD1b+fTTT/M9xLkgKoKFR1SQIYSEOqSss846acstt8zuq+YKIuYdH3vssRxbdPLJJ2cXl3+POeaYw/zacccdlw444IBMrpC5jTfeOLvWFllkkRFVMT4PBAKBQCAQCAQCgTIi0Cpy09zz7S4SC8MV1Zjc7LbbbumUU05pUbWLnDp2JXEvKeeee25WUcS4vPDCC4PjYUZ0Y7EzVJcbbrghu7wU5ANpQciGVe64446s+oil6datW7ruuuvSGmusMdxHyXHDBccV5ntcY+J3jjzyyEz4ogQCgUAgEAgEAoFA+yPQKnIjd4ykd43z3Ih5kfl3pZVWysG9jcnN9ddfn3O/NFeoO9xPdhtJhicL8Ntvv52T4V1++eXZ1aNQQriHEJyzzz67xeiIo/H9f//731lhod6oG6WlaRGQvOKKK2bXlq3fCEupBfFCcpAxZeedd04ClaMEAoFAIBAIBAKBQPsj0CpyU0qem8bkhgqCKAyLQFj0xd1wRVF+ZPwVuIsgIDdXXnllJlIKVxESJH/NwQcf3Gp0rrrqqhy3g+BQZJC1YZWtttoqBwhL6Ce/TUuLnDn/+te/8tcEORfbx1t6n7g+EAgEAoFAIBAIBEpHoFXkppSt4I3JzW233ZZWXnnloWpVuJnE5FBTJMErkurJFyOzcGNywy108803p9133z27lNpSqDHqJR6Hy2pYZbPNNss5cihGhQrTkmc6q0qMkLgh9VXvKIFAIBAIBAKBQCDQvgh0GLlBfhAYu5Eau56K11100UWzm6oxuXGEgcBdxyQI7pUhuLXFFu9zzjknITB2R7UHuXHPJZdcMgdTl5L4sLXvEt8LBAKBQCAQCAQCgf9HoMPIjXOYBAYrYmGK7dz+zR1lO7czoBqTG/lxJPhDamwVt/OpNUV80Pzzz5+T9A1vW3tblRuJDCk38u8IZqZMRQkEAoFAIBAIBAKB9kWgw8iNBHyOLZC0j0tKzhrFbiYKTRHjIj7GgZeKGBmHXdpBJS5Hkj07qYqA4O+++y798MMPOW7Hdm7xLhQguW3s4HIcBKKB0Jx44on5bwjOlFNOOUyUSyE3MiAfddRRmWghMuqFPH3wwQc50aD6I2rD20bevk0cdw8EAoFAIBAIBDoXAi0iN077dkxCKQG93E49e/bMO58ckzCsvDJid4rAYCRFQLFzm5ADGYsF4V566aV523ZR7KzaaKON0v3335//RIFx0KWdW4gKYuPkcsc6IE/K5JNPnnPlIDevvPJKzmxsZxdyVBCnYTW753KZDS/zsMzHxbvJheOdxdrIZEyB8m+5duLMqc41sOJtA4FAIBAIBDoOgRaRm+WXXz7HjyAkxS6g5qqO3DjrCRmhtAxrtxQlRgyN7dm2fssnY8u4vDB9+vRJe++9d95JJU9O4yK5n6zATvpWHzllqDdIDmXHuVeUGy4txOqZZ57JSorCFSYBoZgbp4UPr9gthZhI+tfcbinkDQG7++67M7mSYFBxDMQKK6yQd1oVSQg7rpnjyYFAIBAIBAKBQOdBoEXkRgwJhcSZUX6GV+SJ4QJCPLh/hpfETvZg7ij5cSaeeOJ8W//29+E9y72RCSTJGVOUH7+bluL+lBv3c10phcsMSXN4JnfTiIqzs6g1SBplqLlsxiO6T3weCAQCgUAgEAgEAq1HoEXkpvWPiW8GAoFAIBAIBAKBQCBQGQSC3FQG53hKIBAIBAKBQCAQCFQIgSA3FQI6HhMIBAKBQCAQCAQClUEgyE1lcI6nBAKBQCAQCAQCgUCFEAhyUyGg4zGBQCAQCAQCgUAgUBkEgtxUBud4SiAQCAQCgUAgEAhUCIEgNxUCOh4TCAQCgUAgEAgEApVBIMhNZXCOpwQCgUAgEAgEAoFAhRAIclMhoOMxgUAgEAgEAoFAIFAZBILcVAbneEogEAgEAoFAIBAIVAiBmiU3TgD/+OOP85lS008/fYvh+vXXX/O5V45XGGOMMdJEE02Uf0cJBAKBQCAQCAQCgdpGoGbJjcMqN91000xs3nzzzXzid6nFIZgO3nSgpjLyyCOnv//972mllVbKB4L6d5RAIBAIBAKBQCAQqE0Eap7cTDvttKlfv34lkZvffvst7bLLLunss89O4403Xj5B3OGWDz/8cD7Re6SRRkoOB/VZlEAgEAgEAoFAIBCoTQRqltxcdtllaZNNNkkzzDBDeuONN0oiN9SabbbZJn/nlltuSX/7299yq913331pmWWWySd5v/POO0FuarMvR60DgUAgEAgEAoGMQKchN4MGDUrLLbdcuv/++9Mpp5ySdtttt8Fd4IEHHkhLLbVUJjVvv/12kJsYHIFAIBAIBAKBQA0j0GnIjTaadNJJcxAxF5QYm6Lcc889mfgEuanhnhxVDwQCgUAgEAgE/ofAUOTmiSeeSDfffHOabLLJ0vbbbz9UcO1dd92VHnzwwbT44ounFVZYYSggzzjjjPTRRx+ltdZaK80333xDfP7qq6+me++9N3366aepR48e+fMlllhiqHuIjTnttNPSt99+m/bee+801lhjpTvvvDM99NBDaY011kjzzz9/Gp5b6vbbb0+PPPJIrvuee+6Z+vTpkx5//PF05plnpoEDB6YNN9wwTT311GnCCSfMn5ei3Pz555/psccey3X4/vvv01RTTZUWWmihNNdccw1R/2+++SadeuqpyW6srbfeOokJalw++eSTdPrpp+f332OPPYZyp4n/Ud8ZZ5wxbb755tFRA4FAIBAIBAKBQKCFCAxFbu6444608sor59vYhSQ+pShcO9w3FmC/77777tStW7fBn7/77rtpuummS4iAaxZddNH8GTKDRFx99dXpjz/+GKKKCJLF3veK4hq7oNzv0UcfTVdccUUmO8q///3vtNdeezVLbjzXPX/55Ze07777psMOOyy/D1LVtCAYX331VSZCiy22WLPKzXPPPZeJCGLTuHj3rbbaKp1wwgmpe/fu+aMffvghzTnnnLnuJ598ctp9992H+A6CtdNOO+W/9e3bd3DcT3ERUnjjjTemf/zjH+mkk05qYXPG5YFAIBAIBAKBQCAwFLkZMGBAmn322fMOJGRkvfXWG4ySeBSqSf/+/bPqYSs1BaMo1113Xd6BNM8886Snnnoqde3aNclHY4s15WSWWWZJ//znP7NLyP2PPfbY9PTTT+e/33bbbalnz56D77XAAgukF198Ma266qrJfeedd958nYBgRGRYyo1gYO4lv/fZZ598f+W9995LH374Yb4X1cVuKe8x2mijZXJRBBQPyy31wgsvZLJkF9WKK66Ydt555zTllFNmFefQQw9Nn3/+eVaTrrzyynw/hdqEhMEOho1LQV78zZZ06lhRECOKzZdffpmJ1MILLxw9NBAIBAKBQCAQCARaiMAwY2522GGHdNZZZ2WFxCJdlAsuuCBtt912aZFFFsmuKQRjo402Gvw5dYNasf/++6ejjjoq/734G/eN2BZqSVGQJLuUEAg5ay6++OLBn3kGAqFQfY4++uicsK8oBbmh8Lz11lvZ3YTYIAVbbLFFOv/884dw+fhczI1nUoMaEweqzrLLLjuUcoPoqZ96bLzxxumSSy4Z4p4IHOLDfUZZQnwUbiWEDlFxzTjjjJP/Lt5nttlmyyoVF93yyy+frr/++sHvJNh56aWXzoQL6SvUoBa2aVweCAQCgUAgEAh0agSGSW6uueaatP7662cFpkh0ByWqA5WD4oDU9OrVK7uMFK4kis9rr72WdyQtueSSWdWYddZZ09dffz2UClSgXjzLNuznn39+sHpTkBtkQABwY2LjuwW5mXnmmfMzEQvxPquttlpyz1FHHXWIhhULg1T4jWQhLUVpjtwUZEPdkI1hZUJGAE888cRM+NyXekOtUi/vL4apiD269tprs5qDAIprgi01bIIJJshVoQQdcsghORePuJ0ogUAgEAgEAoFAINByBIZJbhxrgKiIW3nllVcyKbBQcwtRI8TaiMURc+Jziz8XEnfTFFNMkV566aWsVhS7kLiwqDOClJsWAbZzzz13dvtY/NdZZ518SUFuxM0cc8wxQ32vIDcUIXEvtnYjY4KDBSA3La0hN9QiGYsRIe88rCzIxTtKBgiDInZos802y0qPeKIixkaAMfWL0nTOOedkt9lNN92UVl999UwOKTmI1q233ppWWWWVlrdmfCMQCAQCgUAgEAgEms9zY6G1oF911VVZxRHkSrk5+OCDs7rAjeQIBIsxVwo1Z8cdd8wxJP5fOffcc9O2226biRLC01wRgOtzwbZcYo3JTRFA3PS7BblxHtTPP/+cP6as2CnVOAi6+F5ryI3dSlxl4nyQkWGVDz74IO+IEmwt8BhRa/zuYpAoSeJpXIcIIjeUG7E63HxcgHaYIY9jjz12JkmN3XfRTwOBQCAQCAQCgUCgdASazXNjB5DgXz/HH3/8YLdPQWaoEtSJgw46KLtTxKRcfvnl6YYbbkhrrrlmrgFCYPHmWkJehqV82Fk1xxxzZAVIoC8y1JjcHHfccTlAtzly4+8CfSkftqnboo6UNXVjtYbcFOoLZUh242EVu6KQKs+nTiFqyuuvv57fe/LJJ88BzuJ2bHsvyIygYWSH0iX+RsZkuDV29ZXejHFlIBAIBAKBQCAQCBQINEtuBMIuuOCCeUFGGsTOUEgs2gJdxYqIK7GLiSuIWlK4sZywrViwuVzGH3/8rGrILdO02MnEnSTQVyBukTuncEuNiNxMPPHEeecVt5bYFvc54IAD0hFHHDHEo1pDbg488MB05JFH5t1Z4m8ab3svbs6FJM7HO3tHZEZB2rjpXn755azUUG+42Bq7nHzPLjEYIHaehTQ6ViJKIBAIBAKBQCAQCLQOgWbJDaKCdNjhQ5GxjVrMCBdKUagkFu8LL7wwqw5rr7123rZdFN+lylApKB8UkKZFELBgYPE47oUIKaWSGzuL5ItRirOjJO9DrBonGWwNuSm2iIunobx4l6alUHfEyIifaUyAuPDk2bFzy66oJ598Mte1eMci5w03nu96HtJYEKTWNWl8KxAIBAKBQCAQ6NwIDPf4BTE0iIsgXzEusgSLxSmKeBguI7EjYkiQiy233HIIRG0LFxDMBSMepjis0kUWetu3xZsgAb179x783VLJTdODM9UVkeAqktBvkkkmyfdsDbmxfbxIAMj1heQ1PjFcHJKYGvE2FJgi+WHxEtQeW8xdAzvkD9EpivcXEE1xev/997MS5roogUAgEAgEAoFAINB6BIZLbqgJFBlKyDTTTDNEzhaPFEfDdeW4BIGwtnI3TupXkAr3kH8GMbB1WlwKF44DLLmR5ISh+Iw++uhtJjcCfBEjhKlx/EpryI3KCO6lythBxjUn47B8OYga5UVpnDCwcVN4JvXLjjDHMQxrF5Qt87DhxrL92zbwKIFAIBAIBAKBQCDQegSGS264lSguXFR2MRWLefG433//PasOAmmHt11anhtxMHZeSXhXFHEqXFXUHeSocRGMK9BWsLKg5aaFAsJNJkeMeJvGwcpy7xTJBQtFyHML1cURE5SYohRJ9/xbXQu3UfE5EmdLuEBlak5RqEMCrgUJDytY2nV2mom38a5ib5q+p+3g++23X76leKaZZpqp9a0Z3wwEAoFAIBAIBAKB5reCw4aawN3ibChnSQ0riR3V4Y033sjxKI5MGF6xs4hiQ61BSmQJFhA8rMLNJbeOew4r1kUQMbePfDoIRNMiZw6igtD4nLqE9FBQuI8ax7VQZSgxEv9tsMEGQyUAbExyKDkyFzsqQv3F4wyviCOSyI/yxUXVtBTPFqTt2c2RpOirgUAgEAgEAoFAIFAaAsNVbkq7RVwVCAQCgUAgEAgEAoFA9SAQ5KZ62iJqEggEAoFAIBAIBAJlQCDITRlAjFsEAoFAIBAIBAKBQPUgEOSmetoiahIIBAKBQCAQCAQCZUAgyE0ZQIxbBAKBQCAQCAQCgUD1IBDkpnraImoSCAQCgUAgEAgEAmVAIMhNGUCMWwQCgUAgEAgEAoFA9SAQ5KZ62iJqEggEAoFAIBAIBAJlQCDITRlAjFsEAoFAIBAIBAKBQPUgEOSmetoiahIIBAKBQCAQCAQCZUAgyE0ZQIxbBAKBQCAQCAQCgUD1IBDkpnraImoSCAQCgUAgEAgEAmVAIMhNGUCMWwQCgUAgEAgEAoFA9SAQ5KZ62iJqEggEAoFAIBAIBAJlQCDITRlAjFsEAoFAIBAIBAKBQPUgEOSmetoiahIIBAKBQCAQCAQCZUAgyE0ZQIxbBAKBQCAQCAQCgUD1IBDkpnraImoSCAQCgUAgEAgEAmVAIMhNGUCMWwQCgUAgEAgEAoFA9SAQ5KZ62iJqEggEAoFAIBAIBAJlQCDITRlAjFsEAoFAIBAIBAKBQPUgUBXk5uuvv05vvfVW+u2339IMM8yQJplkkupBKGoSCAQCgUAgEAgEAjWFQFWQmx122CF99NFHabrppkt9+/ZNW2+9dVp//fWHArJPnz5pvPHGSwsssEBNgRyVDQQCgUAgEAgEAoHKIVAV5GbttddOm266aVprrbXSE088kfbcc890+eWXpzfeeCM988wzaeWVV05TTz11WmaZZdL444+fjjnmmPTtt9+mp556Ki211FJp4YUXrhxi8aRAIBAIBAKBQCAQqGoEqoLcUGnWW2+9/KOsuuqqaZdddkkjjTRSev311xPF5uSTT0577LFHGmeccdLhhx+eFR6urJtvvjmdddZZafrpp69qoKNygUAgEAgEAoFAIFAZBKqG3CA46667bn7r5ZZbLvXu3TsNHDgw3X///enaa69Nt912Wzr//PNTz54903bbbZeuvvrq9PLLL2dyc9JJJ6Wll166MojFUwKBQCAQCAQCgUCgqhGoCnLDHdWrV6+0zjrrpEsvvTTdeOONmcAcffTR6b///W/acccd8+9zzz03x+XMNddcaZ999knnnHNO2muvvbIbCyGKEggEAoFAIBAIBAKBQFWQm9122y3169cvTT755Om7775LhxxySJpwwgnTtttum6aZZpr09NNPp7PPPjt9+umnmfCIz7nnnnvS2GOPnd5888100EEHpcUWWyxaMxAIBAKBQCAQCAQCgVQV5Obnn39On3/+efrjjz+y26lbt265aX788cfUv3//1KNHjzTyyCOnUUYZJe+qElTs2qafRXsGAoFAIBAIBAKBQCBQFeQmmiEQCAQCgVpEwKaGMcYYI6vOUQKBQKB6EAhyUz1tETUJBAKBGkPgzjvvzJsfjjjiiLT88svXWO2juoFA/SLQoeSGa0m+GpbPL7/8khP0lVoGDBjQ4u+Ueu+4LhAIBAKBUhGYZ5550nPPPZc3QYgfnHXWWUv9alwXCAQC7YRAh5IbcTayE2+zzTZ5m7ft3UW8TXPv+/jjj6dJJ500/fTTT+nWW29N++67bztB89dtv/jii5xjB5mKEggEAoFAYwS6du2aHn744ZxQVLHJYcUVV0xbbrll/h0lEAgEOgaBdic3MgyzamQRnm222XJeGmdJyUqsyG2z8847pzPPPDOReBGem266KS2yyCLZAvr999/z1nBk5u9//3s+mmHaaafNhEgg8uqrr54+/PDD/F07q2Qxfvfdd9MHH3yQ3nnnnTTzzDOnBRdcsNXoujdrzLOiBAKBQCDQGIEuXbqk9957L2dTL4pUFRKObrbZZgFWIBAIdBAC7UpukBTZgxdddNFMOhCQTz75JO9+ev/999Nhhx2Wdt9997zlm3Jz3nnnpYMPPjhvA3/77bfz//v+Z599luaff/5MeBAhuW6WWGKJnNiPquIeiM/zzz+fSZPt5GeccUZaZZVV0gMPPJC3kc8999wdBHE8NhAIBOoZAUfAmGfE3PzjH//Iig3SEyUQCAQ6DoF2JTeOUTDYl1122fTVV1/lwS/jsCMUJOxDVp588sm08cYbp8suuywflvmf//wnHXDAATmfDUJD9bn99tvzVnBl++23TyussEI+bsEZU7PMMktWdVz/yCOPpGOPPTYfrCmW59///ne+p8lmq6226jiU48mBQCBQlwhwSW2xxRY5qSg1eURu9boEIV4qEKhCBNqV3Mg8vOaaa6bNN988x66stNJKOa6G+4g7yVlS3FTkW+RmtdVWy4TEZMGXzf1kF8J1112XpphiigzfJptskskKUoPIzDfffPmcKdmL3dtRDXPOOWf64YcfMvlBnJArPvAogUAgEAiUEwFudyqNoOIogUAgUD0ItCu5ococeOCB+URvREb8ChVmtNFGy7EwjlVAbAQVc0k5YgEhcWAm8uIzbqd77703zTjjjGn//ffPQcTXX399PlzzoYceyrE63FIspu+//z7tt99+WSKmFB133HGZ3DiaAWGKEggEAoFAIBAIBAL1j0C7khvwiZcR2MuNNNFEE+VTvrmR5p133oyu2BsZh7/55ps01VRT5V1JYmfGGmusHFBMwXn11VezEiNQDzFyYKZdCUiQ5Fm//vprdl/5vn9/+eWXOYPxxBNPnD7++OM05phjpnHHHbf+WzPeMBAIBAKBQCAQCASq4/iFaIdAIBAIBAKBQCAQCATKhUC7KzflqmjcJxAIBAKBQCAQCAQCgVIQCHJTCkpxTSAQCAQCgUAgEAjUDAJlJzdy2wwcODDnm2m6LfKqq67K8TUCfNurCCqWLVQenGL7eHs9K+4bCAQCgUAgEAgEAtWHQFnJzQknnJB3KclAbDu2hHtFOf300/O2b7unFltssbIgYdu45yBLjmGQA0cOnYsvvjg/e5RRRinLc+ImgUAgEAgEAoFAIFA7CJSV3NiGLbuwHVKOWpDfRvHvhRZaKPXs2TNv95ap2O6mNdZYI8mFg4z4tx1Usgs7gqF///5p6aWXTvfcc09O5mdLt2zFL730Us6dYyfV4osvnu8pfw5iRa1RB1vE5cORmRjRcjDnIYccko9yOPLII4pT5TEAACAASURBVPNRCoiPZ0v4FyUQCAQCgUAgEAgE6geBspKbk046Ke255545K7F8NZdeemnOVWM7t0zBjkBANF577bW06aab5msOPfTQnJVYRmFJ+eSjkXAPKbnyyivTKaeckvPbuNePP/6Yt4lfcMEF6YorrsjntyBEG264YerVq1fOEuoYBv/2uSMffNfZVP5mW7hzYJAuGYv32muvyFxcP3053iQQCAQCgUAgEMgIlI3cUF64ibiDEIvxxhsv55uRZE8GT3+XxVNCvu222y6rLMiI6+TBoaKsvPLKyTktYnP87fjjj8/ZiZ0Rteuuu6Z+/fplgiKRX58+fXL2YtmHHeXANUXZEdMj3kfGYskBxQCpl1w4MhkffvjhOYGgz9THuVZRAoFAIBAIBAKBQKB+ECgbuXn88cezS+iiiy7KriSkQSZhpEWh4DhLSrI+biqf77333vkcKcqN08FlMXaCN3KDyHA1yWjMfSUJIAJ16qmnZtXnhhtuyEqPpH3ibRzJIFMxJce9uLqoQK5DbiT9E2wsod9GG22UP0Oy4uTe+unM8SaBQCAQCAQCgUBZlRs3E+Ny1113Dc4s3L179+w6otw42NKRChSW3r17p48++igfgMk9JMiYArPkkktmhcfnTg93VhTXFYUHebnjjjvSoEGDsguLauMeRx11VP7/t956K5MpBIdyxD2G/Dh5nHtLoDFlCJmaYIIJ0i233JL++c9/ZndVlEAgEAgEAoFAIBCoHwTKptwUkPz555+ZzIyolHrdiO7jc0ctiOsZUeHqojBRcChCYoQoQlECgUAgEAgEAoFAoH4QKDu5qWZoBBNfc801Of6Gq2v22Wev5upG3QKBQCAQCAQCgUCgFQh0KnLTCnziK4FAIBAIBAKBQCBQYwgEuamxBovqBgKBQCAQCAQCgcDwEQhyEz0kEAgEAoFAIBAIBOoKgSA3ddWc8TKBQCAQCAQCgUAgEOQm+kAgEAgEAoFAIBAI1BUCQW7qqjnjZQKBQCAQCAQCgUAgyE30gUAgEAgEAoFAIBCoKwSC3NRVc8bLBAKBQCAQCAQCgUCQm+gDgUAgEAgEAoFAIFBXCAS5qavmjJcJBAKBQCAQCAQCgSA30QcCgUAgEAgEAoFAoK4QCHJTV80ZLxMIBAKBQCAQCAQCQW6iDwQCgUAgEAgEAoFAXSEQ5KaumjNeJhAIBAKBQCAQCASC3EQfCAQCgUAgEAgEAoG6QiDITV01Z7xMIBAIBAKBQCAQCAS5iT4QCAQCgUAgEAgEAnWFQJCbumrOeJlAIBAIBAKBQCAQCHITfSAQCAQCgUAgEAgE6gqBIDd11ZzxMoFAIBAIBAKBQCAQ5Cb6QCAQCAQCgUAgEAjUFQJVSW6++eab9PPPP2egRx555DThhBOmLl261BXwnfllBgwYkL7//vv022+/pdFGGy2NP/740b512CF++eWX3M6///576tq1axp33HHT6KOPXodvGq8EgZ9++il9++23Q4AxwQQTpFFHHTUAqnEEGq/Jzb3K2GOPnbp37141b1pV5ObNN99Ml112Wbr00kvTJ598kkGaY4450v3335/GGGOMqgEtKtI6BO644450yy23pOeffz69/fbb6YcffsjEdfbZZ0/rrrtu2nLLLVt34/hW1SCAuN51113ptttuSy+88EJ655130o8//phGGWWUNPPMM6dlllkm7bDDDmnKKaesmjpHRdqOAENltdVWSw8++ODgmyG0N910U1p22WXb/oC4Q4cisO222+Z1eXjlyCOPTHvuuWeH1rPxw6uC3Lzyyivp/PPPTxdddFHq37//EODMOuus6amnngpyUzVdpuUVGThwYNp8883TVVddlf78889mb7DeeuulCy64II055pgtf0h8oyoQuPzyy9PGG2883LpMP/306brrrsuGS5T6QODMM89MO+2001Av06dPn7TCCivUx0t20rcwZ6+44orZaBkRufnXv/5VNShVBbnBCs8999xhgjLnnHOmxx57LMhN1XSZlleEVbf88sunBx54IH+5W7duafLJJ09ffPFFYuk3Lr17906HHXZYyx8S36gKBF5++eXBpEU7TzHFFFm5+frrr4eo38orr5xuvPHG7HaOUtsIUNkXWmih9MEHH2T3o5/CFUmtNfaj1C4CjFOGyBtvvJFfQvuONNJIQxiqgwYNSscdd1zaa6+9quZFq4LcAGXffffN8RfLLbdcevzxx9NXX32VQQpyUzV9pU0Vufjii9M///nPtMUWW6TVV189TT311Omzzz5Lp59+errkkkvSH3/8ke/fs2fP9PTTTye++ii1hwAiy704wwwzZBfUNNNMk+NurrnmmkS2NlEqJsdXX301zTjjjLX3klHjIRDYdddd02mnnZZdj0grC1/MpEUwyE3td5bPP/88zTLLLNmrIq7mv//9bx7XjVV45GbaaadNk002WdW8cFWQG2TmjDPOyL74RRZZJE+M/fr1C3JTNd2k7RURkObHAGhcDIr5558/Pffcc4MXPf1h3nnnbftD4w5VhcDCCy+cDRfFBgHuaJNmlNpF4JFHHskxNb/++mtaaqml0jrrrJN22WWX/EJBbmq3XRvXXIzkoosumgkro1RsLCJb7aUqyA0GWOyGYsHzyb/77rtBbqq995SpfgIRb7311sF344Ykc0epHwTef//9tPjii2fXhTLXXHMlC2PEV9VuG1PpxNPY8KFceeWVeR7fYIMNgtzUbrMOVXNK3EorrZTVde4pGwVqYfdyVZCbxmjy1ZKqg9zU0egYzqvYMbXgggum1157LV818cQTZ7dU7Kap7fYnZT/66KP5JV5//fV04YUXDlZjxxtvvCTwWJBilNpF4JxzzknbbbddfgE7Hi163M/FrsdQbmq3bRvX/LzzzkvbbLNN/pNUDlNNNVUmN0QInpY11lgj74SsthLkptpapJPVxwTJHVnE3GyyySZ5gqwFy6CTNVWLXteWf7FVjYuJccMNN0z77bdfdj1HqV0ExMv9/e9/T59++ml+CaoNxeass87K41kJclO77du45gceeGCOl2uu9OjRI9klVU3bwNU1yE199L+afIuXXnopB5DbNaXIZcQlJYg8Sm0jcPPNN2eLrnGR4IsbY4899kjib6LULgI777xzjpNUuJW1t2LXq92vBbm5++6709JLL127Lxo1z+P12muvzWRVCAm1vWmyRjAxSjfddNOqQSzITdU0ReeqiBgMbom+ffsOfvETTjih6th/52qV8r2tJI1cT8pbb72V89o0zjpOsZP7KErtISClgxgMaRwQ1uuvvz4ttthiyeYALozddtttMLmx3d+uOTthLY5Rag8BO5cZnnY4Utg//PDD9Oyzz6ZTTjklPfHEE4NfyCYQSRyrJeFukJva62s1X2PxVOuvv3565plnBr8L6+DEE0+s+XeLFxg2Aix7LkdWn2LLqF0YE000UUBWYwjYEYXQKPIUTTLJJJnYKI5g+O677wa/EZeF4xdkKo4dkDXW0COo7scff5w3fiA7inYWdzXTTDNVxYsGuamKZug8leCK4ptvrNjsvvvu6eSTT+48IHTSN7WdtAgyBsHtt9+eFYAotYUAN1OxQ6rUmlN7llhiiVIvj+tqBAE7IB9++OHBtUVuqiWsIMhNjXSieqjmfffdl10RH330UX4du2YOOeSQwTJ2PbxjZ34HkrVdUhIwNs087IwpeVCKreBwigWvNnuLeJvGZ0g1fgu5rIpzAf1dUk7b/Z1LZPt/lNpCwJi25X9Yh58++eSTaZVVVhmcfbzaErAGuamtvlaTtRWE5iBFxKbx2WELLLBAzljMd1/I2lIB8N9HwGntNbVTwMVR2enGup9tttkyyZGQU4yNLeFFmW666ZLJkdsiSv0gcPbZZ6ftt98+v5AYmzvvvDMOzqzh5v3yyy9zkLCMxOZr49VcLV2H9A6NiawM9Mcff3zVvG2Qm6ppivqtiB1QrPYi9X7xphbBYR2kSc05+OCD6xeQOn0zB9yaAEspV1xxRerVq1cpl8Y1NYRA49w3QW5qqOGaqSq1XUD4iAqD9IYbbqgqY6Uqyc2kk046+GwpFt6LL74YmUxH1Luq+PNSTopuXH3EBsGJUlsIOAHaieCN1bmmbyC/jfYd0cnhtfXmUdsCgVNPPXUINzPF1nlTUWoTgcZK3LDewDEM1Pejjz46jT/++FX1klVHbkheLLpC7jIZOqjLVsIotYkA/7wkT6UWScCqKV9CqfWO6/7a9q29bRF97733EleVraGymQoo5a6KHVL121PsinIQskK5kd7B2XFRahMB28DtanVUCrey5I2KTPJCB4xnyRyrsVQdualGkKJOgUAgEAgEAoFAIFA7CAS5qZ22ipoGAoFAIBAIBAKBQAkIBLkpAaS4JBAIBAKBQCAQCARqB4EgN7XTVlHTQCAQCAQCgUAgECgBgTaTm19//TXODCkB6LgkEAgEAoFAIBAIBIaNgM1Edl+V6wyyNpEbu5jkNShXZTpDozt8TAPK+SJhXZRAoBQE7BaUF0jCw2HlBirlHnFN5RAoxrnsrn6idB4Eou1b19ayIf/jH/8o207ZNpGbM888M+9vR25MvFGGj4BO7+BAKeotVpNPPvngzLyBXSAwLASMKyS4OJxOagT/DoJTvf2lW7dueQu8dBbG/NRTTx3jvHqbq6w1sxY6XobxKuXBOOOME+S2RIRhJgfWdtttV+I3hn9Zm8iNW3/77beh3JTYFCa9zTbbLJ+oe9FFF6W11147HyEfJRBoDoGC3Mj7IyHaJZdcktZaa61YLKu4y1Bm5WoyxiW1k+QsxnkVN1gZq2a83nXXXWm99dbLeZ3k/YlSGgLcUs4hM37KUdpMbspRic5yD4mQpKmeb775klT1UQKBUhF4/vnn04ILLpjmmGOOfCZTuIJLRa7y18moPu+88+bEhS+99NJQh4hWvkbxxEojsOaaa2Zic/PNN6fVVlut0o+P5zUgEOSmQt1A4PXcc8+d3njjjfT4449H1s4K4V5Pj9lpp50SV7AfykCU6kOAu9D5Wg4WvPfee3MG1yidD4FXXnkln4I+yyyz5PmeIhGlsggEuakQ3oKvd9xxx7Ttttsm53VECQRaioAYjiLV+auvvlpVh9S19F3q9XoHgm600UZp/fXXT1dddVW9vma8VwkI7LPPPvmU7JNPPjntvvvuJXwjLiknAkFuyolmM/dybPw888yTfvzxx3wI6JRTTlmBp8Yj6hGBU045Je8oQJTPOOOMenzFmn0nmwW4oz7++ON8Hs9MM81Us+8SFW87Aub9OeecM8fHUfKmmmqqtt807lAyAkFuSoaq9Rfuv//+6Zhjjkm9e/dOhx12WOtvFN/s9AjYhWMBdYjdc889l6XvKNWBgDFurO+6667pP//5T3VUKmrRoQgUir0dQGeddVaH1qWzPTzITTu3OKXGqbh/+9vfwvfazlh3ltsLVBSwuPrqq8dujCpp9H79+mWiOckkk+TNAuOPP36V1Cyq0ZEI2N6sXzBGnn322ao9QbsjMWqvZwe5aS9k/3dfC9Att9ySrrvuurz1O0og0FYEbCvWl5Cc22+/Pa200kptvWV8v40ISPFgm/4FF1yQt35HCQQKBGwNX2GFFdKKK66Y7rjjjgCmQghUnNzI1infS7GVlT/SZD3yyCOP8JUvu+yyNO2006aFFlpohNdWwwV9+vTJC48dE3ZORAkEyoXACy+8kBZeeOHUs2fPHN8xxhhjlOvWQ93HDiC7/X766aecPND4lZwstqP/BdVjjz2WUzyIq7MzBj5RAoHGCKyzzjo5v9mVV16ZNthggwCnAghUlNyQ6JZffvkcQS7XiyIo0oTA6hlRscVylVVWSQcddNCILu3wz6XJX2SRRXKeC4uPwLIogUA5EbADQ2zHCSeckPbcc89y3nqIe9mZZfePHDsWbgHxYsdKMUiaVurSSy/NxKhecn8w1ljl999/f5LHypiPEgg0ReC1117La56xYz0Ya6yxAqR2RqCi5Ib1J3089srqVBzfQNUQeEXFEZuiSFo26aSTZh828mMSQWrWWGONtMceeySdxeSKMM0666yJz1tugZlnnnnwPdoZu+He3vY/9Yzgwo5shfp+9meffZb7u6M8TJiO82iP8sQTT2Q3mABmChGCY6zaFUTJMVHLzCqmYNxxx01LLrnk4GqINZDbaYoppkhjjz12ztxq14jgescSSFVP8aDeilWZffbZ83094+uvv85jW44Q6giDQdbXQhkxL3zxxRdZyZXqviPKhRdemLbccst8Hs7FF1/cEVWIZ9YIAtYD68Jxxx2X9t577xqpde1Ws+LkhvV30kkn5QnJhMjqfPPNN/Pk+e9//ztvmTNpc+dQcygf8sJgvQ7p1DFEnpsQTeryxiBARx11VA7cEsArvwCFp6OKLYCSN5HtTfgm9iiBQHsgIKGf5H677bZbsk28PQpyI6bEOC2KcYqo6Od77bVXNi6QmJdffjkbLoceemi6/PLL8w4RqiWjRhLLnXfeOY066qjZUPn+++/TEUcckQ0VRgqXM1cuQ0csEXeuuULumHvuuScTKfc68MAD04knnpivnW666dL222/fIbvG1N989tVXX+VxXhhm7dEGcc/aR0A/sW5JGcAQn2yyyWr/par4DSpKbqgvs802W5al7Saw+Pft2zdLueeee26eFJ3H8s477yTyNVLDChRrw4LTMTbffPM8kbNSTXzkctbcNttsk60n3zvttNPSww8/nA+oLI5RpwJVqpjsTb7B0CuFeOd9jq3hxg/XEbdI4e4tJyIUG+5k44tayj0sh8uiiy6aHn300UxwFOP7oYceynl4kBrjgMHS2FWz4YYbphlnnDGTH0nubJ+m0hYKrOB7Bs8HH3yQyQtCZcwLymTMiG0RnM/ypeiYNzqqHH744Zmk2f7NuIoSCIwIAf2VQc5YsNZFaT8EKkpuuKWQm2OPPTbn6lBYntQWltq//vWvTEb69++fI8tlY11qqaUyATKxUWNMsmINWIImQiQJ6aHwjDfeeHky5ANnSXF5kbhNxJWK0/EuVCn1cwaQekcJBNoTAWOnGBt33nln2R/F5WXXH8JOdSlOJqfcIFUOuuNqvvbaa7Pr6YEHHshqChLS9Ay1ddddNyscRx55ZP6O+Dtj1bhHkuwAQxSmmWaaTIBuvPHG7N6l7Jo/PMM1E088cZ4HRh999HyPSifGpFRJ8WDOQc68d5RAYEQIMACsDwwGrlbnxUVpHwQqTm741LmbWH+KiYnkbFJGUFiHPXr0yCcgf/fdd5nc+Iyf3nekNjepOZTu6quvzooOokQl4cpyUJlgRx2HMmTS5KMfaaSR2gfBRnclmyNWd999dxyY1g5oWwS1ZSSuGxpcxoBxggyISytnQdI32WST9NZbbw2+LbdUr169sjtK7Ivtz8YxokNdMQaNSeoMpaYoq666ajZGEBfjl9HBePn2229zvI17IDfGO2WEAcOV5VoEgrFAhUVqFDtP/J3LupKFYnzNNddkpXjjjTeu5KNr7lnvvvtuVuIo7FFSHqfG67LLLpvVyWrfXWdnpnXUuK2lUlFyIyDQpGWiKoIODz744EwGkBGF1M03f+qpp2ZA99tvv2zZLbfcclnidj231AQTTJBuuOGGPJGed955Ob8EHz2rcZdddsnuqkoXhMzkXY/5DD799NO8INkOzFqlsol1IrNagLQH1wJrnpXftFC0XCtOwXWIKpIq7qrUYiET0KqtowyJgLgVSidVRIxMsfiXAyeuJ4Tp/fffH3wAoGdQi8THUUsZJRILOmKEW9iESGExRo2HCSecMKs5PqPWMmqouJScZZZZJsfTFN/j5hFsTCkSnyCmSLuLt+nevXt+ll2WgonNDSuvvHI+jqJSheuN0cUCf/DBB6t+cSpwofBR02D9888/5zmyErm3tCvyaQ5oTUEABK1bG+qlMNLFklEibROvlmItNWYpo1QmRgsSz5tSa2elVZTcICuUFT74YneDAEQTJPJCwuanNxCKc1l+//33DC45HOC+RxaXM0BnL+5jAjZ4sMtCFapkh0HcTHZkekStcLtVsg7t+SzkhrUugNNOF2RGTFRBIrkZWPYscQvN1ltvPbg6tsn+85//zBa4thEnInaj2B7P3SDOSs6Wxouy+2l/fQEJMtDEWZx++un53vqNHTV2DDXOuWIHjt03SFgxkasv9c6/HUApmK8lxKo9sS3XvYuD+sSx7LvvvuW6bRIgL4YNaS0UULhb2G3p1pZUVzE/+r3PjE1ERNKy9957L6stBekVQ6c9KK1Um/vuuy+PW+oNmd6coJ0ZOYr+Ybz7XP/jmlYf15kLzB2VKuYwhpl31a8b7wyrVB1a8xwpA8yjYpUQYIuVudOY++abbzJ5pJQXsYl2uVHExDYaS+IXXU9lEBhrPta+2kT7U2aMKfGURfE3hgw1TnC5vsA4KuZsz7W7zjh0f8/Td9RDcLm5wN/NMciu4HPGsUWXYuj/9RNzrz5ibCvuWe1Fv+fWFFYhuLhatoabt82fCClMuYcJDIyWwqi0Fug/5mX9gZGh/vpQkQvLv7W9NrZu+4525T6u1AnpFSU3w+twLE+WuQmaZVZrhdJEUaJG2O5Xz+WAAw7InZb1TJI3IVLVFNv6TaAWPpOfAWJRo+gI+m5aTF5UIPfT6Q0qk5pnvP3221m9Q1IQGrEXJlL/b4G09dZkWsRdmDS5ZbRFEfNEBbAwUgcE8onzMNG6rt6S0BUH9SGEfPqxS6/8o1CfE+CMaNeKgohkUNXOP//8oVy6iD6Cagwvvvji2QAxh1mILFRbbbVVVqls9kBSLE5UPNcyRLlWkBoEw1imyomdskUePtQ56pr7i4F0f/exoK+11lqZ8CApVECfUfERpkIBVHfrAcLCQHKdxdaCimCZg7i9GFSUZOogJa8WivcQf8oNa56qhgI/rmVzaFFgq321p3lXIHRBIM3X5n5khmHLqELcqLautQ6Y/20w8B07nXlbKlGqhtywwlkEBkOtFRMEawhzpR4ZZPVYdFgxBiYekqrOKhaDy8HONcWkQ53RqU1a1BcTKzULERG/IUAV8RGzYVAjNWI0kBeTp+sQEpYmAuI6ap+JzsDjmjS5skZNuiRe+JtsTcQUJVaFWA+DyqJPar311lszGXMvro56LEV+Je9XKFz1+J4d8U4IuH7GpWNxpnrUQkHojQNKk2IcfPjhh3l82l3nnSxM+oxxyM3IADBOLWxciH4zXCgo4gqNM4szYmNrPsOlmAuMade4B6Lju1yaiAyVTb+k0jOCuEFY9uKrLIYWSQYNUuXvds5Rbhgr1GGGEEXAgsoAMuciZ+YB96eeVyK+shztTqUSZ0aJggeVpKOLZKBi6LQlJYzbWOwccgNv7SdmVtyjdjV3U1KlbxBugojqP/qaedp6rl30m0ob/VVDbjq6UdvyfIoNpivPiP+v16LTmtSpHjq0AdCU3CAghUVGSTGpsba4I0nNXFuICwuP9I2YcDVwLfGtIzbcVpSe4oweJIeFhqyY8LguxP8gSoqBJe6HBSSGgOKjIDHir/xNfU2mCJHYHxN7PRYTP5eQhYnFXLh26vFdK/1O3LFcI/pepXZfluMdjT2qCdc9Y8FiY4GilttibzwxRhgWSIJtyjvssEN+NCMCkWHYIEXUQONZcDCV3ZikZrkHUmPBtiD6TNyV4lnGqOdTX9wDUaTqIjJUHbFVFkMLaTHPqI+x35jcqIu/c2lzZ3ofbcIAMp/UWimUQOSw0kHxw8IKueHypU5qHyQT8VS4kbVfETulX8FegLQ2krC2OGYIafZ33yVaWBe5rI0dSnwlSruSGx2dlY+1Davo2GItLDQkxhEVFhOVxCJZLS4F20BZCxZn6kQ5AzlHhEdHfU7epo4IKkVuTE6sO0W8B+aPwBSZbE2GYipYXgq5G6MXt8Dq4jKyIFNlTFwGhEmzGFSsSZamz5EfAXgmYIu33TMGGCnUwCGBGnysN88ksbuWxSfgm0VpAq3nUhzUZwESYN/Wor34zJHQlsQpmRyRXeO1tTtCLHrUQM/uyEKBFLAtBkX/rtQEXY53hh+SQu2w4UFBDLgQEBaExr/N01xOFiZqDGudCwHRocwKSDZXCxBHMnzfOGUsuD/jwYYB7l/fQbCLOYHxgdxQfLmszJfcUIccckheIxAji6XUHYwUhqL4RWOW8gt7hNJvRgt3mPlAe/g+Q0gMVinrSDkwLdc9qDbGKeVGoHqRub9c92/pfQpSi4wWhaInHADhMZcycBXtrj0RGsRGrI65XjxdETLAiDVHayOkl5Jno0AlSruSGwsei8CLkkWxeS9p8TEYsHfylkFjS/eICvIAXJ24GkgE2c5kYOCyhgz6ei1kRgQCuWCJIXQmG0nZkFgKCaKHrZOdGysGSAwLwCRlYkJokSAWGv8tH7zvG+jYvUy3SIlJ0t9I1yRPkx7SYlBRdgwiQXmIlr6mTv5O3TFJmDx9Rh0yeSBR2qmedl0019/0S4tFOXZjaHuTHku/JSTF4mSyE/8jcLI1xTsgpiZUyp6F2hxQ6VIkCK3Vgw8tVhYVY8oCY86irFBhEQ1EBIE0F1NQtLcxg6xQFIxfZIL1zn3MgjefG4N20RhbFkHkxFhFori7zPPGOneTxZtxiqAY7wgU48h8zlAR78GA5TpWB/c2n6iza5AifVGfMD8wjhEx8xJ11uJai3nFEEv4wcr7daThrj2ov9qwKEgNomsdp5AxZs215nl9APY8FwiqNUC4AjeifqIdGbrWSt+33jNCK1HandywHC2GBgjJix/WINPRBT6yrguLoGnEuIWN9Vf8HfM3yZjoilOQDb6mCbRE93Nt8AcC1XMaH/LnbwZGW32z4jg0LDeMBqznYqIzqWgTkjDCoFhwtDEsLWDIxbASqpGMYUQFUJDZIj8I9o/wmjy1r4FBGjXxajf4iuMxBZA2nQAAIABJREFU4DwH5gIe9SnxNCbSIkitCHQWC1AMOHVCrk2UnlVr1l1r+hU8ETzWuLZry24Mk6+Fy44o7V/sdjCuGo8hk6I2VCguVJuC3FA6CtXH+PPjmsa7a4xb1/gpdr5YhE2aiJK+pr0bbzgw/j2zPRe1YvGxAOlDLSF4rWm79vqO92BsajcLqNQZxhWVBLEoCKgFlhHArcxdYrFikBhvxW4XxIUrigrKIqfOUYEEA1sgKa2sdvdEmrR1QUoFoVIrxJuYO7iuLaDGtLroq+IW9QPGE9JiLDOMKLMIOzKm7yFdxrN4HetLW+f09sJ+RPc1x5nvrI/euaOKOdraaM4sinXO2Lbhx/yqH/htPFDQFOOzmCf0LWEEdhKa583byKvcdPpGpYSJdiU3ZFCLlIWFz41bQtCnv1nYTJhcDDo6v5xJk/xpQBhcvqcYBBggC9D3WJAmNQFOVANgCm6jFojp4KbA+i2kBh22SN6kEmgkEqZBUTRMazoSJut5rAaTvjpG6XgEtIfJ0fZjMjkyYwK1K4GF6SygzlIoHmItqFos7dYWyhufOlJhDFoUjSEHRgr4NIGx4ljtjl6Au3GGmBrrtu3aBcOdaaE0kZOyLVoWPfOEAHDBiupqXBnbjBYWIgWO5W6BsyPH+GbgcFcqXJztFQODzCHO4rsYVx3tNmhtG8b3qhsBO76MI242RCAyXre9vdqd3JgQioMysXkLjAmMcsNSYwEgLiw8kpeJjypgO18x6ZlEkSCynd/IDWLEuhOX4Z7YPPZu0nUNF4g9+4gPpum7FjlkyHY0Flhb8iGwMEzknWHrd9u7WeXuYAGlBLL6yNkCibW1SaMWd+K1BTkqB9lenzdmWntEAYJifMLVzjgkhHvG1lAKGZmZuwL54Tpm+RnTiCWDhuFil53dFSxDxgbjxHeRI1I2i9VcYAyz0Fny1B6kiqqA3Bhv3FIUAWodA0W9zCPttUPRO3qO+nCLRAkE2gsB8UfGkrHj/6O0DYGKkBtbwASgkTZNbmInyIokTFYaq45kZRIzoYm7QIgQI8VkRnnhuzXZsSTFWoik933WlUmcbCaqX6CrIt7CpInUFL5miovnsuRbW5A0fuMieRmVKEogUI0IiLVAKtqyG4ObgjFR7EbhSqaU2PVCYbGLqFCIGBXIpG3Sdq1RR1mlSALiiSgpxj+5m0tC7IcxXRygS61hgDA+xA6J/0Bu+PcL9waDh0rXngU5NM+Q4Kmz9brDrj0xjHuXjoDEeNYz6xPCz+sQpfUIVJzcsPgoMiY3PlZWHL86q5rSwgIj/bL4iiMZkCNKDxkaubFbwTUCTfl9BaGZGPl0qTgFuSGV8/fxMwtaNQErtgOXEsDcHKwmWy4zPybhKIFAtSIgZk1cBeWGK6g1CbSQGwSJX128CXLDDcwvT2n1DMoo13OxQYCxgtxQzvymeggER2IoOoILuagZCowWYx2pMT8wHBgjyA2y1JjcUHyMOSqR+rRnKZKslTvjc3vWOe5d2wgwyBn5cWp429uxXckN3zhSggRQY/jLCxUF6WDdidQ36QpSFUjF14jYcEuRg5EQPnyR9VwL5G++fZYjvzvL0YQoCp+riEtLTIDrTLYCj22NVRAh8Tzk9dYW/lDvIsaGH75SwVGtrW98LxBA7gX36bcMg5YGXVJWuWUQEeTG9l/jzt8YGLaBUjYQGgYKo4XKYoxTXcW+mbQZGwKduZcoMT7zd64o6o5t+kgSVxMVVnydv5noKTyeY0s6YmR82/WGXDU+yqNcrU0VMieZc1jRjQOfy/WMuE8g0BQBLlZqJ4PCulXJo0XqrTXaldw4pI3FiInKiWByKzLMkuD8DZExUSI6FBqTp0nMhOJ6kf0a2ERnwhGvY0LUCfy/v9maJmBSPEBxjb9xg5GxKUOuN1Gy+hpHgre0QU2qdm24Z5EzoqX3iOsDgUojwHBgBLRmKzNCYocLI0UMm/Eprg1hEjOD8CMo4pzE94iDM76psVw6jBw7KbirqLaMHCosdzLjBnEx9hEe19qqLCCZAeGnOGwTkeIqoqgIUjb+qUaCxO2UKWcR/0cF9l7FzsBy3j/uFQg0hwB1k8JKcfX/LTVGAtm/EGhXctMRIJtcizONWHwsQfEGJneEp5igW1O3IlumiV0Ac5RAoFYQEC9DibA1nOHQlq3hxTuL50E8KDQISb0UJEzOKhY01SpKIFBpBApjxA7fjsjrVOn3bY/n1R25sb/ehITt2o3BX85S5OdncbZ2UufrF7RMDWLJ1tNk3h4dK+5ZfQhQNwTqU00EAbel2BFlrAm4ZWHWS5Efi9VMjZIfyJiPEghUGgHGiBi0Hj165BhSXokoLUOg7sgNN5atp+RzSajKVcjpYn/ECxSHRJbr3nGfQKASCCDoXDjyy5g8JUuMMiQCRUBnLZ36HW1YnwjYACNXlZCL4nib+nzT9nmruiM37QGTQEq7QAQnSxLYXjk12qPucc9AoDECkbel+f7AKDLOqTeUm1o59Tt6eH0iYEs45ZAxIh5NwH6U0hEIclMCVral2sYqGaD4nSiBQK0iIIiX3C3uRs6ZyLj7/y3JQhYgTaW1TT1KINDRCIi5oSLaUCMRZpTSEQhyMwKsbPe2hVxuD7k4irNzSoc4rgwEqgsBR5tItSCxpp1/0adT3tVpZxbrGPErzq6rrpaL2nQ2BOwaNE7F3Ri38kZFKQ2BIDfDwcnxDraPC1Cu91O/S+sucVW9IGAHhgNtZQ2W7bezF+kh7IC086stqSI6O47x/uVHALGhttrtyNjuDAf/lgPFIDfDQVFeDW4oOS/stooSCNQLArIGy0NjFwZ/fmdOUicfl5OtJQ90fEutnvpdL30z3mNoBCS0LY4wCWOktB4S5KYZnOwsEVzooD4nIcvKGiUQqCcEiuMFyrE1vFZxkQRQ5uY333wzZ2929EOUQKDaEJCCZKaZZkoTTzxxzgbuDMYow0cgyE0z+BTb8GzFk0U5SiBQbwgg7gKK/SZ3yxbc2YpcPTvvvHM+v8pxEFECgWpFwJFDsn9LSXLcccdVazWrpl5BbobRFLbeOdNKIkAWnURKUQKBekTg8ssvzzsxuGVk4O5MxdZveX9suXVsS5z63Zlav/beVYoCcTdvvfVWPlexLYc/197bt7zGQW6GgZmTx030Jn5psKMEAvWMgB0YguYd1ue8qM5SihQP1BunnkcJBKodAWcarr766jnoXfB7lOYRaBO5sU3NCd2yAddDodTI3OqgTjE2zpjxbnZNRQkE6hEBJ2o71HLTTTdNyyyzTN49pdRznxcw/N577+UttmIYvP9oo41W1+9cj323M76TvrvWWmulZ555Jh/eLC7UUSj1ULzHBBNMkMYee+yyvE6byM2hhx6ak145DbgeCiIzYMCA/GO73ZhjjplPJY8SCNQrAsYuUu/AWaVcE0s142WcCyQm88vx47y5GOfV3GJRtwIBxoh++/PPP2dC7uePP/6oC4C8xxFHHJF23333srxPm8jNrbfemg/PwybrgeCY9PjhH3300ZzMi0+zXjpOWXpL3KTuEDBuTZT33HNPtprk06j3YpyLs3nooYdynI04hnpWquq9PTvT+1lrHQ3iSCBj1fmJ9bJGMTgE9lOmylHaRG7KUYFqu4eTgJ1yvM8++6Rjjz222qoX9QkEyo7AZ599liaddNLslkJyOkMpMhLLY3XWWWd1hleOd6wTBLbeeuvsPnZ8yqKLLlonb1X+1why0wRTuS5sj42TWMvf2eKO1YmAuLkpppgiLb300unee++tzkqWuVYSF4pXsFA4CTxKIFArCBQJ/R544IG0xBJL1Eq1K17PIDdNIOeSwoYdnOcAvSiBQL0jQOLmnhFgK7i2M5QXX3wxJ+yzUDgQN0ogUCsIyFB84YUX5rFqzEYZNgJBboLcxNjo5AgEuQly08mHQE29fpCb0poryE2Qm9J6SlxVtwgEuQlyU7eduw5fLMhNaY0a5CbITWk9Ja6qWwSC3AS5qdvOXYcvFuSmtEYNchPkprSeElfVLQJBboLc1G3nrsMXC3JTWqMGuWlncmMnyvPPP59zAdmNIjlg0yLnxieffJITqP3444/59NeivP322/l/p5tuutJatMxX/fTTT+nVV1/NuUCa1t25W/429dRTD36qa8cff/y8tbi9y5dffpkzdUpqpQ7zzDNPs490ki4s55tvvrwzKMr/IxDkJshNjIfaQSDITWltFeSmncnNLrvskhMuSfMuE+zpp58+VMLDN954I0e+S6Zmi6pI+KIceOCBefGWCbojyg033JDWXnvtnNjQFvnGZdddd81JpHr37j34z7169cr5Upzb095Fhmy4ORtJfqLZZpst+RucG5c+ffqkCy64IO+OkSDK0RpRgtzEbqkYBbWIQJCb0lotyE07k5tNNtkkH765yiqrpEUWWSSdeuqp6cknn8wH9VEdqAnzzz9/euSRR9IPP/yQKAz//e9/00UXXZTefffdfI2kgo0JRGlNW56rJDNEIFZaaaV0+OGH55vedNNN+R0efPDB/G4777xzOumkkzIJQyR22mmnihw4uueee2Zytd9++6VvvvkmrbHGGumoo47KypHtvfKYrLbaanm7JFWMciYLrza57LLLcjbqnj17pi222CKfzyLb9jvvvJPbpjMRoFBuQrkpz2wRd6kEAkFuSkM5yE07kxsLPbeTMsMMM6R1110359Z4+umnc5ZJJzHLknryySenFVdcMR9n72Tmc889N2233XZ5sUYsDjjggNJatIxXWfwpMH7OPPPMRMWRwVZd1e2www5L22+/fX6i96Hw7Lvvvunggw9OTlZv77L33ntn0lIQP2eScP9RwBAdx4MglH4jQdx9F198cf6Ruvyggw7KJ7//5z//yWSNa5Db6tprr81EZ5xxxmnvV6iK+we5CXJTFR0xKlESAkFuSoIpBblpZ3Jj8Xd+D5cJArDBBhuk0047Ld1+++15EZURlpJArVlsscWStPDfffdddp842v7II4/McThHH310aS1axqucOksdQVqQgLvuuitdccUV+X24fxAuBw+KKTruuOOy2oG4Lb744lkNae+C3Iw77riDiR/CVcQBIZEUJ8npnCWkbhQcBMixGtQm2COWCM3dd9+dr6XknHfeeVk5o/x0hhLkJshNZ+jn9fKOQW5Ka8mKkxuulxdeeCEv2OJQ+L2bK04qRgj+9re/pWmmmaa0N2rjVeXOULzxxhvnRRWp8duxDs6y4Tahznz00UfZDUI9QArE31AZvv/++6yCWLApDkhOJYuDBB1iJn6FS+2SSy7JB4ly+XChca95NyrT+++/n4nAmmuumX+8z2abbdbu1f3HP/6RRh999KzcIGLiaqhfV155ZSYtlBdBxjJNzzLLLBl/ZI0LzbtRzUwUcEd0Jpxwwqz0OCXatWOMMUa7v0M1PKA15Mb49b2ZZ545vwL3KtyM6eZK375902STTdaik8eph5RPpJOq6UBbJyO3tVRDhmJuXG5QGCLgiHmPHj3yT3PFNVyrxmFzRaA9zCjFIyq//fZbxtWGhWFtdii+79R0c5N7Mmg6slg/Pv/887wmlNt9rE2EA1hzqMDVWILclNYqFSc3LH9uC7EaOqlJS7Bs0yBQk5qFyOcWV3EnlSjlJjdIiXuasCyclI0TTzwxKwUmKbuQVlhhhXTppZemeeedNy8SVAULt8nGJOX9dehKFuqRehxzzDF5d5FYIO2k7lQbJNUkisSIGdpjjz3ywmbSQW4E+bZ3QRKvuuqqNO2006YBAwbkOsw999y5jv369cvER0C2s4OoMvqQ99l///2zS4p7SkzRsssumz9H2EYbbbTcJpXGu72xGt79W0NuHnvssfSvf/0rq2MW5k033TS7+rhhmyv6hO8gxKUWpJpbEXHVrvrkeOONV+rXm72uGsgNsqefIdaItPiwzTffPLuumysUXUH7jKXmCqwow9dcc80IcTK/MKzgOjxS9cUXX+T6uaex0hEFwTrkkEOyUmxOmnzyyRP11jgvV2GobbTRRnnOLrXoo+aWchOt5p4f5Ka0lqk4ubEgiW8Qb8L6M1gthlwwBhnmzHVw/PHH52t8xgKnYAhW1flcw/Lu3r17jgExOVARuH7aWspNbiggiIAiPqQolJni346sdx13j/9H9PwbweB2KT5r67u15PvqIci2sZU8cODAwVabSVHdXGdx8xmC4Z0qWV/Y/vrrr5koNi7qp/7qCFfFb39jkfkNZ7/93TuYPH3PZDnmmGO2BK6avrY15MYBswLMLaKKnXO2//tBdOBovFLyqJQwvu666zKpFBNFsbT7jnJhsTIPTDLJJHksI8xPPPFE7v+u5b4V80WRMw8gBYwBZJrbtzVKQrWQG/MbBVFBbCiN5jUL2AcffJAeeuih7LZG4hH2G2+8McfhFe5gcx4FA1GHh/u59uabb86u5DvvvDOfHk0h5142Rs2z+j6CIDaNC9b8aQxzj/tsvfXWy3Pre++9l13M7r3yyivne0455ZQd0t/tIrURQD8q5k5zjVhA64IzAc1X+guFCZ5UZnOtul9//fW57vqmfvfZZ5/l/qTPUqUY3uYBhifjWz8Wh/f666/nfnz11Vdn5ZA3QYoP34UnlZdrm3GkX9twgXwykrSDumnXprtNWwtikJvSkKs4ueGKQSBYF4qBpvEtQpQKP9xRXDMGkslLPIfJjuVgIMu9wkL3by4HlqB4ENus22rVlZvclNYMcVUg0HEItIbcPPfcc9nCZWRYEEz8FhPj0AJrDN9xxx154WDEmPypZsYr5dYiwQo39i0eFCALiIXW/zNuLO6rrrpqJjWC1z2PesMNabFyD2kHhudOaQ7VaiA3VFoqDWKBrFAAqI+IGwJDHeMioehSTBARqqPFG2GkplJ4YY8cIpwWbwoCDGFHtbRQIwXaxyJOFddmyIt5lXJp7jzllFMGK5wWZm3shyvMJgILNhLVUeRmnXXWyUTPu+ob3gFB07f0MwYy9zRi5vdyyy2X1WV9DGnzd0REH+XW8324U6KdDk8hd1+EiIuV5wCm2sPOUPjps0gRA924sX7Z8KE/UiYRMLGTSL++qr6Ivf+fffbZyzLIg9yUBmOHk5sjjjgidz4DnXsGE2dtiJnAoFlsOh22btcON4IOi4WLAXHsu06NALFYkJ62lCA3bUEvvluLCLSW3HCPmPAtEKxepIOSR7GhjnFTMVCMVUqYxQlBsTBTZakBPn/llVcGKzZUBgu5RZl1zXBBbrh3LeRiuyzQFtm2lGogN96PmoLUcUshdpRtmwrku5LegNJFIUNUkAs/DD7zoUUUsUNu4N+/f/9MZJCVTz/9NCsWFn7Xm1O5aCke/t98i0iZMykUSCIFSVspFFFkS1LOZ599NrcBAmDx7ihy09itqT9wV3pvSr++p/6Imw0DiJ/3tR5QZF1PaeE+Qm64RxnUu+22WyaY7gULyou/IUGIJRXLb0Ra35Z2Qv+l6EjTYf0xBsRSIoJwQlYRRZtA9GOxk+UMqwhyU9rIrzi5MXh1QpaEzrHXXntla0RHwLR1IizcwDSB6RwsFkzc4DIgkRtWISZ822235QmTKwGDbuz6KQ2CIa9qb3JDavdTit+ay4Qlwbc8POnddQgiK6Y1En1rcDLg1csEzAISjFuUot6CR1tjVTdXH88yKXNLku7rZTcTvFjH+jWL0YTM2rPA+Lv31b9lYeaCg7tCGnd9W7est4bcUBUsvKx/xdg0gXNhkN9ZxhYL1rJddcYqI8XiwGDxmcXAAoToSHaJLFkczA2MHgRJgDjL2YJFJbIQWWCpFwiB/tWawM9qIDcUKwYbpUDxbix95IQbg/GGbDD0EApz3xJLLJFj37hi4GyMaQfuD2qN6wXIw5b6TUGDHdXM/+szRV4of6cwIFieoV0oOIKLKWzuYWE2R8PcIq5tSpm7WjOnjOg76oRMWBO8t75B0aPyqSM8kRQkUX2NHfF43EgwQ/y4PF3jvYwbmCImyA9STamBFSyQcX2S6w8xQsS5Ca1NYic9E1HUx8UsmYOtWbA0LhFzRIdSWS6XFIzKSW6ICcUOXeTN+ss9Cd+mcbDNtQ/XnFjLIsN+R5HfpvWrOLkxCDW2idBgM2BYJSYrHQVA3E0COzFkHVpH4sbSCXUc36PqYN86pQYS1KojFfEVIxoozX3e3uTG5O1d/YyoGEQGpSDN4e1C4UOGmQFdiWMaDAKWni3tBgbMGwdB+px8S9Y1GZG4y7HbzS4nE5vAbIHmFsZSiwkOOapEoHOpdSquE0thDCDnJG+FEQA7VqnkgxYUu+ZMqCRy7WzCtRC2NadQa8gNa97iqD8jt1QVCzIVQF8wHqmsFk+xCNqLtes645qbA1GzuCDlFibSvQVEtmmkxXsjehZyBhCL2neLRJgWfwt7a+KjqoHcaHdzGvUBeUUQLahcHFRsi6b5zm4mBBFhNN7MCeZR/YFhZ4GnVCB5XCwMD+qZ71A0kGTGAHWbEmPcWsAECZtHESp/E+9kcTZetaU5iqFJzdA26kqRKMh1S/t5W68Xf8UI1leEH1Bp5KPyjkiLOntnqpXYG649/QiuVBrzJJepmBi/YeJ6fQ6miA3CYz0RPqEtrE8IpXkDpvA3DxUGuDkXOWdsW4+0i3nb7kzPQKjMgxS0cpVykptC3UPgGKj6nr7AoECOSyli4IxjY1tfZahUQ6k4ubHwWWR0VOA1tuwpGsDWcVllJj8kp7BcMUTKhM5nC6MJgdWrM2PKOnBbS0vIjUbVmXUKizembuEhrevUFiATDYtAwCuSxrIymEwcnmUBo0CwamFjUVNM+AaUaw0yg1X+Fe/L5+y77u05AjELf29ryI0YJotG4b82yFksBqwdFCZCGFNNvOOCCy6YFx4THUvQpGsxM0mrk8/83SSofsUuJQtcW4qJW7uz6hULrMkG/qwFFlkR0IpwmbgtlIIpWaQWV/fQr2BKFRPMilS4lnKi7t6BMmFi8w5UBgQAeW6PM7PsGjQx6AvaF2kRN8HqNKFqd4VKiTxwTbAsTZ7k844gN+oJx2K7vLGJ5BQBn6znYveN8W7MFguHNjTuXe97Fl+fFaojK7Dxzh1uBdebB4rnIYEW88aKYUv6VjWQG+Pd+5vH9Ffvx1q2YJtDLJzmNcVncDLWXAsTvwvM9G3zH3zg63P3hbvPWOKuL/o8lUdBMov51ecMR983p3ie+6iDtirmY//fkUUdrR/mVO+o/ubHQmkw9+gXBTYwNsdZV2Du/XzmfX3WuE8xrn3mXq4rNlR492Kt4v6DAVLtOvcxd6iP/0cG1UsfVjf3a4262BzG5SQ3CGLhltPO5nn/JjQYt+Z072XeMf8I2oalede8aX4SU4cUFzF03KW8M8Yx/IpEr0ig5/m38a5/a0tq7/B26rW2r1Wc3LS2opX6XqnkhgRJikQqEBaWNeuSdWQx1fg+py6wrllWFnfWJsuBxYUc8LezTHVYCyjLyqAh91MbfJelaoEzuBALZIFLzz0xZUxbh0RQWkpuDHZ1NPAt6ixl5AZZ8wzKGQvcJIeA8e+TgXVkEyOLh5Xic99zDZKERPgMBpQWVk3THU0tbVN1gYvF3G4IlqYBA5+ivsgmK86EIohQPJZ3smCYgOzqYa0JpERoWGGIJkxJx8gNN4E8FxYF70Y1RD4M7NYupsN71yIwlMqBzKsbS5m7QNsixRYnkyqy5jdr2/sLNmXht6W0RrkZ1vMspIWyVo6di215pxF9txrIzbDqaEFl4LCgkdtyF32L2qYfI8fDy5dT7mfH/cqDQDnJDTWLgWQ9YsjJuWR+5BHxQ7Wyluknds4x8Lj7zLkMQPO7sBFzl7lf+Ij1xFzqPgzkwtti/tXv/LZG2PnHLWsNbWs4ybCQDXLTBJVSyQ3WiclSZVipiAD1ACHhImJZW9RJv1gtRYpagO0iRiYxCyi3gwVbh0BqNDg2K77AvS1iJGpMGilSWBsYNeVCB0OOSK8mxZaSGwsbJajw/SM5yIx38QwKDoKgE6uHz1glgkC5JTxTh1U/70xx8K46Ony41DBzJK2tBVkqdkOI4TBwED5EywCEA4uXBAxjz0VWFKQTbtw6Fo5CYbPbASnUZgaodzKIDXjEguSt/ZAfbpHWuEBG9N7IDVnX872P90IiuarUh9WEvJmITCzInYnDhKBPIchtKeUiN22pQ6W/W63kptI4xPNqD4FykhveEkYbgoJMzzHHHHnOYURbyxBhCp41whxe7LSj4nNfMrSsVeK4qPSUHGua+Yx6Yw2h5lL/zanURcYiV517I0++X85cRUWLVj25IX+Ttyyg5chMOqKuXCq5oRBYGLlCLJxkcsqMBqWikPioGZQF11A1LP6C4FjfZF8dg3LASudH1nGQHMSH0mGRK/y+fMCsYh0QayYru1YnQq5Y964RENaSggQgL0gMdYBSYaeGdxNXg1BQEBAbZMFz/L/FV90pIlQr9cHquUzIwu4HIwPR39vqOvFOSAyZ1+BTvDs1yEJPCjWouHhIw6RS70NxISFzZZFZ/UZ47Dah3Bh8/r8gY+IXxEIUcV8GtXbiojIBIDjlLurMTw1DdYSz55G8EVq7VhQkS99BugREwh+BFIjflhLkpvMcv2A+ZXCZT0sNGG1L34rvlh+BcpIbaw7jiFFtLuVSo7QgKuYdc7g5h2ou0JrCY75BSrjPxUAhLYxfhjgDDXGRXJHR7h7c+lxZDERxYmKdGJj6obnO9xjn5S5VT24sUhYzwWxUCsyyPQPaSiU3GstCqXNQMSgJghv9jXVvGyzL279tXUV0LMIWSopMcTYTRmvx1XlY5RYuBekQg4EUIDOUBkFe4nNgYEG2ewYp4n6xsHNztTRwlyuBciFvA9WFu8e9BeMhWDoet436IDEGAJKBsCA+CBUFCimiciAUZEb38BnipcNTeNS3LQWJZGkUR1Egd3y3BhLLgRvJ54gOcoUw8KftNUmzAAAgAElEQVR7B4pUsSuCRUIB4uf1d7jBWXwTyVRbUEUQUb5y76CdkKlyBgYWWHAH6iuUPvXXvvoKy8YEAUfFJEGtgwPCj2QaG363pVQjudEvEWjt0tZNAsPCprMqN/oxAs89O7xNCm3pT/Hd9kWgnOTGemQuZzhT65EbMTHUFesKQ9faZX0Rb8nzgAxRk6k75nmig/m3SPzI3WktRJiQG7vuECLKujnXbj4KtfnWvc3f7eHG7lByg6yQo8REyD1AlbC4WKSAjCWSscS0+AybBLCJ3+TkWpNfW7fCNu6KpZIb3ykSOWkkCxOXB2XBYqHeRbS5fBbqqGG5RgSn+beGtbAhDRqb+mPhRWS4dhACi52FFgGiiJicEBiuq+I+4kuQLYy4tYFr6lwED6qLZ7qnZ2gHA4B8WZAnCoNrvK9nakd1tegKurU4FYGI7l0E/7Vl2KtPcV/3QXwtfIWriDsJWTHYkBp1K4IL4a1u3k3buJYfGXZ+Cpy9i+f4njq7j77o2vaKT/BOrJgiI3XRb9Sfilf4o/Wdoo28v3qqrzidtpRSyY3ga1ggusi73SnIFlegWDITmGsoX8X5R5RMxBfhNckVY5t6RrGCvcnSexlH+jcrjiLlNwJbbN8VRMqqhBUlVEE2XavdqZylBrtWO7lhEDB2jD39AbHVf4tMwv5tkRDfB2PjsTg6AGmhFmsHixHjgyrIEGMYakPqsjmE4QI7cytVhwtBn2MctIcLti39tDXf1bctskWQMEPH/MqNTT1g0NnebS1xrfWEgSb20ZokdoTi4HpKbxHz2Jq6lOs75SQ3Yi6tNcXaoQ8Um3rUt/Ha5d/GYIFlsQvP2DUXmYeKTQbmZvOsOczn7g9j/bRYC/RDfbuc63djjDuU3GCIBiJLgvWJDXLjNM6jwEo1abGm+ea4UMipJjeTn0myrVmJW0NuLEhcN8VhcthqWxcZwX7UGZ1CrIpBVg2F+mSStJhFqT8ESiU3rP3isFG+dcqdyYpySQkzRrnOLJCsPqSM5UfapvYhL0XGXf9P1vY9nyEbYopMjuYEBg8XqM+MseJIEmOdsmUeoC76HkKDIHEtlqryVDO5gRcsSfZcoZRbuFloGVGUPC5w7gIJ/riCuaNhhOyywi3ovuMa8YGIEMuc+8CGAC5N+MG5yAdj0WLcIVSUxHo4OJbBiLxQXy3G1AVrh/emisKAoov0mb8ZEFy+8EdqXItMuM4cyLju6HmwnOSm/maz/3+jDiU34iGKw89YCuIbyFhcMwaWjojsCHY14E2G/Hk6IIsOGWLVlTMWpyXKTT13jHi3zoNAqeSGMol4cz9SUKg1YpOKs4zsFqTGsPy5DimzFAMWsHGKUNjdJZ6I4mJXmpxX1BokyCKN4HDbFjspxKMZ/yxqBgUZ3Pe57BAsMV/mBvMC5ageyI0Ac1I9ZUHcG0ICQ6qjwH0ubW4A5NK86W/cANpD/AP5n6JGoYCj2D0Yipkg/8PZddoH1ix1ZFFsnXshN66pl5gcihVCgCjru/qU2A8GqdhHfQ95QaopWHCkevkOA5YBTeWCE69BW1NatHVmCXJTGoIdSm7EMCAmBiaryyBm+YmB8HeWGwvQRGrAmiCpPawKsiHlxiRA2SlX6QhyYzFgVbBKS52cy/W+zd1HNLz6jMgVw5XCWizycbR3veL+5UegJeSGjG1x4B6xW6IIbDdOGSdiwLgzGB5ilgTR89+LFbOIyIdk8bS4WnSpgvo/osN1RV0gYbOQLbBFEkv38pkFCBkSCF4cFaAO5gGqp62spZRqVm7Un2SPTJLwLbSUBHF9yJ0F2sKM7MDJPIrwcLEgO0gKd5N4LHOqNBLuReWxMGs7bikYagOuRLsgqWjUHkTIM8zJtV70LWQASfRbHxOLh5RbN/RD/UdgrPnO+iI2EDksksKK4dOv9FXqenFYbEdhE+SmNOQ7lNzoKCRBQawGsABWwa1kUxIpNxRJ1m+DlZXGb29As24srJh0OYOROoLcyFVjYjZBFYmS2ssPWUq3MBmy+KhjIzoTxUTBGmdl8ktrmyi1hUCp5Mb4NA65OJBZi6pFkPvJeLSA6gPGrkXCuEVU+O2RHQsGSR9pQVb0MQoP9RZpEdPAB0/+R4LER1houKmRJjFr+hlyQ92lOkjOiDQxCizepeZSqmZyg+hx7VGxuALF2pj7zJOIIUIixgEuxh+Fm4HINQUz34EPdaJwyVDVtBVyA3+uKtgxYijh3OB+F/d2refVetFf4YF462NICpcoAi42UJ/WN5FoqiSDmorD9cd7oG8iQsi7eDEuUUSwI0uQm9LQ71Byo4o6DD+7SYkMWmTh9Bkp0ITmt62LJjAkSMcUnKTjlTqZlQZHyj5ngbMmatZSWwvp14Rt4pF0ja/X+8gU6sck733IziaTQh5G2gROCtYki1ZqohHfwLoxidr2DA/BYeRaJExwGCtcveTUMRGYMAQzchPw9wtgNKlYmCp13IGdZfoGxc+kjpSx7C2ErFn9xQJpIWehWSQV7+edLRAWYlYZ3MVwlCPjdVv7TyW+Xyq54UZWWPba2HgVMMja18ctBvBWYGcBFrhtURFwbpwjPvq7Bdt3LOD+hixZaI1/Co1xr9/JmKrv61/ieyT/0k5cBOYEn2tb46slMSLVTG7gViinxTk93p8xx2Uixkick74OG/MJvLWHvsvVUgSowxHeRbB642u0k/sYD+ZS96EYeeaIFNtK9MtyPMM7FRnx3Q850V/0G/+viMuBE1x9Bj/92rwAO3jYYKD/Co7v6BLkprQW6HByU1o1K3dVucmNRRM5ISMLBqREyV2CzBgoBgxJnYLFJ8xy8B2uN9YW+ZilTJKuREEAPLuoB9JAtmYlmnQNelaOa1jn1DeDn3VO3i2S4gnOI2u7rhLFs7kqqV8Il6h/SoGFU/0QMm3AahUUS2I2obFei4h91wk8LFwqpZ6tUon3a89nlEpuiiBhxLfWSzWTm1rHNurfvggEuSkN3yA3TXAqN7kR/Ijc+G2x59sli7I6qUN8wSxiCwe1Q+Ak8sDaRXIQIsGSrNVKFW4BrkE+fIGbpG2Wtm2n1LMizw0SgPywgNSPz55yQ3Vi9fhNqapUEYyurghkkaiPVQp3cQgCLOVOEcQqdkSAKuXALhRxXqR599BWFvDWbquv1PuW6zmlkptyPa8a7hPkphpaIerQGgSC3JSGWpCbdiY3FBBSMr+vHAkCpi2g/L1IjS3wFlU5bRAJvmFxCK4lkVJ1SPoCMytVpNmmaAhe5Da0C0WdBZCSu50p5RpbJikmVCUSOUVKkKKCwPH7CwSvRLIwcRfwFIdBUkcKEUZyfXHaMiKmftQdyg4XiIVdtk1Exm48rjfXay+uuM5Qgtx0ngzFnaE/1/s7BrkprYWD3LQzubH4UzDEKMg5IQ6E68OCbzGmkiA3yAtyYOG1wIp3EXDJ1ytI18JbqSJOhpLBHSWwURCiBZDqJICRf95nCJA4GwoP9UMwo2A7PmzuLYSBi6g9DkVrigUckUFEzDZjygyCRZ1RL24yQZTID+VG3bjMiqzOSKYYD5hTqZDKEQVTV6o92vs5QW6C3LR3H4v7lw+BIDelYRnkpp3JjdsLDhRbwxVloRcMaXGlMBQBroLexHwIyBQ7UqTCFgBYzt1gpXQLdVJXhEBdxK2oN0KGbMkbIcGgYDuEgGrD/eM9iwyxFB6KTkuCPEupW3PX9O3bN2MsLkg9BTtLTiYAWmyTegqqRMyQIKRHTI33Edgt+JlCxp3mmiKQsy11qpXvBrkJclMrfTXqmfKWdoYaw9lW9ijDRiDITQXITXS+QKCaEQhyE+Smmvtn1G1IBILclNYjgtwEuSmtp8RVdYtAkJsgN3XbuevwxYLclNaoQW6C3JTWU+KqukUgyE2Qm7rt3HX4YkFuSmvUIDdBbkrrKXFV3SIQ5CbITd127jp8sSA3pTVqkJsgN6X1lLiqbhEIchPkpm47dx2+WJCb0ho1yE2Qm9J6SlxVtwgEuQlyU7eduw5fLMhNaY0a5CbITWk9Ja6qWwSC3AS5qdvOXYcvFuSmtEYNchPkprSeElfVLQJBboLc1G3nrsMXC3JTWqMGuQlyU1pPiavqFoEgN0Fu6rZz1+GLBbkprVGD3JSR3AwYMCBnvq1kkT24tQc8yugrW7JzlhyIWVJpeL2BXQalbl26pm5/tuA7XQelkVLX1PWPlLo2ZGeW8XjUUUct6ZFNL5JpGNYl17nhBjByvYzFpZbG39GusjYXGZhLvUfT6wYO/K2hHs1/W5vARV09Ux38dpyE4u/F/6vLsPpb4++4ZkT9oxzkBq7N9X2vO/DPQRm7kfSZhv/++KNL+q2hKUYZ+U//THnU+HvXhv4xaGh8YDao4TuaL3+n4Q+yd7e21MrBmcZm0d5N37VLA2CD/hiUfvvttyHGUlv6jOeZU2q5wKP5Mri3/e8SKP6Z/hzU8J1u+lMpc5rvNBy8O6ihMzZ8p0vDXNiWvthSrNuL3Ayvr/1veP41Toco/lIKZo2/9P/fgVtL5vGWYBXkpglarT0V3EnUTvV2ZEGlCI5Jz0J4xhln5OMDWloc4nncccelHj16NDuBDnXPkbumlWdYIL3U7/X00e/fNaxGIyZz3UYdOa083XzpyTdfSl+lX1L/r77O52o5oLKl5ev+/VOvDTZIP/70YxopT0aD56hmb9W1YfL55Zef088///LXu/75F1EYXvEdRzk4DsMxGY5vcP6UQ01bUyymzhjr1q1rngybDnXLu6MqFll4kXTX3XelPxtw7dJABn5qeK52HmPMMQa/r8XnjwbC81tD3QoSlCeIhh+//V0f1DccDur0diedN1faQm7UbYsttkhfff1VA+kYZRiTX8ObdfkzLT7VnOn9rz9L7/30dcO7pTTG6N0ajhUZPz313PcNfejX1C39nhouS6P/0vDO3RteZVDDgtNAhuHS1ULS8Fn3sUZLM84wdnr+xS8bFvTf84KiD7fm7LJaIDd33HFHOumkk4Z5hEkedQ2gGPczzTRTuqPPHZkhan8GCyI5Vvexkn6sL4zc0GcsXoOwQ32l4W9dulqUujRc0yUfXeK7jlLR5x2K60DZWiu9e/dOzz777FAEbfAsxWBoeO8/GkjhoAaijdiM3NBvp5l1gfTBG8+mAb/81IBLw4JbvHgDKTdejbdcjN2G/x9l1NFTz5nnTR82fOfHH3/I876+WInjZtqD3Jx77rn54OY8t/zPkGra9vrUGCOPlAZk8tiAQYPhNUrDGPwTwW7oWz///hdGIzf8bbRuKf08sGFM/8+S+/1/68SoI/31nZ8ajDz9UXFG4fTTTz/knJj7ctt6X5CbJvi1ltxs0LDg6hgOaSwarW1NM/xv6zTffvttPgTyggsuyKdgt7RYbBEyP42tnWbJWe5sXdL4m96Xft95jvT9ohOm9NsIiII1d8Cg1GPzB9KA3vOlX+ebMG2ywUaZKBx//PEtrXLq169fWm+9ddPaa6+dunfvXhLWYzWcgXVNwzt+//0PaYvNN0u/NKg+IyrOzTJZaVPk4JFHHmk4B+yjdM8994zoq8P8/Kqrrkq777572mXnndLvDYN6MMYNE+WghsnExKFNV111tYZDSZ/Lp697v75930jTzzB9mnbaadObb7zZ0ObfpEkazs6auuc06Zlnns6qzOgNpGhgw+JkUnIfB7POMcecadFFFm447PSYtOFGGyXku7nSFnKjr1O0llpqyTTvvPNmRa0ofzRMcMqgbl3SLO+Nnsb44sf08jw/pm6/NPx78tfS/D2fSI8+OmP6vOus6auR/yLnsz8+KL07U9f07UQjp+4D+jcQoy5pQJfu6deBo6WF5rwvTdfz43TN3Tumj95/KV10wfnp008/zWeEtbTUArk5+eST0/nnn5d69eqVycdfo489Qcn7a9Edc6yx0pINJOSxxx7L2I85xpjp5ZdfTnPNPXcm8n37vp7VykkmmSRNMMEEyXs7Qw3xLdTP3xoWmpManrX66quluRu+d8455+bDfPfYY4+Wwtqh1xtT+uB0003b8B5zNbzfX5j9X3vXAV5FtXVXeu8hBAi99yYloVcRBBRERUQQRVEEBQXEAhaeig/wVxFELIhKFUVAeu+91xB6GqT3nvx7Hby+GO5NJglB73XO9/H5HszMndlz5py11157bw7ai1iOG2Zqnie8pReeTUaE2qBPxrnjVF5VvNggC5E3I5GWGMEz4OFVEVGJmchKvQlXFzf5ZgXY5KbBXqjFc8k+uJjnj0d8LuP02fNYuvxn1XDXw8OjzG1QFuBm8ODBai3lWpd//6J7YSffb2ZOLqIyrHEqIRcdZdlPyczFtdQ87IkRNjUzDVWdgb7VXBVwTLF3xoGbaejkK3tUcibSxVHxE2eG9g/LsMGe6FwMrW6HjOREjHltEpYtXSy9Chtg1eoT8s6ylAP47DPtxGlxLJUtdXBTwHwlBTdPPfUU2rZtqxaFezW44LEb9nvvvYf27dsX+2ffeust2Vz2YNu2bdrPjcpETPMv4LNtBFBb44d8MRHRnb+G7zGxjZ8jevXqJZtvE8UaFXewOeczz4zAU/IRagE3BAxkFL786is0a9YMgW3b/GUDNvb7PIegYfYXc9D1j017165dOHP2HFatWlXcW1bHE0C+//77eGfqFAUkuRArj1q8GE9PL0RFR8nCYIMWLVqiUkAl5X2zO/yyZcvQtWsXtYnFxcQgXd45761FixbiLTohTpgsMlHh4eHyXGmyON+STuefYdp776K+NAx94okhuL/XA5g1a6bJ+y4tuKlevbpi0zp2bC9sV6r6nTxZydxjs5Fta43EcvaoEicgbXsobIKOI8quDnxrhonnnINj1/oj284dKdZeyLPNhV/0LdTYHY+kTrGwcY5CdF5tRNrUEwztii4tP4VVYi6uhvSW86Lw9vS5CAk+p8BVcYc5gBt6tOuFkRn57LPCPKbdtusfjJy7mzsiIyMUSGkj646nbNYEuMePHxcAvgVdZM6QwWMIl6CXID0wKEiOyVQsJOfMZfmW+G90GNasXYupb0+Bh6c7Jk58HY888gjGjBlTXLP+rcfTNmSbCOoDA9sqpvb2yIOrqwfSZUNOT4lFukMNVK/ZEJ7OWYhKyMC8vWECYhLwWgthsXJTkJicgmzx2bLsK8C3Qn0kJtyEu30ubOTfMpLC4WCVha8veyEtxwFvtnPHwYO7MX36h7h0+bLZghvuXwSGY8eOveMdxsnfeMmfk4IVJ8i3Wd/LAVFpOcgUNuZmWjZmtvdCCwE3f/gy2LIvFDN+O4fWQbXQKLA6ytsBHT1vX3b5tWx8eTYeH3T0RTkBnKP6d8PHsz6W+RiAxx6fJ02M4zB1Sm9MmthTgZzSjDIHN/v27VNdmLVoHbip0GPu0KGD8i4MHzPPN0WVGXt4Hkuq2lU2hOKO0oAbej330tuJlY2NDAZDJSVhbkjh7tixAzt37tRsptR5h5H281n4rB8qs1kbb5j8wU5kHQ6H1y+Pq9/p0aOH2pynT5+u+XcNBxLcjBjxNIYIG6EF3DB0EScM1/TpH+Oll15ElcpVFO1e2CA1T7DwfwISJk2coDqg0zM+L8xJacDNu+++i7fefEN9C5yjtz2kPNSoXhP+FSogXjrDlxMWwtPTE+fOncPGjRvwm4Cpl0aPlpCUjYQZ3NS9cG7zW/Hx8UXwxWCcPXNaNi8HZQ83dw+1AQbIcVHSvf2FF15AnwcfxMyZZQtuHhk4UAB2kNpQcvJskSNAzT0lEzU2xyOtYibcWu+Bd9RNxGc0wpmAQHRt/zlOXXoAF6+3hZtNLHyyL8Ir9xac7K7A9mhV2UQq4/j9tZGT6QB78ZbL55xDm/Lf4VZsbdy06ondVzPx0YzPcTH4vEWDm99/X4MR0gXaoOfj3CE7V6tmLbgLS0DQQybP3dMD52XOzJg5C/v27RXHYTqyJXTn6eEpc6qcmjMMGhAUnZH5EhoaqgAP55qDgGQ3WSvdJIwVERmJadP+o9iil156qdjf5995ggHctG3TGm3kTwY1kLKBZos2JtfOGx4VG4q9UpAsDER5Lw/YCki5HHwcP193RGufNDTxTEZEmhs8ffyFbXSFp0MeKvvaITrHC5dO7UR5x1TEZbnJtXzlHBsMqOeGRj6ZOLB3Mz797HNwbTJX5oZh60aNGmHChAl/eYUZMmnGLToFRMXDpX5lXBWQ6CTO2ZvNvfBreIbY0AqjfHOx99B1rNsVgpMnQ+Hm4oDybg7YcyoSn859At1aVMLxMxFYu+EsVq05Df9+rTHmydZo6pqNof0eQI3a/RAd6y3fsYM4RxmY88VgODkKIirlKHNwQzqdm7CWl06PljQzPVZDDI66hyFDhiBOFn6tYk5ep6Qfpw5uCp9R8SNWwsrBFh5zH9Q89WIfXgy7RuXh9n7Xew5uuICflUWfIO75555TgKIoTRS94UOHD4sXfEK85mcUkDh48GCpwc1UYW3efOMNBa7IvgRUqqR0D56e3mqTsXewR6iEvmIElPB/z5kzF5lcSN6YrOzGMER2tnibAvYZknR2ckaDhg0RFhaqNi2GIX5avAixMbHiILRX+okpU95Bj549hLmZZfJ9lZa5qVatGgYMfBTtOnYSViAT/u6X4ZYXjbzEdLgnxMHxdBVkeaThSpW6sI4VhqFxLO5vOQ1H9g1CXooVnG2iRXDsiTgrfyTZVBDP2hFVD2fDxj0CWTUi4ZaSAA+Xm6hU5zTWhryFbKtyCA05gekzZuFC8EWLBjerV6/C06JpSk1NFZbGHlWrVJMQXbqsp17w8vIUB84ZF86fpyRWNu50pV8IqByAEcOfhq28/zwB0SmpKYgWnVuisBNewhJSo3P1+nUJYbmJnswLv69dJ3MyQ65dWX7DUW3Ujz76qFmCm44dOyKwTSu0lT+34tNg5yxJAM7lISkQCPBxhJeLPaKzHXHg6Bk0q2gn31EYPjhbDgOrO6BRRU84OjnACUnIS4tCUmKcfG+ZcPGujfBUJ2RlJKFWlQoIj03B7GMJeKF6BCq4SVjr3CWx++cIkX1Lyz6neeE0cWBZhKXI3DRv1hTjxr8q6jfgVPAtLP/tFEKOXkVK2u0kiPCYVDz6dHvU6dUMAyrYY9D/7UPk3vNwk/nItIBWgTXQI7AaWraqJmuTPZYsOojZX+9B/VrlcDk8EX6+LjhxPFTC5sPRqmklbN10GmNeHinzsRf+88EL8l8/Ce0lonx599Ka6PZ6KQt90YrQUvwUFz6GH/ixFDXoLTcQKp0bSZ06ddTh3IzoxXJD0Apu6N1Uko2jgnjDxR3mBG64wT388MPiaU27J8xNXkY2YnsshMv4IDg+VE+TafNkgYm5/we4f9wT9p2qqXN69uypYvv3grkhE7jg+4WKih/z0mj136KGi2hYvpg7V7GII54erjxggp2z586XirmZOXMGpkloiowitRG+Ek4hkGd4gZsXwQhBPUEMQ0zRAlJ4D06ODiIEzZENKppfrAAZD4RHhIk37oHWrduoBXX//n3KAfjk008RFBiIVkIx161bFyOfe14xoRSmmhqlATdZ8q01qF8fQx/ujAea+8AmLhg+FXKR6WGD09c7IM3eFZkSg/cW56/S2QjEdstA5UqbUN7hMs6EPSgbcmVkpXnjVgV3BGSeRpRNDWRb26FO6m7UPBGOG1XK46RfZzSsvQflfS9g04GXUcX2PMIvHsFLn+7EpQunLBbczJ49G1u3bsHLY18WRs5N3rv8kXd+6tRJxEiIMjExRYC6LWrXri3zJ0WJrNNk3hDAEATbSjj2xo3rEvq0kxCmgzrH17echM8Dhc3IFKbnhGJwXp/8hjDOr6C2zD1676+MG4/+/fubZViqY8cOCGzXGY1b94ST6GQcnH3gYJODxIgTyMtMRLJs1F6+/ki2q45bYo/Q+EwcirXC+BaSdWqVqb715PjrcPepguRECflmZ8CjXHXUqdcY50OuwTr+NHaH2+FInDOerRENV29/nLoQhlkfTsJlMw5LvTBqJLx9qyCgTm/s2HYGJ6/FI8/XA5MfaYz+PeqJ/sgZO7cH4/Wpa1CnfV341yqPtV/vwKOPNBd714SdfKcd/R1xTiKBdrJn13K1wfbIDGFudsBa1q5PXgwU+0Rj8ifbsXbJ0wg7F4lnxy5GZvKvmPflDLRqFVjUslzsfy9zcMN4PMHNoEGDirw5sjYENwcOHPgT3JB2pXKfsePCwE1+jEZw07t3b9EbPFHkbxY8wJzADW3Sr18/fPDBB/cE3GSfi0KsABXfw8/D2s9Fk20z91xH/NAV8Dsj8Xun29lN3bt3R8uWLcsc3KjsD3s7zJ07T232rVrd96cw09TN8xzOsy+ENeneravS6TAktHX7dgEiIVi9erWm5y54EDU3SyUb4Z13piIyIlLdR/PmLeSawQgOCVYbEOcwxc9NmjZVwPw/H3woIMgZlcUTpyC0UqUAFYcOkfuIi48VL9tJ7lW0LcLapEo2GDeq//u/TzH25bEStqipYuhdu3VXGqeyYm4yMrIkw6sNxvSugMZ1q+F6ejVUscqV8JItjmRWRJa7+MyZkrllk4aaCYfhdjkblT0icKWbO3aGPAnX3GTU3JgGx+b7keGbgQs2veGQlypCz3hYRfvAKkM2ZT979Gr1MeKTArD39JNo57IV+67kYvzHy3Ap+LRFgxuGOp4bORI3hGmhmrh27ToIDg4WNjwcm7fGSWadsFoeDgoY29nZqP8S5FJA6yTMHp3C2+m2oiHJknIMMs/SRODfsJ6LiOsDcPbsBSUgnjhpgmSi1UH16jUwVLz4xx57XMCNeYWlGOoluOneayDuaxOENGFlvMsFICnPTxzkQ/BzSIKzZG5miIDarVwNEafXwKw9CQgLv4BRtWKRAQGB3vUlJOUo2T5ZiA07I/aUAhaSPUW7ZufZwz4rCt9e9oWD6MOeqhoH18qtcXD/LgE3k6v4MtMAACAASURBVHHpyjWzY25iYlKweUswflw4Q1jjHAR2ehytm/rCv21dTA/NwXtt/NDB83/al90XY/DlJ5uwbsVRPPhEG3z/yUC11P16LRWnY9KRIgkmE5t5wdvBBglZ8t3bWWF3TA66+9jgramrEZqchQUzB4hDvk00S8k4uHeWaL2oGe1QonW1sJPuCbiZMWMGBkpMvqjBDBF6m/nBDUNM1DkUVdeEm4VBS0G2h8xAoHiwxR3mAG74fN9++y0WL16sBIRbtmxRz1vcUVzNTeq3R5G+4hy8VwtoVGmkRY/kGXtgfTIGzgv74deVK/GlMCIMEU2ZMgVvSIimuKM4mhult5GFfuasT4S1eUnoTr8itV8MYxEkzP3ySxG2TVFZS3v27lM6hvvua1Vi5mb58uWYIhqnN//Q3JCJaSPiZm5AERHhkkLqosJLhvAr37GT/F3lgAAFgAh8OgjlHhMVjVsiPqY+h3OerI2j6NOSJeWbc2GPaIPGyqYUEFAFO0UETTu/+uqrhaawl4a54X1WqVIVAx55HB1EzJmUlIYKvuGol3MZoeubwaq6CDC7XsD5s/cLMBM2IcMeXW4eQNStAJyqIx60lyNqXb0i4sIbuFq5EtJyPZBkLQyQiI29cQ3xVuUlW8Ma3VvNxqkrjyI+uiLsrizAf1Yl4cy5C6JzCFFZQMUd5iIopuZmqGRgZkjYiKIZOgVk9tLSErFv/01s2nxF7Jorf2ejQk9k+ny8/QT8xikhPf8/HUSCmqzsFGHCs2XOuUsIyknE9S5YuuxnJQJn+LVcOT+s+f13kDGiRutZETKb0zB8I21b36fCUtR/OTi6wCvgPkTEpyJFvhf7bKEWki/DyV4cH0F83173R/MKHmjlHoqE+BiUryhhP9fGuHX1hGzQSXKNJBWWdnYrh+yMeMkMysXcEG90r5SN1v7Z2H00BBvW/YbQqxcRculyicoSFNfGdyssdfWqlOQY9zP8ynvh4oUl6NatFd5663YInOPlfRJaFmG1iwAUT3trDKvrDn/JeuIY/dEWXHJ1x6fDm6Ouqy2SBNR0Xh2G4XXcMaiGK/ydbx93PTkbXo62cMrLxsBhC9HnyQ54rndtEbyPlTIXZ8RRO4T1GzYLA926uGYo8vgyBzeVK1dWCyw1MIWlSHMCcVPhQx49elSBHA4ClgULFija3lixH05obmJMxS5J1kRBC5UG3LRp0wajRfxZloPUMtP1rl27hudEQ/Ljjz+qNF9mahV3FDdbKu6RpbCp5gn3Gfdr/qnkXouQFeSPV6IXY8/abXj99dfFU5yv2JuS1IwhuHlWFuJh4l2ytkRhQnVqZ7iJbZT07VeYBcAU2iKisBSy7969B6fPnJHFvy1+/OknBAUFqs2BYcCVAtBKMghuGJJ6++23FFAnaG/StInoayR7Q0IJ9FxCQi6KJ31WCYMXLVqMJKmfMUs2Gf5dJREIlxc2hyGp06dP4eq1q+Jp1xbAVl50J8FIFW3a4sVSp0KeuVq1qsKANlQagAWSFk4Gs7AQYGnBjSFbKjCwDRKTMuDjHo2KAcE4dywIjfeEwblSIg5WqY90Zzv4eFxH9/YzcOj7iUL/+yGjTgzqZu+EY5hobkTkedajJdyyY1E3Yx1iHWojxCoI/l7B6Bm4ADMWPIPUy4fg5e2BvZdysHnD74rFsGRws379WgmNjlA1lzi4LvJ9eYhQODCwtYSojsv/vyIhKmssWHhVMu4k+060OMy2I9vgLPM5RTb57CwrmRe2eOnFliqz6vSps5J5ly36ms8UYOI6yxDnOZlr69avV1mfFKOb0zCAm47t24kj0lKBNnvREHn41MDxyyFoVKcRrBy9cf3sbnjbpyAm3Q6zg70wqY3MSwcpOZAqYV+PhrBy8kFMfBQcYk/J9+YIF9/aEjlIElB0BTeS7PBThD8edj6JXRtX4aaApnq1qkrGKZndi2YFbhIS0hAaFo+GDSrImvq0sNQtRGf1vwy56cfj8GAVF2yPSMO8c4mY3toHD1RxliR54On98ehdwQG1XKzR0tcBn59OwA8Xk1BVgM6cDuUUGPr5SrLKqhrVwAMRV6Px+OhfRfD+IBZ9NgXrNu8Rh/M5LPhugTDrc2WNDbrrU63MwQ03fKXoF1q9sI2IoQAed+HCBanfcVg+xGrqYfl3ZBgMhakKWsAAbvghMl5c2lEacMMCTqxNwU23LAbrVzBFs0uXLqpGDLUbBAnMwilJKji1OmSA1koaKEWGhY08iVXHPvADXMaJ3qa/Nr0NEiTtdNDPGBE+H5fdU7Bi8XJVdIzp640bNy5RKvjVq1elFsyDeKh/v9thJqllQdGtscGQzkzRmvh4++AZybBKFHajqEEW5JNP/k/pE8j0PNinj5pXBDynTp8uMXOzYsUKybyaJJ7RG4ptIVhnuIuMDbU3dAK4wZw7e0Y2o1Txnr9AfdGydOrUUS2YQUHtES7MDgVy8Qnx6lyCfYZyqaMg+zNLnvXKlauqJs7HkonG4mITJkxET6kpVFZhKTosBDfdu3UTdnaA/CbZASH4XdPhszIXXv5x8HW7iZCbTXCtuRvqVduLquWPYsPx0bCR8HGbtG8khBWBmzE9kXa+CTI7n4dXxg1E2tdH3o3qSBYBaL32u5CZsB99hyTgjceqoWGXp3A0JAYfTHtPgZuSODXmwNywOOeCBd/hFamPRNDNzdpWiqAR/PKdc01lSnfwhTOSARWGz+dcUKJyxq8c7WUNEnKVGhxnZ3uZK2JHKd0w9MlqKnvQTUKZFyUF/DtxHBMlvF1DwlETJrymwv9kOgcMGChpweaXCs51sH69unjoof4C+FMlPCcammxXXEcl3FfVExX9BdidvgD3zMs4FuOA9TddMbrGLdhaS0HE2i0RniYh3oQIkRTbwCM7EbauFZCZJABdWEcnqwzsjrDC2gspiFs2Ht36P40uPR/EzeCdss58qlLqzVVQTDaIrDXnnKGieaiwLtNPxCFawpgx6RLyq+CEV5t4IjYjB8O2i+C4e3l4Sfhph4Cfd4/EIqi8SLEl9Bko/z0WnYFKLrboWskJrk52OLbqJD5auBU5sYsRfcMOL74zExOfaYvOnTur/assCkaWObghWKEQsqgS/wQpXKy5YTeUDJC/qwR4ScHNqFGjxNtepOq3sLAe053v5iCw4TXphRs2qtKmgjNcSODIRZIZaa+99prK2jE2so5FgMyN78HnYO0jRQ20jH03saHXW5jfKx7z580XoePta5cmFZxea/fu3WSDT0CTRo0F6PRRwIAhmoLMoKOwGP+RInbtpcBh586d/qwVYurW+VEzw+Tll19R9UMmvz5JbRbMODl46FCpsqXWrFmjxN8UyrPoWjupxcH5XqdOXQVQWKiP1WSvCSPDCqvMWGEIy1OAUIN6DeBTzlfYmitKX1NfWJldkr5//boIHOUa7UUwHCw6HIr2A6RGzhcCjKgVYFbVlClT8YDoz8oqFZw6B4qg+Y2T4eotwLVctQD47kqQEJS0ZJDCaJUuJeJGri9uNPVB1w4zkBrri+2nxqCq9RHUzt4hwKYFkrxc0fzCPoRWrIfz5Rsiw8YFfqFJqLQrF/Vmzsf7888jIWIAXujtg7PWgbh08Rz+O2OmRYObb775BpMnvy7fZwU1Z6gn4aCDwHdLITEZwOuix2EdpiVLlkqNmsnYsClZwieOAoSsEBMXi0mv9UDX7g2x6rdVSlBPppsOEuvhjJAq4WSDCKKS5JtiOOvz2XNkLj1mdpobxdzIt3Dy5EnFZPfp/QDKi+1irQJQw1vakEidmmx3mV+Xb8Ar+yoWXXWW+jXA45VuwUpAjJ1vU/kmpZbNrYto3CwQO87Jxn7tGAKcpVaQgxRBLFdVsqRicXrzIjxV3xpBj72JsEtScPPSYXz2xTyzBjdM+2fxT+r0KBfgGv1LeB7O3EzA0FqueHlvlCrEx7BTlICdDaGpmCtFXHPE5sO23UKKFAb6JMgXC4OTsUgYnI/a+OChai6IzsjFwlDg+McL8MNXY6WEx8OITOqEqe8/hA5NPcUp76w0o8xyu9ujzMHN3b7hsr5eScENkS89ZoIDbiT0ICZOnKjATmkHvUxONtYiyF/Vt7TghuFC6l+YScP6BtxkWcSJ4a6C4u3U+Uekvs0Z+Gx4StPj3EqIxZFx38M/Tujwn0bAy/l/6X2lATdKYPncSFm4eoumZLcCAgQv99/fQ1H1DPkY+uNck0X/a9kgJrz2qkqbLqxWkiotLvoECoZXrvxNvIl3VP0QXo8gqbTghoJiXnPAwwOUroHtIGbI5kxNzYkTx5VN6Y1zo2Htmvffn6bq+TQSoJ+clCzs1O2wAQuvcQMis6RSyuW+neS+GZr5QooOEsT1lLlC9pNhibfeertMwQ1tXVPEy/dLBhwZgV379mBg5wfwgk1bhPRwR5JLFuyjM1HxcBpcLuQi4KUtOOXXFOkXs+GXF4Zrzm1Re2Ei7LtsQ7jHfUhIayBF/yQNnNWWpV5GubVRaNZoF1ZJjZJ6KUlIs3ZClFMzXLl41uLBDen6taK5aSqi9tWr16jU7ylSaM9FWnEwBEJwzLAkGb5d8i1s3LQOD/buj2XLo3FZ9BRuLo5qDgx4uJKUDPAQEBQu34YUo2PNJHEi2XZgphR3fFYADhn2Xbt2Kibxdiq4eYKbTsIENG7YQOmP9opOrlXbjhg4ZDS8bGPkm4lV9aB8/KshWerVvL3jJtq4R2JQA1fcRE3cCL2M/p0b4EpkjhTDDIcjBAhmRUsYRqqH20oKeYqtFO+Tmjh21zCkczOci7KDd84llYo/WxIQzJm5YSscOomcLz9IZfbWwor7DhiLqQMkG1PWpjSpMnzoVjrWXk9VYaphAnKG1nbDVGFsqkpmlJe9DXZHpqG2pz3ukzBV54q369RxfL1FSmr074X3Jz+NFs2HYvb3B7H0x2FwkPpVXbv10MGNph31LhxUUnBDHQwXCCJghk4++ugjbJcMm65duyqwwKybkgyCD+qVOPkYRso/SgtuyNqwgB9/g14PBcoGbQZ7P/F3DcUU4wYsgW0TqVXzTpciHyNSCoE9MnwwntpZDs99+S7EzfnLOaUFN9z0h4vmhuEcgp31GzYq4W/Lli1ESNhGNgEvVRNk06Yt+E281Q8+mCbPlyvgxnjVA37QHAQ1GzZuVGEW1pZh6IjjboAbam7el0rS/5n2PhJED8G00YYNG+En0fQQANevz1Af2UtrSfOOVM9Cz5waCC6aVatWEw++vBLb8365QRkaj7KSsgonSKo5QRxFpEeOHFY9sd54480yBzcGzU03yS47cu4kvFdcw47EC3DsUB0dWwbB1csdGVK6vtLlq7gv7DTCk/2R3vgSzvh1RxZc0WBVGK629UWS0Nm2knprJ5sJQ7zbdx9GyNVf8G37bjiR0Qy+FdfjIroh19FPmJvzFg9uWLNm7drf8aKE3Dm/IyOlyKGzE8gC9pTaRTXFmWJVYvaNukXmLDAIHhKyOnLkOJavuCqNHV0x4KFKUt35loAaKMaG3zPn9XwB/f7l/ZVTkyPsD1uAULjOkBeLV5oruKHonpobMl1si7Bx+wHERlxS+rZ2outwl0KFVhI2jcx0x4Ir3ni9vZ9q5Hv+7ElUdIpFgxYdseeolDOwkhYMUpLA2kZ0SzIXjxzaj6VrdsuG/y5ebSqFAR3KyXcaiqruqTh5+pzKrjRncKPq3PxRhDYyPAxj3v0vTm3fgM4d22HMK+NUNIUjUYrgPLoxQsJRIiMRoNyvqpTLEKHxwuAkxAlL83Ljv1atp352+OCBcmwdTBNGcM/64/Ct4YMpYzsrHRnb8Jglc0Ov99dff1WMgJbOn/SeW7Vq9RdxEWnUMyLuLG45HlLlJREalhTc5J8chp2c9CjFvuxLRHBDkR5pU62DtDTZn8mTJ6uQUcFxN8BNwQrFfGcGkTLf2TCp8/JIvwFwf2ITPD7qDXQqvHaQ0pYIlf5wpwfwxoEGcP+6H2xaV7zr4MZQoZibPOdNiICc7dt3qDYG9UU/RDEwaXdWZ+3Xt6+i4/OHrQwtFgyps/O+mq+YHUcnRzSTVOyuQtvfbXDznsSWDdlSpM3PicdHgTJDji4uruIttRJgVU3KuF9BH9H6+EkoigwNwTLnMqsXn5I5xcWWYVtWICYgZc+sa3LMJAmjvTDqBRE3bv2zcOa9AjesUNy2S3v4nk6Ga0I2ltlcwMY169V9Ul9Vo14rdG11FoEOC3Hi9zeRlFkJMVVykORvg1qr4xHW2hVZ0k/KwcZeaajoGKxZswtvTLLHE+0r4caCFshufgEn7B+Dq12OYi4sPSxFcMNsqeHC2HK+UiTOekYbBMyflFo3ZG26de0mvbXKic2y0Us2CorT09Li8fHM4wi7kY3nn60BZ1fWdrJTwObkyVNY+MMPAqgbSwj0uhK4ExQxrJUkRf7Y5sPcwU2QZCG2btUCOXbijHn44vi+Vdixc7f6lho0qI+gFk0QbF0Fq2MqY1o7b8mRl3pBqeHIThH+pnEQ9p+8hEoOUjTWTpogi+X2SQbi778uh3fQEFjVfwjvda8oPZMScevKYZT3Zi+vM2YPbvJXKA6R9nAbwnPRLkmea/ZnyqHi/jVu9Cj4Ng7EgF1JaCjNbas6W6FPgDBZUsX5p0spCEvNxsR84IZ7wdhRz6Pj8Bdxq+IAxC/aIM5MLn759QXUCvA0b3DDkAGLQVEJTW+ysLAAvQqmspIay5+RwmtQq1B4G/s74QIXBrYmKO64m+DG8NunRYjKDKGNwgrw+Zid8NBDD6kwFjUd+UNABCxbt24Fu7RSX8J+RKaeoyzAjeGe+a4Icr774XsEpDlhYmIgjozwxX092qvKunyffGcEDBR7HxJNClNImdkz/q1JGF2rHxImr4PbhiclvPDXUtp3g7kp2H6BLAbtSEZkl4h/z0nDwOuyeHcRmrqnhKzIaDBkaLA1QzqRkTdVfP6kgAs222Ooi+Xrn3xyiCpoZmhWeLeYG4IbaigogKXonKCFdiTwOiCFKwnOyPzVqlUTe/fsEwbKQ7E3BJxewsL4SruFo0ePKOBy4sRJKSx4SDFVrIuzcOEPSnjKb2X37l3KoeDz3itwM3DQQHRpFQSfndEIa+IEK39X5KVn4/KVK9iwbQ+s4q9hxaR4obYr4VDmENSUrC/PdBukVJSMi3nhuNZXMlTcMnFSWIcdwiaSZBs+bBRGDFiKU5EN4LxVinje8sOxlo2kM7GVygT7t4AbZgZWrFBRNVwNDb0uISU31aRx85atao1gyxd7qedEJ5BsXd060qLiZooI0T0FALlIksY50ehES9hqswjOrwgI6qkypphdN3PGfyUFuLsApvUCbhItA9yw/YII8K2dA5ARd0V0adI0U5wg9n7auWM7rogI3b/vJKmK7Yj7vcPke6sKF/dyyEiJRr2mQTh44iJsJTPq0rUb6pvMkpDwk48NwracZnBOj8KQQElckUznm1cOiKPhqjIrzZ25IbhpzAKOwuTNP5so4mFHNPQSQZIMOl9fz/tSgPbvqFK3EVJrt8Wkh7ugR8uGiLF2QVU3O6y7CcSlZeBB7wzVq5CJKufFeZs25U3kSgLAGcnM8txzDFuOhuHX2Y9I81FpsGnOzA378VCcRBpVS58ndrfmsUR8hsEMK6bgFneQXjXQ9sU5tyzAjeH36TmwESJ/gyCAoQQWLeQmRKBgYKnomfcVtoEb3e3sB+OjLMGN4RfpuYS+vw7RSw5iWtMzOHv8NBzEG6cImTbmPYeFSTaB3DPZCDJMAaIjSXl3BzKOSBGtVXcWUiwLcGO4XzIFfO9nxL7zhY1hewJqVNhgMiCgsrIzR4JkHLFcfZUqVVSjPYaFLkjvqJ9X/CJhgFFKy2JIG7+b4IbMDbOf+O45t+mRKyG9gJwa0i+I1binSa8wHx9vVfOGOhw+EwFx/Xr1MW/+PNWegdkt7aXFQhNhRdjx/Jg4Bp+KdkplYkmWCNPK2YvqXoKbniLCTJffTpTqxDbZtxMEyIz5ZYfANfE0Gt6/Hx8vrIGvv72BSpV9pcCar7AJjhh6rhqW+1zAWclKcZO6JGTO2rQNgrNjrrA97+DEKWH/wkWcHFIXtyQ1Nau8o1Qm/veAG2pi+M1R06SK3UgaFEE614aqklW6RUDOnDlfqHUkQkKaZK0dpTcPsxKlgykWCbvH75TfbJ8+vRVwXyTAhnOQonnOdWbosbwEwba5Mzdsv9C+gzQOlTmYmhwjtrpdc4UA0NnND1dFGzLnghX8rq1F6oWdsHaQCtoCClnuwcfXD1ExcQi/IS1ERLzfpEkjaefQRmJ6jnj/uAuG1khFQymmmZYr7yAjSkJcElmQhrqWAG6aNG6EF16bgDNRGWglfZ7yjxiZdj8evI4VK1fDLewEfDPEwTp/EbVrVhd2zFMKJUqXedERhl88LUDSVjHPrJPEveDpnVHoJVlT5cTJPS7dwttJ1lUbP/aRMuOwFJtmMqRCJsZUFk5+AzIMs27dOtVB2TAYs2N146KaHRbc/hkOIjtS3FGW4OYvk4Wlv6WuD9EtvWyyBFysSOFTIMgNsKhxL8AN7yFl6ErYNvWHw2tthe2IVE0lmaFBwMoJyuwNslD57zm2z4/SoqE+nEe2vOMx7ga4eUwyg/j7d9ROYpVf2dQ3SW2bo0eOqjAQQQKzS6h1Yadkbg7ULrB2DMEAQQYBDIEN68eMEwYk9Y8uzLx5/tthYRAvhlwqcSo4NTfvvvOOYm7Yx4f3YAjVkiVjRWIPKa3/iZQSsJaidYMk5Z+bDYWRvG+mpVeWpp9MFWeZBLI/vG+CNWbJsLbJE4MHK6Cprit2IOB8WwSove9B48yH5VsLah8ofWjSpLPy7Vcu0lWpQByNchnBsK7mg0YNVmHr/nEIi0wV9umWFPxLQrr07mkshfpu2CTCtZwXqsoz2gsgSpRISu3Kh6QvzRbs3fGoXFNqZtg0gr3oJWydHRR4myXpt5acCk72ec2a1aqmE78zAhq+W0OIvrKAdVbgniAlBhqKk/TAA72U7iMhIVFqJCVLReuKirGkXqdq1SpqfVHzX64xU3qNtRGBOoursngkr6sKR0ro6nPJtjPHCsWGOjdtRAzbqlVLpEl9H6s/gA2r0VnbOsHRzR+hMUlYdsUOw6onSFPWeFwPjVRzkVW+mWpPIOnt7asqg7NtRY70TrqS5IhVoS54vh4rPlsjMy0ONiIydpR6LmfOnMWX874ya82NqcaZ/I5zhEbdcTMDviLwn3k2DaPqO6ONJAocld57dMYiwiNUbzPqmRqIjpDaHcNeQB3OyJ23ML6xJzwkbbyBl52IuXPhZieA2pzBDZkbFopjHRUttV8Wikqb1YjzgxsagPH1wjQ3/DdOzvwbHQVQjEkXd9wrcFPc+zJ2/L0AN3lS0yC60Wy4z+0Lh+41NN12Xlwaopp9Ca+Vj8Ou+Z0andKCm6dFB6RYLfG2CtZO4iLNBfrTz2bL4l5BZScZGlWySaWhrjJr+bFaK4WUTKcmO8IwB8Hl/ULbs6OwYZAJYjYKM6ZK2n6BjN2HkvL40UcfqhBrwflsJRsXU84nSquRRwc9qrKe0gXw8t4MGw/DErxPzvMcATbUG/HZXhVvi01Bm0njO4aw1JDzPAQgj5W09m5Sg6Ys69wQbFEX0qWriASlzk3+wYZ66dneaFD1R1T124bNR2bL5pElbMH/wJ0k8UM6+6jnVx3T5eVkZbmjae0v4e1+AduOfiIbSarYQtSM8t6cJKRHvdLUqe9YNLhhmJed4ceOGWO0jAHnBRmXD6XcAdmdunXrqPnMWU58S1vergNmd3uuy7zh/46NjcH0j/+LV155WWUEquPkpXGuMVvqgw8/FDnBQ2ZZ56aDpMv3kNpfzKA0aOYM85GhTmfpM7Ve6qzsuWmH91plysyzViErGuzPtUFOyJOD2Z9LtUSRqPqii7a4lGSDN5ulI1UYIR7PNYT2On78mLKnOQuKCwM3BvtdiM/Cq/ujsaibP9wlNKxl7IpIx6xT8VjSrbzo6f56jlmDm/3796uKvZ9JFUwtxY3o3TLtOb/mhnVyyP4UVYmWmhYt7FBRL0QHN3+1UOau60iauBFea57QXN8mfXUwUmbugffaJ2ElVWkLjtKCmyelHP3SpUtVSMnY4CJOcEvPlxu7lkHdED0OghCGgAoOhkrJLDLurEUcX/B81kBiHHrDhg1GtWe8JlmIESNGKK1TdWHCcpniUsjgOUz5ZmYbhft+IjjOr2tjSIj0MLOZuFGaGqWpUMzvku/hq6++Ur9l7DuV7RV2aY8h11pEng6TZBNh3+HCR55sOnapfZFr2x859s/95RyCuhOileommYj0HEvixJhDET+WaKCYk3PHWHV3MjmbhaFkmxAylQT1RSVeMESzfNlSzJs3T7IMNyiAnP8cMoGsecV6J+PHjy/qNf2j/p1znyU4pkx5WxyUXkbnop1ssK/8LEX8HK3xbp9akPIsRQ6e88yPZ9DA3wWvdqsm2Wf/y7qk/fiOKCMguLkbe1BRN3S32i/k/x0t4GZRSBI2habhu85+Rd3in/8+50wCzgko+rzdnS1SzBrcUFfCBpbcOLQMfmQMJVF7YxhceAlcCmvdwEWcIKoklUoL3ldpwA0/LKZ936tRWuZGS/uF5I92IWPzZfhsHqb5sRInbETO1Th4LX/M6DmlATdcQIYPH67YQFOhOwrTmTpPIEKdgZbBrDGmxXKzMHZdgh62ASkpuGHKNzcpnm9qcJ7zNzgHtY4Pxcvmva+XkvnGBhurEnyUNbj55ZdfCmkBImG4eAGirj+JdqG7xkeLkXNqAW5bRbx5Z980ri383iwZ3JBtO3bsGH6Q7CZTgy1MGP6nVlHroACZYVqCaGODhULNGdx8+umnKuvW2JByLQj67x580K8uutXT1pMsSfpJdZyxF18PbYyWlf+a6szfYNILU5rNGdww25eaSWb093omlwAAFwhJREFUmhpj90ajibc9nq1XtGTCcI1ndtxCr8rOqt9UwWHW4IaAhGJg/rcoj4IPTk+E4SsKVf+uUVJwQzRN7QwXG2Oef1k8T2nBDTdGapN4z2zrYMzu8Y8tg62Ellxf15jCLrUPYvsthqMsHs7P33fXwQ11KD2lYBw37eeff16JJwsOdqFnxpmpDd/YTbHnFTOtCGKMjdKCGzI/TOtnEUZT2W8E6ATqbOGhdZDFog3eET2PsUGPkpqosgI3/LZ5fb4T1qswCiazdksVsHECbgTYWWv0+jKl+3r6RwJuNkoI4M4O9MxAZFVTSwY3fGcs5EcGkmXqjQ2yZcxI1epUkd1g7S2GdfnNWxK44R7TTsJR1CyyQCnnZcFxNiIJI386hRWiBfSXbupaxr7LcXh95XmsebGVCN5vJyTkH8wUpXjbnMHNSOk8z7WV9dlatGhxxzOmCyocuDESk5t7ob2/tvZCCQIKB22OxCypYdVIQFHBYdbgRsvE+acdU1Jww8nBc1lAjn9Y6ZcLflmO0oIbFuxjCwbW3mG6HwsRkp78c1FIkGJXNaQ307onYdc6QNOj5FxLQFTzufA9MBK2tY1nepWGuaGQmV4S2RVurPwQSaPn703CDZ/PoLUxp4ExpB2M1RPig5cW3FBLxpATF16CeG4s9JAN2XB8FnrLTP1n7ywtgzozFo4k48NF/e8CN2wpQV0SKXpunGTN/lKZO/VtETgdE6CinV1AqjRtzBP9jstCo8/1bwA3DB0RtLICNEEvW7yQ2TZkgdJxZCiVIVqtXZXJhJPxIkPJMgOWBm4IAtkKhMkGdDIHi8g+f22xL3ZcxebzMfj1+TtDz6a+uffXXsSl6FQseKqp0UMsAdyQsWHInIkNDG8yJKmy7f4YhyWD6r/SZ2p+Rz9pWWGtZXnCtjAJYQUnqnMK6m14AbMGN2x6Sc+qoLDLlGW4ODJ+zsyb/IPnF9WbynA8Nypeh5kiJRklBTek9bjB9urVS8WzuRkyvZANPbkglQUbVVpww7AUdVFc6BjmoTaKix83qFFjRqPOTWekjtsIj+3Dxeu+02MxZt+M34OR9N52+OwYIR14jZ9TGnBjCEsRLLDWB71aMjScMwwrcZFnM1F6vdz4tQxmk3BRZNjIVCXp0oIbhqVYcI8MDv/75Zdfqu+CLA7BALUqBDV8F1xgtAy+OwImhiVMadrKmrnhfRNI8pm46VJ7w8W+ktRCmjBhksylzkDG0NuhJVutGg6JHST1ldzd/oDDyH8tuKHmhtoghqcYqjfoCgnm2UeMdW0I4Bnq1JKwQUMyxMV5zjCWoUFiQQObc1iKQIbsKL8HrgGbNm1SIO7VV18V/V1XjF5+ARXcHfF2r+paPjF1zGNfH0XbGl4Y19X4OZYAbujUMixFFpBrE+cI92KCnoelCekvca7Ydj0B3wTdGZYzZchPREh8KTELs9uVM3qIWYMbfpjc8ClSK9iryNjTGh6W8XvDYKGzMX9kC2i5BmlXLrJsVUCvprijNOCGG6NBhEfgwcWIz8L75oZOoKN149Jy36UFN2y/ULBCMQswcWJvPbIL72Z3Ru+6nWH7Q18R4N0ZGjB2j/FDVwiosYPH/H4mH6E04IbtFsjMLFmy5E+GiXOERQ+ZZUfWjIXK+BxkSbQMAoqXJf2bsXNTm0RpwQ1tyg2Ki61hMPOKc4T3z99lFWKCNkMtnqLunSwPNzjawtS4F+CGmh4+Gxk1DuphKL5euuw3tGlVG9/NPglbt5+lxkhgUY90+99zr0mdd2mkp/Q2NY2e829gbghumHHKRAsOZsIRHNPW/PYpKC9Y9LQoAxNIc43Mr2sseI45gxuyUu9JmxM6OBxcLwi4Vyxfiuq16iKt3XhM6lsPfVvcGbIyZruY5Ez0nXsIcwc3RtMA41oTSwE3jaSIHx1EDtZkYyNNfse+UmbCv9MAdO/TDyODjLN9BW3HhprP74pCb9HbDKh+p96Gx5s1uKFHSWNx8eWmU9SgmJJaifxF/Jg2y02HKa/FATcENiXpLF4acGPozZH/OenZctOlx8QFmZ4FmRwKrUvKLhmuXxbgxnDtM5fPw3rYOiwL3YmVFcPQPaiTAhX8AEx5fCwrG9P5OzgObACXl9uafN13A9yQKWAKcv7BQmVk0DiHCCK50NHWDA8a+kcZuynqbfgxE2iYGmUBbgy/xQ2MImmG3OgMUEdBz7woMTSZHjJV1BeYGvcK3DATjKxl/hEZGY2tW6ahaY3VePnt6hJeqSvP+aS6Z5NziBfIXCU7+XTAfYf8H+Ps378F3HANNaYDYz0whpHJVJNp5TfFmjWFFf0kOOI7ojfO+WVqmDu4eVcqgdMe+UeiFPKc8vlC/HLdE24HP0fHts0xeMhQFc4tbC7uvhSLV5adxZ4JQXCQ+jbGhiWCG8Nzct9dJg76F9//jMhzR8BUe7LNDFkVViT3VloO+qyPwFJJAa/hfmfGrEWAG1YopjeqJSxDb4IUa/46NywaR4ElP0wtKbj82AlqKLAzJjYtCmDdbXCT//fIZDE8wdRBxsvZloJsD2lT3qup1GZT91yW4AYxWUjqvgDpczpjT8w5LPx2gfKCyCpwgaTHWE96OLHCMlOQ1bgk/Vb6LJDO4cNgU9U0fVlW4Ia3QADGqpgEORRjsqgdU6wpPmXHbdqYNmd6tGEQULBtAVOq/w5ww9+kTXnvLDhIRofhN2oGCAQ4P2hnzhEDwGcGItPciwq//Z3g5rYtP0B28hls2/ecsGtzVXNGfsdcHBnO4rvgc/3F+Ul5Vs4TAaLLHJPv498OblhdmMwkPWuuK2ztQkE8nafAwEA1Z6jVyR/ip0SA/8b/FsYgWyK44UT66UQCtp68hqerxmGOrA3BF0MUi0XGkbZijSvOxfwA8T/rQhCRkI7Zj0vLBRPDksENH/m8JDt+fiwRwxyv4tfFP2KntLehronrOEtucG3ifKsoRVENY1tkBr45G4evO5WHY4H6NoZjzJ65Ibj57bffNFXcNQZuCALI/BBBFgZuaChOVAO44QfKuH9xR1mCG8O9UGtBgEOGgboJslOGwm5cfOiRUwNSFJgrS3CTsekSEsetR7lTo1lMVw2Ge1hXhffNdGuCSFZWpri378D+6J1XHwFLIuGw/c6WC/nfQ1mBG84VggRqFAgcOTgfKJQjO8I/1IEZqrzS4yWAoKiaFCwXuL8D3HCjJpPHTcqwybMyN5sZ8t65kRHUcI5QvEsxMhlBMjZ8D4WFsf52cJMk4mj7zqKdud34lWCTc57Pxeel98fnovPTo0dPVUCxSS3R5jgT4DyugxsTzA0BMPU2bMrL98+1j5ssv82d0puLzqBhXaHonqwOATPPK6wcAQ1uqeDmiW+OoW4FV0ztfTu0wuxWzkWGivm9cT2jzdiCgmvDg9KqYsr+HPRtFoBn2pguCGvp4ObDY3G4lJyDrzvcTp2nY8W11CBp4PzjesQ1ivvXgP4PYrldY7iJHd9peGeWlEWAGxqAYSkyMdQTFJYOTsNQiEv9AwuSGQYzQih25SZqLCxlADOPPWa8pso/EdwUvCduuPS62IqBCxO9MKr9CQzJKJgaZQluEl/bgDzxWDzmi6jTxOC74T1zg1386zI8EhKAxs2aoM7Xw1DeXbrtmhhlBW4IGDkPCBZM9TLjJkAmh8fQzlzoCYy5wJmqjcHHKMuwFNkXbkr5tWb5TUcxPXU5vG+CS94rWTR6mXyGwujhvxXc5Eo3vSQJD7h+b7RWDZ+RYm4+C+fR4iXLJQgViW8/y0ECZgrTZromzr+duWHpCW7GXDONDTqDXFPI0hyUpqyc56xtwxAtw/+FOU6WCG4SpInroK+OYIoAm/a1jK9NZCNoM2rG1q9fJ61mYpHR9nm8078u7g9sbHI9s3RwM2ZPtGqb8EID42w89wHajQV3uX8d2L0Tcc7l8MKYV/DqYEkMMDHMmrlhejHV19RGUDBZGLhh3JMGIk1N8aVhsP8Ss3oIAEyBG16btU3+DI8UF9HkO/5eMDdF3R6RMRctZi+RxWF4xdgoS3AT0/4bOD3RGM4vti7qdv/894xOP+Ht5BX4Nfccln+32GTmUVmBG84BFj2jHkfr4Nxi2JRzk2CSqaPGRlmCG8awCVR4/1oGwQ71RGxLQq+c84QhQmPjbwU3WSKeThkLeJ6QWzPtweW/74TYb3Hz8hT0e9JbMlxewciRI4w+178Z3PD9k+kjkGe2nJZB9o8iW7IV9K4pwDeVYWeJ4OaIZPoMX3gce19rZ7RWjTEbrjoQghe+2w+//TMkzD0U48a/atTUlgxuotNzMXhLJOZ2KIdaJrQzBY1y/mY8npo2F0nrv0HHLl1UU1Fj7LJZgxt6yRTEMWW3ME/BECYgwGEc2VT9BS0fcWmP+SeAG8Mz0JtlPJibHzMnCo6yAjc5oYmIe3gxPL55CHZNtPXnyr0Qg8RhK+G25FFMmj8Nq39eqUJvxsqRlxW4oVfaRT4mtuvQOhi+osCSAJyaFy76hkyL/NcoK3DDTYehtKlTp94hyDX1DGQ7OCeY8sp+bFu2bFEhCWOb1d8KblLflLigsDcuX2t9HSImfkUaWbtg++4+GPz4ABUy5HspOP7N4IagluCGDF5BUb0pQzPsQtE62UFmE3He0QkwltRgieDms61Xceh6PH4Y3kzzXJy++ToikzLxqF84etzfW2k/2em64LBkcLP/VrrUt4nHYhEG20s/OC1j261sLAoFXnO/igck/b53335Gi4iaNbjRYoh/2jElBTfMXOBGyXTvuzmoUeCGzX5bFG7lH4wPc2NkdgA9+eIOU+0XsldfRMrb2+BxXHsriYxvTyBTYtpue4ar26BXycwqppsXHBSTUrynlanIfz51A6zJQB0XQ52GwUwpxsnJeGktAUDQzU2C2XncJKj5Ykl6goWCg1oFMmilab/AazPLJf8g+GfmCusLaR1kmli3g5scx6BBg5Swz1iVYoY1KfRjPSBTo7S9pSguZyE5irb/MpKlqrUr58MzWh9NwlhSvsHtPTm+r9LlGMoVsLBY/kH9F/VSllyhmNoxZooyCSH/4FrAf2MIQOsgaCewYYifw9AqhsL7goPfF4swco6Z0zD0liLoL1jUsvP/HcDjbatjVFuNFbLlwe+bvhev92mIRxp5qNIStAfDxwUdNoaxOPfNuUIx5wGLiLL4bP4x82K2NL7Nw5v1jWc8GZsfU09nwsfJBmNr2iimkM4ss4WNrctM5iDYzl+E9W7NOSuh4//XBexuXdWMr1NScENvh6JIU2GNkpqEITd+VFxsCuqKGL5iKIV1HAwC2uL8DjcOev5z5sz5s+uwlbSlb7wmGSnhcbj8fGWwK7hqGWxiKEZOzmm+OB7Rmcm48VQluNg5qclMsSP1JIz/G6YZNylmJXHTLQm4YeiSDA3741AwTiEbbURxGxdwPgs1KPkbSBq7dXqs3CQIFLjxkzZlCJQiTdqUGzbBIwe1DdSCkS0g8ClK6G3s9+glsz0B213kH9SX0QMncNL6KVL8zJDvzJkzVaiWRQypazOmv+DcYRiirNov0P5MWTf8juHZPN2T0KDyGzh28WWkZd7ZIsOYjcp53UKtCu/i8IW3kJVTQb1DOg2sGl1wYaROhy0EqEWy1MaZBDAE3gUrbbN3EkNTxWlsyWswbM9K6mTIOYeokWCtpIKDQnWWUCjO9Yuz7pTVsZwvLNxJsJ+/YnOOrRMm70jDk7Wz0MRP2yadYe0s5yRjdKNc1PSSxq9SIZprO+dcwWrQBDdsrcL1w1wbZ/I747pZkCV9/2gcWvjYo09VbXXO+G7fPBiDngHO6FTRSa3NXBsYkSl4bUpNuBdw3c5fRfpuzQ8d3BSwZEnBDUMhBAqFdS8v6UszZJQU3LC5yTIUwU1aa8G6/PfAjb3gZptrlSeN0Xrgeko0Ntw4Cpu8wkttqw1Z6j+MrvsAjidcxa6w07CRjs4EC7w/A0DI/7s8hwwXMziKO0hlMozEhcSgweLvUHBOO/HvCmuyavg9wzmGon20LRd9/iEYKzj4XlkZ1hgtreUZ6PnROyp4bd4H74EfutbBZ+SzGs4x1PAxZmsCMy4uhaW5l4a5od3ILFLsnH9+tmhWEZPH1cLTLx1FclKypkfr0qEaRg4LUOdkpKeqd8l5ZMgkzH8R2o3MHTPKtNTQKngD5tAVnGwY313B92qwi7F5asrQBec25wW/E2PfiqG/maneU5pe5t900OOPP64cnfxzsUrNhmjSazj2L/1YUpijNN1ZzQatUK/TQOxZ9AHiExLVWkab5XfUDBfi+2BqPeciM63KepRFV3CyvqzzVXD/svsjFJW/E3pRz8dz6A9n/9E93dT+xetw7WO1bDL5d3vo4OYugRtOCq0NQov7Eg1MgTHPnh8WF6OSsAmm7iNbTc08yVzR1kOE1ynJOcW1gzkfz8XW1CbN59LK2vBYY/PBoFsraCP+PQFCYYXKSgNu+Ht8roKbpJUV546t/D2zHLXF6nmONE9BXu7/yj6Yei7+Lud+SQp18lxzADdlOWcKW1P4b1xTtBRN/ad9k8bnonwDMgczs7JhJXNGy+Czy0xEZnbOn+eU1VzUcj/5jykLcGNq/+KXW9zQTsFzippr/Ibv5v5lsJUObu4SuCnuBNWP1y3wT7FAacHNP+U5inMf5gBuivM8+rH/HguUBbixROvp4EYHN5Y4r/VnKoYF/s3ghhsFY/760C1gLhbQwY22N6WDGx3caJsp+lEWawEd3OjgxmIntwU+mA5utL1UHdzo4EbbTNGPslgL6OBGBzcWO7kt8MF0cKPtpergRgc32maKfpTFWkAHNzq4sdjJbYEPpoMbbS9VBzc6uNE2U/SjLNYCOrjRwY3FTm4LfDAd3Gh7qTq40cGNtpmiH2WxFtDBjQ5uLHZyW+CD6eBG20vVwY0ObrTNFP0oi7WADm50cGOxk9sCH0wHN9peqg5udHCjbaboR1msBXRwo4Mbi53cFvhgOrjR9lJ1cKODG20zRT/KYi2ggxsd3Fjs5LbAB9PBjbaXqoMbHdxomyn6URZrAR3c6ODGYie3BT6YDm60vVQd3OjgRttM0Y+yWAvo4EYHNxY7uS3wwXRwo+2l6uBGBzfaZop+lMVaQAc3Orix2MltgQ+mgxttL1UHNybAzfjx4zFz5kxtVtSP0i1gxhbQwY0Obsx4+v7rbl0HN9peuQ5udHCjbaboR1msBXRwo4Mbi53cFvhgOrjR9lJ1cKODG20zRT/KYi2ggxsd3Fjs5LbAB9PBjbaXqoMbHdxomyn6URZrAR3c6ODGYie3BT6YDm60vVQd3OjgRttM0Y+yWAvo4EYHNxY7uS3wwXRwo+2l6uDGBLgZN24cZs2apc2K+lG6BczYAgZw07lzZ2zbts2Mn0T7rZ84cQLNmzcHN4pvvvlG+4n6kboF/mYLDB8+HN9//z22bt2KLl26/M1388/9eR3cFHg3O3fuRKdOnTB69GjMnj37n/vm9DvTLXCXLHDt2jVUq1YNbdq0wf79++/SVf/Zlzl27BhatGiBIUOG4Mcff/xn36x+d7oF8llg8ODBWLJkCTZt2oTu3bvrtjFhAR3cFDBMfHw8NmzYgIYNG6JRo0b6xNEtYPEWSE1NxcqVK1GxYkWQvfk3jKSkJKxbtw61atVSIEcfugXMxQJ0QC5fvoyePXvC19fXXG77nt+nDm7uucn1H9QtoFtAt4BuAd0CugXK0gI6uClL6+rX1i2gW0C3gG4B3QK6Be65BXRwc89Nrv+gbgHdAroFdAvoFtAtUJYW0MFNWVpXv7ZuAd0CugV0C+gW0C1wzy2gg5t7bnL9B3UL6BbQLaBbQLeAboGytIAObsrSuvq1dQvoFtAtoFtAt4BugXtugf8HyeuDoepkWgQAAAAASUVORK5CYII=;" vertex="1" parent="1">
          <mxGeometry x="600" y="830" width="567" height="306" as="geometry" />
        </mxCell>
        <mxCell id="CHFiDNSgDXIeCjRcxI2d-50" style="edgeStyle=orthogonalEdgeStyle;rounded=0;orthogonalLoop=1;jettySize=auto;html=1;" edge="1" parent="1" source="CHFiDNSgDXIeCjRcxI2d-41" target="4">
          <mxGeometry relative="1" as="geometry">
            <mxPoint x="240" y="30" as="targetPoint" />
            <Array as="points">
              <mxPoint x="-620" y="-40" />
              <mxPoint x="230" y="-40" />
            </Array>
          </mxGeometry>
        </mxCell>
        <mxCell id="CHFiDNSgDXIeCjRcxI2d-41" value="Fracture density" style="swimlane;fontStyle=0;childLayout=stackLayout;horizontal=1;startSize=30;horizontalStack=0;resizeParent=1;resizeParentMax=0;resizeLast=0;collapsible=1;marginBottom=0;whiteSpace=wrap;html=1;" vertex="1" parent="1">
          <mxGeometry x="-690" y="20" width="140" height="120" as="geometry" />
        </mxCell>
        <mxCell id="CHFiDNSgDXIeCjRcxI2d-42" value="Item 1" style="text;strokeColor=none;fillColor=none;align=left;verticalAlign=middle;spacingLeft=4;spacingRight=4;overflow=hidden;points=[[0,0.5],[1,0.5]];portConstraint=eastwest;rotatable=0;whiteSpace=wrap;html=1;" vertex="1" parent="CHFiDNSgDXIeCjRcxI2d-41">
          <mxGeometry y="30" width="140" height="30" as="geometry" />
        </mxCell>
        <mxCell id="CHFiDNSgDXIeCjRcxI2d-43" value="Item 2" style="text;strokeColor=none;fillColor=none;align=left;verticalAlign=middle;spacingLeft=4;spacingRight=4;overflow=hidden;points=[[0,0.5],[1,0.5]];portConstraint=eastwest;rotatable=0;whiteSpace=wrap;html=1;" vertex="1" parent="CHFiDNSgDXIeCjRcxI2d-41">
          <mxGeometry y="60" width="140" height="30" as="geometry" />
        </mxCell>
        <mxCell id="CHFiDNSgDXIeCjRcxI2d-44" value="Item 3" style="text;strokeColor=none;fillColor=none;align=left;verticalAlign=middle;spacingLeft=4;spacingRight=4;overflow=hidden;points=[[0,0.5],[1,0.5]];portConstraint=eastwest;rotatable=0;whiteSpace=wrap;html=1;" vertex="1" parent="CHFiDNSgDXIeCjRcxI2d-41">
          <mxGeometry y="90" width="140" height="30" as="geometry" />
        </mxCell>
        <mxCell id="CHFiDNSgDXIeCjRcxI2d-49" style="edgeStyle=orthogonalEdgeStyle;rounded=0;orthogonalLoop=1;jettySize=auto;html=1;" edge="1" parent="1" source="CHFiDNSgDXIeCjRcxI2d-45" target="4">
          <mxGeometry relative="1" as="geometry">
            <Array as="points">
              <mxPoint x="-770" y="-40" />
              <mxPoint x="230" y="-40" />
            </Array>
          </mxGeometry>
        </mxCell>
        <mxCell id="CHFiDNSgDXIeCjRcxI2d-45" value="Fracture orientation" style="swimlane;fontStyle=0;childLayout=stackLayout;horizontal=1;startSize=30;horizontalStack=0;resizeParent=1;resizeParentMax=0;resizeLast=0;collapsible=1;marginBottom=0;whiteSpace=wrap;html=1;" vertex="1" parent="1">
          <mxGeometry x="-850" y="20" width="140" height="120" as="geometry" />
        </mxCell>
        <mxCell id="CHFiDNSgDXIeCjRcxI2d-46" value="Item 1" style="text;strokeColor=none;fillColor=none;align=left;verticalAlign=middle;spacingLeft=4;spacingRight=4;overflow=hidden;points=[[0,0.5],[1,0.5]];portConstraint=eastwest;rotatable=0;whiteSpace=wrap;html=1;" vertex="1" parent="CHFiDNSgDXIeCjRcxI2d-45">
          <mxGeometry y="30" width="140" height="30" as="geometry" />
        </mxCell>
        <mxCell id="CHFiDNSgDXIeCjRcxI2d-47" value="Item 2" style="text;strokeColor=none;fillColor=none;align=left;verticalAlign=middle;spacingLeft=4;spacingRight=4;overflow=hidden;points=[[0,0.5],[1,0.5]];portConstraint=eastwest;rotatable=0;whiteSpace=wrap;html=1;" vertex="1" parent="CHFiDNSgDXIeCjRcxI2d-45">
          <mxGeometry y="60" width="140" height="30" as="geometry" />
        </mxCell>
        <mxCell id="CHFiDNSgDXIeCjRcxI2d-48" value="Item 3" style="text;strokeColor=none;fillColor=none;align=left;verticalAlign=middle;spacingLeft=4;spacingRight=4;overflow=hidden;points=[[0,0.5],[1,0.5]];portConstraint=eastwest;rotatable=0;whiteSpace=wrap;html=1;" vertex="1" parent="CHFiDNSgDXIeCjRcxI2d-45">
          <mxGeometry y="90" width="140" height="30" as="geometry" />
        </mxCell>
        <mxCell id="CHFiDNSgDXIeCjRcxI2d-58" value="Text" style="text;html=1;align=center;verticalAlign=middle;whiteSpace=wrap;rounded=0;" vertex="1" parent="1">
          <mxGeometry x="-800" y="155" width="60" height="30" as="geometry" />
        </mxCell>
        <mxCell id="CHFiDNSgDXIeCjRcxI2d-67" style="edgeStyle=orthogonalEdgeStyle;rounded=0;orthogonalLoop=1;jettySize=auto;html=1;strokeColor=default;curved=0;endArrow=oval;endFill=1;" edge="1" parent="1" source="CHFiDNSgDXIeCjRcxI2d-60">
          <mxGeometry relative="1" as="geometry">
            <mxPoint x="100" y="980" as="targetPoint" />
          </mxGeometry>
        </mxCell>
        <mxCell id="CHFiDNSgDXIeCjRcxI2d-60" value="feeddbacks" style="swimlane;fontStyle=0;childLayout=stackLayout;horizontal=1;startSize=30;horizontalStack=0;resizeParent=1;resizeParentMax=0;resizeLast=0;collapsible=1;marginBottom=0;whiteSpace=wrap;html=1;" vertex="1" parent="1">
          <mxGeometry x="30" y="1016" width="140" height="180" as="geometry" />
        </mxCell>
        <mxCell id="CHFiDNSgDXIeCjRcxI2d-61" value="format données" style="text;strokeColor=none;fillColor=none;align=left;verticalAlign=middle;spacingLeft=4;spacingRight=4;overflow=hidden;points=[[0,0.5],[1,0.5]];portConstraint=eastwest;rotatable=0;whiteSpace=wrap;html=1;" vertex="1" parent="CHFiDNSgDXIeCjRcxI2d-60">
          <mxGeometry y="30" width="140" height="30" as="geometry" />
        </mxCell>
        <mxCell id="CHFiDNSgDXIeCjRcxI2d-62" value="résolution" style="text;strokeColor=none;fillColor=none;align=left;verticalAlign=middle;spacingLeft=4;spacingRight=4;overflow=hidden;points=[[0,0.5],[1,0.5]];portConstraint=eastwest;rotatable=0;whiteSpace=wrap;html=1;" vertex="1" parent="CHFiDNSgDXIeCjRcxI2d-60">
          <mxGeometry y="60" width="140" height="30" as="geometry" />
        </mxCell>
        <mxCell id="CHFiDNSgDXIeCjRcxI2d-63" value="incertitude" style="text;strokeColor=none;fillColor=none;align=left;verticalAlign=middle;spacingLeft=4;spacingRight=4;overflow=hidden;points=[[0,0.5],[1,0.5]];portConstraint=eastwest;rotatable=0;whiteSpace=wrap;html=1;" vertex="1" parent="CHFiDNSgDXIeCjRcxI2d-60">
          <mxGeometry y="90" width="140" height="30" as="geometry" />
        </mxCell>
        <mxCell id="CHFiDNSgDXIeCjRcxI2d-64" value="volumétrie" style="text;strokeColor=none;fillColor=none;align=left;verticalAlign=middle;spacingLeft=4;spacingRight=4;overflow=hidden;points=[[0,0.5],[1,0.5]];portConstraint=eastwest;rotatable=0;whiteSpace=wrap;html=1;" vertex="1" parent="CHFiDNSgDXIeCjRcxI2d-60">
          <mxGeometry y="120" width="140" height="30" as="geometry" />
        </mxCell>
        <mxCell id="CHFiDNSgDXIeCjRcxI2d-65" value="XZY extent" style="text;strokeColor=none;fillColor=none;align=left;verticalAlign=middle;spacingLeft=4;spacingRight=4;overflow=hidden;points=[[0,0.5],[1,0.5]];portConstraint=eastwest;rotatable=0;whiteSpace=wrap;html=1;" vertex="1" parent="CHFiDNSgDXIeCjRcxI2d-60">
          <mxGeometry y="150" width="140" height="30" as="geometry" />
        </mxCell>
        <mxCell id="CHFiDNSgDXIeCjRcxI2d-69" value="" style="endArrow=none;dashed=1;html=1;rounded=0;strokeWidth=7;" edge="1" parent="1">
          <mxGeometry width="50" height="50" relative="1" as="geometry">
            <mxPoint x="-930" y="-90" as="sourcePoint" />
            <mxPoint x="1520" y="-90" as="targetPoint" />
          </mxGeometry>
        </mxCell>
        <mxCell id="CHFiDNSgDXIeCjRcxI2d-70" value="" style="endArrow=none;dashed=1;html=1;rounded=0;strokeWidth=7;" edge="1" parent="1">
          <mxGeometry width="50" height="50" relative="1" as="geometry">
            <mxPoint x="-930" y="650" as="sourcePoint" />
            <mxPoint x="1520" y="650" as="targetPoint" />
          </mxGeometry>
        </mxCell>
        <mxCell id="CHFiDNSgDXIeCjRcxI2d-71" value="Levé de doute" style="text;whiteSpace=wrap;html=1;rotation=-90;fontSize=41;" vertex="1" parent="1">
          <mxGeometry x="-1190" y="790" width="530" height="40" as="geometry" />
        </mxCell>
        <mxCell id="CHFiDNSgDXIeCjRcxI2d-72" value="" style="endArrow=none;dashed=1;html=1;rounded=0;strokeWidth=7;" edge="1" parent="1">
          <mxGeometry width="50" height="50" relative="1" as="geometry">
            <mxPoint x="-916" y="1540" as="sourcePoint" />
            <mxPoint x="1534" y="1540" as="targetPoint" />
          </mxGeometry>
        </mxCell>
        <mxCell id="CHFiDNSgDXIeCjRcxI2d-73" value="Implémentation" style="text;whiteSpace=wrap;html=1;rotation=-90;fontSize=41;" vertex="1" parent="1">
          <mxGeometry x="-1190" y="1630" width="530" height="40" as="geometry" />
        </mxCell>
        <mxCell id="CHFiDNSgDXIeCjRcxI2d-74" value="" style="rounded=0;whiteSpace=wrap;html=1;fillColor=#647687;fontColor=#ffffff;strokeColor=none;sketch=1;curveFitting=1;jiggle=2;" vertex="1" parent="1">
          <mxGeometry x="720" y="830" width="440" height="310" as="geometry" />
        </mxCell>
        <mxCell id="CHFiDNSgDXIeCjRcxI2d-75" value="" style="shape=image;verticalLabelPosition=bottom;labelBackgroundColor=default;verticalAlign=top;aspect=fixed;imageAspect=0;image=data:image/png,iVBORw0KGgoAAAANSUhEUgAAAjcAAAEyCAYAAAAGDfGAAAAgAElEQVR4XuzdBZhcRdYG4EqCQ7DgGnRxWdzd3YO72wKLLQR3FltscXf34O7uAYK7BYcQCPzzFnvzTyaZpGemp6e759TDPEOmb99b9yv7zndOneryZ0NJUQKBQCAQCAQCgUAgEKgTBLoEuamTlozXCAQCgUAgEAgEAoGMQJCb6AiBQCAQCAQCgUAgUFcIBLmpq+aMlwkEAoFAIBAIBAKBIDfRBwKBQCAQCAQCgUCgrhAIclNXzRkvEwgEAoFAIBAIBAJBbqIPBAKBQCAQCAQCgUBdIRDkpq6aM14mEAgEAoFAIBAIBILcRB8IBAKBQCAQCAQCgbpCIMhNXTVnvEwgEAgEAoFAIBAItIjcPPDAA+nLL79Mw0tqPNtss6VZZpml6pB9//330+uvv56+//77NO6446YpppgiTTfddGnUUUdNAwYMSH369Em//fZbmmGGGdJcc83VbP2/+uqrdP/996eBAwempZdeOk066aRDXPvmm2+mN954I/3yyy9pggkmSFNNNVXq2bNnGmmkkaoOk6hQIBAIBAKBQCBQjwi0iNzMO++86dlnnx0uDnvuuWc64YQTqgYrZGz//fdPN954Y/r6668H12uMMcZIa6+9drrgggvSoEGD0gYbbJBuuummTG68Y/fu3Yf5Dt7vpJNOSpNMMkl6+umnM0lSkJp999033XPPPenHH38c/N1xxhkn7bDDDumYY46pGkyiIoFAIBAIBAKBQD0j0CJys9RSSyXqDcVihRVWyIpH40LRcc3iiy9eFZh99tlnmcA8/vjjmYysv/76abLJJkvvvvtuuuaaa9K6666bzjrrrFzXt956Ky2wwALpm2++Sf/973/T9ttvP9Q7vPfee2nuuedO3377bbriiitSr1698jWvvfZaWm211dI777yTZpxxxrTWWmslpMbfb7nllkyuEJ8ogUAgEAgEAoFAIND+CLSK3Bx77LFpn332af/atfEJhxxySDr00EPTfPPNl5UbxKYohXttookmGvw3JITCMtNMM6Unn3wyjT322EPUYMcdd8zEZ9VVV80qT9euXbOLbtNNN02XXXZZWnPNNdNFF100xPc++eSTNProo6fxxhuvjW8TXw8EAoFAIBAIBAKBUhBoFbk5/PDD04EHHjjc+1v0u3TpUkod2uUarqa///3v6aWXXkqXXHJJ2mSTTUb4HISHMvPxxx8Ppd68+OKLacEFF8xk5pFHHklcdMrnn3+eZp555qz4PProo2nhhRce4XPigkAgEAgEAoFAIBBoPwRaRW4OO+yw1Lt37+HW6osvvkirrLJKdgdxzQjmFYtDEbnwwgvTPPPMk2Nd+vbtm11EDz/8cBL0O9ZYY6Vlllkmbb311sMNTO7Xr1+69dZb07333pvvLTBYILNnIjJIyLTTTps++uijwS6oUmA87bTT0q677prdS2Jv1EfZfPPN08UXX5yoN2ecccbgW6mzwGTv8txzz2VyFCUQCAQCgUAgEAgEOg6BdiM3P/30U447mXDCCdPpp5+ett1229S/f//8pvfdd1+OzeGymXXWWXMMCxLEfSPo144m7qLbb789k6Cm5fzzz0/77bdf3rk12mij5R1Lf/zxR76f3VpPPfVU3p20+uqrZ2K17LLL5nuNPPLII0RavREUMTjicbbbbrus/qjH+OOPn55//vkh3FuuX2ihhdLLL7+ctthiixygHCUQCAQCgUAgEAgEOg6BVpEbCoxdQ8MrFv2pp546E4pRRhklb40W0+JvSyyxROrRo0dyzfHHH5/JwWKLLZbsYOIScu+rr746By5TZhoXsS2Fi2mvvfbKO5Gmn376fIkA3t9//z3NMccc+d933XVXDvS1bRvBOeigg/JzRlTEzSAqiBdig5ghVKeeemraZZddhvr6eeedl7bZZpv89w033DC/5+yzzz6ix8TngUAgEAgEAoFAINAOCLSK3CAKlJemRV4XwbUUGMQF6bBjybbqBx98sGSXzYcffpjJwc8//5xeffXVvD1b+fTTT/M9xLkgKoKFR1SQIYSEOqSss846acstt8zuq+YKIuYdH3vssRxbdPLJJ2cXl3+POeaYw/zacccdlw444IBMrpC5jTfeOLvWFllkkRFVMT4PBAKBQCAQCAQCgTIi0Cpy09zz7S4SC8MV1Zjc7LbbbumUU05pUbWLnDp2JXEvKeeee25WUcS4vPDCC4PjYUZ0Y7EzVJcbbrghu7wU5ANpQciGVe64446s+oil6datW7ruuuvSGmusMdxHyXHDBccV5ntcY+J3jjzyyEz4ogQCgUAgEAgEAoFA+yPQKnIjd4ykd43z3Ih5kfl3pZVWysG9jcnN9ddfn3O/NFeoO9xPdhtJhicL8Ntvv52T4V1++eXZ1aNQQriHEJyzzz67xeiIo/H9f//731lhod6oG6WlaRGQvOKKK2bXlq3fCEupBfFCcpAxZeedd04ClaMEAoFAIBAIBAKBQPsj0CpyU0qem8bkhgqCKAyLQFj0xd1wRVF+ZPwVuIsgIDdXXnllJlIKVxESJH/NwQcf3Gp0rrrqqhy3g+BQZJC1YZWtttoqBwhL6Ce/TUuLnDn/+te/8tcEORfbx1t6n7g+EAgEAoFAIBAIBEpHoFXkppSt4I3JzW233ZZWXnnloWpVuJnE5FBTJMErkurJFyOzcGNywy108803p9133z27lNpSqDHqJR6Hy2pYZbPNNss5cihGhQrTkmc6q0qMkLgh9VXvKIFAIBAIBAKBQCDQvgh0GLlBfhAYu5Eau56K11100UWzm6oxuXGEgcBdxyQI7pUhuLXFFu9zzjknITB2R7UHuXHPJZdcMgdTl5L4sLXvEt8LBAKBQCAQCAQCgf9HoMPIjXOYBAYrYmGK7dz+zR1lO7czoBqTG/lxJPhDamwVt/OpNUV80Pzzz5+T9A1vW3tblRuJDCk38u8IZqZMRQkEAoFAIBAIBAKB9kWgw8iNBHyOLZC0j0tKzhrFbiYKTRHjIj7GgZeKGBmHXdpBJS5Hkj07qYqA4O+++y798MMPOW7Hdm7xLhQguW3s4HIcBKKB0Jx44on5bwjOlFNOOUyUSyE3MiAfddRRmWghMuqFPH3wwQc50aD6I2rD20bevk0cdw8EAoFAIBAIBDoXAi0iN077dkxCKQG93E49e/bMO58ckzCsvDJid4rAYCRFQLFzm5ADGYsF4V566aV523ZR7KzaaKON0v3335//RIFx0KWdW4gKYuPkcsc6IE/K5JNPnnPlIDevvPJKzmxsZxdyVBCnYTW753KZDS/zsMzHxbvJheOdxdrIZEyB8m+5duLMqc41sOJtA4FAIBAIBDoOgRaRm+WXXz7HjyAkxS6g5qqO3DjrCRmhtAxrtxQlRgyN7dm2fssnY8u4vDB9+vRJe++9d95JJU9O4yK5n6zATvpWHzllqDdIDmXHuVeUGy4txOqZZ57JSorCFSYBoZgbp4UPr9gthZhI+tfcbinkDQG7++67M7mSYFBxDMQKK6yQd1oVSQg7rpnjyYFAIBAIBAKBQOdBoEXkRgwJhcSZUX6GV+SJ4QJCPLh/hpfETvZg7ij5cSaeeOJ8W//29+E9y72RCSTJGVOUH7+bluL+lBv3c10phcsMSXN4JnfTiIqzs6g1SBplqLlsxiO6T3weCAQCgUAgEAgEAq1HoEXkpvWPiW8GAoFAIBAIBAKBQCBQGQSC3FQG53hKIBAIBAKBQCAQCFQIgSA3FQI6HhMIBAKBQCAQCAQClUEgyE1lcI6nBAKBQCAQCAQCgUCFEAhyUyGg4zGBQCAQCAQCgUAgUBkEgtxUBud4SiAQCAQCgUAgEAhUCIEgNxUCOh4TCAQCgUAgEAgEApVBIMhNZXCOpwQCgUAgEAgEAoFAhRAIclMhoOMxgUAgEAgEAoFAIFAZBILcVAbneEogEAgEAoFAIBAIVAiBmiU3TgD/+OOP85lS008/fYvh+vXXX/O5V45XGGOMMdJEE02Uf0cJBAKBQCAQCAQCgdpGoGbJjcMqN91000xs3nzzzXzid6nFIZgO3nSgpjLyyCOnv//972mllVbKB4L6d5RAIBAIBAKBQCAQqE0Eap7cTDvttKlfv34lkZvffvst7bLLLunss89O4403Xj5B3OGWDz/8cD7Re6SRRkoOB/VZlEAgEAgEAoFAIBCoTQRqltxcdtllaZNNNkkzzDBDeuONN0oiN9SabbbZJn/nlltuSX/7299yq913331pmWWWySd5v/POO0FuarMvR60DgUAgEAgEAoGMQKchN4MGDUrLLbdcuv/++9Mpp5ySdtttt8Fd4IEHHkhLLbVUJjVvv/12kJsYHIFAIBAIBAKBQA0j0GnIjTaadNJJcxAxF5QYm6Lcc889mfgEuanhnhxVDwQCgUAgEAgE/ofAUOTmiSeeSDfffHOabLLJ0vbbbz9UcO1dd92VHnzwwbT44ounFVZYYSggzzjjjPTRRx+ltdZaK80333xDfP7qq6+me++9N3366aepR48e+fMlllhiqHuIjTnttNPSt99+m/bee+801lhjpTvvvDM99NBDaY011kjzzz9/Gp5b6vbbb0+PPPJIrvuee+6Z+vTpkx5//PF05plnpoEDB6YNN9wwTT311GnCCSfMn5ei3Pz555/psccey3X4/vvv01RTTZUWWmihNNdccw1R/2+++SadeuqpyW6srbfeOokJalw++eSTdPrpp+f332OPPYZyp4n/Ud8ZZ5wxbb755tFRA4FAIBAIBAKBQKCFCAxFbu6444608sor59vYhSQ+pShcO9w3FmC/77777tStW7fBn7/77rtpuummS4iAaxZddNH8GTKDRFx99dXpjz/+GKKKCJLF3veK4hq7oNzv0UcfTVdccUUmO8q///3vtNdeezVLbjzXPX/55Ze07777psMOOyy/D1LVtCAYX331VSZCiy22WLPKzXPPPZeJCGLTuHj3rbbaKp1wwgmpe/fu+aMffvghzTnnnLnuJ598ctp9992H+A6CtdNOO+W/9e3bd3DcT3ERUnjjjTemf/zjH+mkk05qYXPG5YFAIBAIBAKBQCAwFLkZMGBAmn322fMOJGRkvfXWG4ySeBSqSf/+/bPqYSs1BaMo1113Xd6BNM8886Snnnoqde3aNclHY4s15WSWWWZJ//znP7NLyP2PPfbY9PTTT+e/33bbbalnz56D77XAAgukF198Ma266qrJfeedd958nYBgRGRYyo1gYO4lv/fZZ598f+W9995LH374Yb4X1cVuKe8x2mijZXJRBBQPyy31wgsvZLJkF9WKK66Ydt555zTllFNmFefQQw9Nn3/+eVaTrrzyynw/hdqEhMEOho1LQV78zZZ06lhRECOKzZdffpmJ1MILLxw9NBAIBAKBQCAQCARaiMAwY2522GGHdNZZZ2WFxCJdlAsuuCBtt912aZFFFsmuKQRjo402Gvw5dYNasf/++6ejjjoq/734G/eN2BZqSVGQJLuUEAg5ay6++OLBn3kGAqFQfY4++uicsK8oBbmh8Lz11lvZ3YTYIAVbbLFFOv/884dw+fhczI1nUoMaEweqzrLLLjuUcoPoqZ96bLzxxumSSy4Z4p4IHOLDfUZZQnwUbiWEDlFxzTjjjJP/Lt5nttlmyyoVF93yyy+frr/++sHvJNh56aWXzoQL6SvUoBa2aVweCAQCgUAgEAh0agSGSW6uueaatP7662cFpkh0ByWqA5WD4oDU9OrVK7uMFK4kis9rr72WdyQtueSSWdWYddZZ09dffz2UClSgXjzLNuznn39+sHpTkBtkQABwY2LjuwW5mXnmmfMzEQvxPquttlpyz1FHHXWIhhULg1T4jWQhLUVpjtwUZEPdkI1hZUJGAE888cRM+NyXekOtUi/vL4apiD269tprs5qDAIprgi01bIIJJshVoQQdcsghORePuJ0ogUAgEAgEAoFAINByBIZJbhxrgKiIW3nllVcyKbBQcwtRI8TaiMURc+Jziz8XEnfTFFNMkV566aWsVhS7kLiwqDOClJsWAbZzzz13dvtY/NdZZ518SUFuxM0cc8wxQ32vIDcUIXEvtnYjY4KDBSA3La0hN9QiGYsRIe88rCzIxTtKBgiDInZos802y0qPeKIixkaAMfWL0nTOOedkt9lNN92UVl999UwOKTmI1q233ppWWWWVlrdmfCMQCAQCgUAgEAgEms9zY6G1oF911VVZxRHkSrk5+OCDs7rAjeQIBIsxVwo1Z8cdd8wxJP5fOffcc9O2226biRLC01wRgOtzwbZcYo3JTRFA3PS7BblxHtTPP/+cP6as2CnVOAi6+F5ryI3dSlxl4nyQkWGVDz74IO+IEmwt8BhRa/zuYpAoSeJpXIcIIjeUG7E63HxcgHaYIY9jjz12JkmN3XfRTwOBQCAQCAQCgUCgdASazXNjB5DgXz/HH3/8YLdPQWaoEtSJgw46KLtTxKRcfvnl6YYbbkhrrrlmrgFCYPHmWkJehqV82Fk1xxxzZAVIoC8y1JjcHHfccTlAtzly4+8CfSkftqnboo6UNXVjtYbcFOoLZUh242EVu6KQKs+nTiFqyuuvv57fe/LJJ88BzuJ2bHsvyIygYWSH0iX+RsZkuDV29ZXejHFlIBAIBAKBQCAQCBQINEtuBMIuuOCCeUFGGsTOUEgs2gJdxYqIK7GLiSuIWlK4sZywrViwuVzGH3/8rGrILdO02MnEnSTQVyBukTuncEuNiNxMPPHEeecVt5bYFvc54IAD0hFHHDHEo1pDbg488MB05JFH5t1Z4m8ab3svbs6FJM7HO3tHZEZB2rjpXn755azUUG+42Bq7nHzPLjEYIHaehTQ6ViJKIBAIBAKBQCAQCLQOgWbJDaKCdNjhQ5GxjVrMCBdKUagkFu8LL7wwqw5rr7123rZdFN+lylApKB8UkKZFELBgYPE47oUIKaWSGzuL5ItRirOjJO9DrBonGWwNuSm2iIunobx4l6alUHfEyIifaUyAuPDk2bFzy66oJ598Mte1eMci5w03nu96HtJYEKTWNWl8KxAIBAKBQCAQ6NwIDPf4BTE0iIsgXzEusgSLxSmKeBguI7EjYkiQiy233HIIRG0LFxDMBSMepjis0kUWetu3xZsgAb179x783VLJTdODM9UVkeAqktBvkkkmyfdsDbmxfbxIAMj1heQ1PjFcHJKYGvE2FJgi+WHxEtQeW8xdAzvkD9EpivcXEE1xev/997MS5roogUAgEAgEAoFAINB6BIZLbqgJFBlKyDTTTDNEzhaPFEfDdeW4BIGwtnI3TupXkAr3kH8GMbB1WlwKF44DLLmR5ISh+Iw++uhtJjcCfBEjhKlx/EpryI3KCO6lythBxjUn47B8OYga5UVpnDCwcVN4JvXLjjDHMQxrF5Qt87DhxrL92zbwKIFAIBAIBAKBQCDQegSGS264lSguXFR2MRWLefG433//PasOAmmHt11anhtxMHZeSXhXFHEqXFXUHeSocRGMK9BWsLKg5aaFAsJNJkeMeJvGwcpy7xTJBQtFyHML1cURE5SYohRJ9/xbXQu3UfE5EmdLuEBlak5RqEMCrgUJDytY2nV2mom38a5ib5q+p+3g++23X76leKaZZpqp9a0Z3wwEAoFAIBAIBAKB5reCw4aawN3ibChnSQ0riR3V4Y033sjxKI5MGF6xs4hiQ61BSmQJFhA8rMLNJbeOew4r1kUQMbePfDoIRNMiZw6igtD4nLqE9FBQuI8ax7VQZSgxEv9tsMEGQyUAbExyKDkyFzsqQv3F4wyviCOSyI/yxUXVtBTPFqTt2c2RpOirgUAgEAgEAoFAIFAaAsNVbkq7RVwVCAQCgUAgEAgEAoFA9SAQ5KZ62iJqEggEAoFAIBAIBAJlQCDITRlAjFsEAoFAIBAIBAKBQPUgEOSmetoiahIIBAKBQCAQCAQCZUAgyE0ZQIxbBAKBQCAQCAQCgUD1IBDkpnraImoSCAQCgUAgEAgEAmVAIMhNGUCMWwQCgUAgEAgEAoFA9SAQ5KZ62iJqEggEAoFAIBAIBAJlQCDITRlAjFsEAoFAIBAIBAKBQPUgEOSmetoiahIIBAKBQCAQCAQCZUAgyE0ZQIxbBAKBQCAQCAQCgUD1IBDkpnraImoSCAQCgUAgEAgEAmVAIMhNGUCMWwQCgUAgEAgEAoFA9SAQ5KZ62iJqEggEAoFAIBAIBAJlQCDITRlAjFsEAoFAIBAIBAKBQPUgEOSmetoiahIIBAKBQCAQCAQCZUAgyE0ZQIxbBAKBQCAQCAQCgUD1IBDkpnraImoSCAQCgUAgEAgEAmVAIMhNGUCMWwQCgUAgEAgEAoFA9SAQ5KZ62iJqEggEAoFAIBAIBAJlQCDITRlAjFsEAoFAIBAIBAKBQPUgUBXk5uuvv05vvfVW+u2339IMM8yQJplkkupBKGoSCAQCgUAgEAgEAjWFQFWQmx122CF99NFHabrppkt9+/ZNW2+9dVp//fWHArJPnz5pvPHGSwsssEBNgRyVDQQCgUAgEAgEAoHKIVAV5GbttddOm266aVprrbXSE088kfbcc890+eWXpzfeeCM988wzaeWVV05TTz11WmaZZdL444+fjjnmmPTtt9+mp556Ki211FJp4YUXrhxi8aRAIBAIBAKBQCAQqGoEqoLcUGnWW2+9/KOsuuqqaZdddkkjjTRSev311xPF5uSTT0577LFHGmeccdLhhx+eFR6urJtvvjmdddZZafrpp69qoKNygUAgEAgEAoFAIFAZBKqG3CA46667bn7r5ZZbLvXu3TsNHDgw3X///enaa69Nt912Wzr//PNTz54903bbbZeuvvrq9PLLL2dyc9JJJ6Wll166MojFUwKBQCAQCAQCgUCgqhGoCnLDHdWrV6+0zjrrpEsvvTTdeOONmcAcffTR6b///W/acccd8+9zzz03x+XMNddcaZ999knnnHNO2muvvbIbCyGKEggEAoFAIBAIBAKBQFWQm9122y3169cvTT755Om7775LhxxySJpwwgnTtttum6aZZpr09NNPp7PPPjt9+umnmfCIz7nnnnvS2GOPnd5888100EEHpcUWWyxaMxAIBAKBQCAQCAQCgVQV5Obnn39On3/+efrjjz+y26lbt265aX788cfUv3//1KNHjzTyyCOnUUYZJe+qElTs2qafRXsGAoFAIBAIBAKBQCBQFeQmmiEQCAQCgVpEwKaGMcYYI6vOUQKBQKB6EAhyUz1tETUJBAKBGkPgzjvvzJsfjjjiiLT88svXWO2juoFA/SLQoeSGa0m+GpbPL7/8khP0lVoGDBjQ4u+Ueu+4LhAIBAKBUhGYZ5550nPPPZc3QYgfnHXWWUv9alwXCAQC7YRAh5IbcTayE2+zzTZ5m7ft3UW8TXPv+/jjj6dJJ500/fTTT+nWW29N++67bztB89dtv/jii5xjB5mKEggEAoFAYwS6du2aHn744ZxQVLHJYcUVV0xbbrll/h0lEAgEOgaBdic3MgyzamQRnm222XJeGmdJyUqsyG2z8847pzPPPDOReBGem266KS2yyCLZAvr999/z1nBk5u9//3s+mmHaaafNhEgg8uqrr54+/PDD/F07q2Qxfvfdd9MHH3yQ3nnnnTTzzDOnBRdcsNXoujdrzLOiBAKBQCDQGIEuXbqk9957L2dTL4pUFRKObrbZZgFWIBAIdBAC7UpukBTZgxdddNFMOhCQTz75JO9+ev/999Nhhx2Wdt9997zlm3Jz3nnnpYMPPjhvA3/77bfz//v+Z599luaff/5MeBAhuW6WWGKJnNiPquIeiM/zzz+fSZPt5GeccUZaZZVV0gMPPJC3kc8999wdBHE8NhAIBOoZAUfAmGfE3PzjH//Iig3SEyUQCAQ6DoF2JTeOUTDYl1122fTVV1/lwS/jsCMUJOxDVp588sm08cYbp8suuywflvmf//wnHXDAATmfDUJD9bn99tvzVnBl++23TyussEI+bsEZU7PMMktWdVz/yCOPpGOPPTYfrCmW59///ne+p8lmq6226jiU48mBQCBQlwhwSW2xxRY5qSg1eURu9boEIV4qEKhCBNqV3Mg8vOaaa6bNN988x66stNJKOa6G+4g7yVlS3FTkW+RmtdVWy4TEZMGXzf1kF8J1112XpphiigzfJptskskKUoPIzDfffPmcKdmL3dtRDXPOOWf64YcfMvlBnJArPvAogUAgEAiUEwFudyqNoOIogUAgUD0ItCu5ococeOCB+URvREb8ChVmtNFGy7EwjlVAbAQVc0k5YgEhcWAm8uIzbqd77703zTjjjGn//ffPQcTXX399PlzzoYceyrE63FIspu+//z7tt99+WSKmFB133HGZ3DiaAWGKEggEAoFAIBAIBAL1j0C7khvwiZcR2MuNNNFEE+VTvrmR5p133oyu2BsZh7/55ps01VRT5V1JYmfGGmusHFBMwXn11VezEiNQDzFyYKZdCUiQ5Fm//vprdl/5vn9/+eWXOYPxxBNPnD7++OM05phjpnHHHbf+WzPeMBAIBAKBQCAQCASq4/iFaIdAIBAIBAKBQCAQCATKhUC7KzflqmjcJxAIBAKBQCAQCAQCgVIQCHJTCkpxTSAQCAQCgUAgEAjUDAJlJzdy2wwcODDnm2m6LfKqq67K8TUCfNurCCqWLVQenGL7eHs9K+4bCAQCgUAgEAgEAtWHQFnJzQknnJB3KclAbDu2hHtFOf300/O2b7unFltssbIgYdu45yBLjmGQA0cOnYsvvjg/e5RRRinLc+ImgUAgEAgEAoFAIFA7CJSV3NiGLbuwHVKOWpDfRvHvhRZaKPXs2TNv95ap2O6mNdZYI8mFg4z4tx1Usgs7gqF///5p6aWXTvfcc09O5mdLt2zFL730Us6dYyfV4osvnu8pfw5iRa1RB1vE5cORmRjRcjDnIYccko9yOPLII4pT5TEAACAASURBVPNRCoiPZ0v4FyUQCAQCgUAgEAgE6geBspKbk046Ke255545K7F8NZdeemnOVWM7t0zBjkBANF577bW06aab5msOPfTQnJVYRmFJ+eSjkXAPKbnyyivTKaeckvPbuNePP/6Yt4lfcMEF6YorrsjntyBEG264YerVq1fOEuoYBv/2uSMffNfZVP5mW7hzYJAuGYv32muvyFxcP3053iQQCAQCgUAgEMgIlI3cUF64ibiDEIvxxhsv55uRZE8GT3+XxVNCvu222y6rLMiI6+TBoaKsvPLKyTktYnP87fjjj8/ZiZ0Rteuuu6Z+/fplgiKRX58+fXL2YtmHHeXANUXZEdMj3kfGYskBxQCpl1w4MhkffvjhOYGgz9THuVZRAoFAIBAIBAKBQKB+ECgbuXn88cezS+iiiy7KriSkQSZhpEWh4DhLSrI+biqf77333vkcKcqN08FlMXaCN3KDyHA1yWjMfSUJIAJ16qmnZtXnhhtuyEqPpH3ibRzJIFMxJce9uLqoQK5DbiT9E2wsod9GG22UP0Oy4uTe+unM8SaBQCAQCAQCgUBZlRs3E+Ny1113Dc4s3L179+w6otw42NKRChSW3r17p48++igfgMk9JMiYArPkkktmhcfnTg93VhTXFYUHebnjjjvSoEGDsguLauMeRx11VP7/t956K5MpBIdyxD2G/Dh5nHtLoDFlCJmaYIIJ0i233JL++c9/ZndVlEAgEAgEAoFAIBCoHwTKptwUkPz555+ZzIyolHrdiO7jc0ctiOsZUeHqojBRcChCYoQoQlECgUAgEAgEAoFAoH4QKDu5qWZoBBNfc801Of6Gq2v22Wev5upG3QKBQCAQCAQCgUCgFQh0KnLTCnziK4FAIBAIBAKBQCBQYwgEuamxBovqBgKBQCAQCAQCgcDwEQhyEz0kEAgEAoFAIBAIBOoKgSA3ddWc8TKBQCAQCAQCgUAgEOQm+kAgEAgEAoFAIBAI1BUCQW7qqjnjZQKBQCAQCAQCgUAgyE30gUAgEAgEAoFAIBCoKwSC3NRVc8bLBAKBQCAQCAQCgUCQm+gDgUAgEAgEAoFAIFBXCAS5qavmjJcJBAKBQCAQCAQCgSA30QcCgUAgEAgEAoFAoK4QCHJTV80ZLxMIBAKBQCAQCAQCQW6iDwQCgUAgEAgEAoFAXSEQ5KaumjNeJhAIBAKBQCAQCASC3EQfCAQCgUAgEAgEAoG6QiDITV01Z7xMIBAIBAKBQCAQCAS5iT4QCAQCgUAgEAgEAnWFQJCbumrOeJlAIBAIBAKBQCAQCHITfSAQCAQCgUAgEAgE6gqBIDd11ZzxMoFAIBAIBAKBQCAQ5Cb6QCAQCAQCgUAgEAjUFQJVSW6++eab9PPPP2egRx555DThhBOmLl261BXwnfllBgwYkL7//vv022+/pdFGGy2NP/740b512CF++eWX3M6///576tq1axp33HHT6KOPXodvGq8EgZ9++il9++23Q4AxwQQTpFFHHTUAqnEEGq/Jzb3K2GOPnbp37141b1pV5ObNN99Ml112Wbr00kvTJ598kkGaY4450v3335/GGGOMqgEtKtI6BO644450yy23pOeffz69/fbb6YcffsjEdfbZZ0/rrrtu2nLLLVt34/hW1SCAuN51113ptttuSy+88EJ655130o8//phGGWWUNPPMM6dlllkm7bDDDmnKKaesmjpHRdqOAENltdVWSw8++ODgmyG0N910U1p22WXb/oC4Q4cisO222+Z1eXjlyCOPTHvuuWeH1rPxw6uC3Lzyyivp/PPPTxdddFHq37//EODMOuus6amnngpyUzVdpuUVGThwYNp8883TVVddlf78889mb7DeeuulCy64II055pgtf0h8oyoQuPzyy9PGG2883LpMP/306brrrsuGS5T6QODMM89MO+2001Av06dPn7TCCivUx0t20rcwZ6+44orZaBkRufnXv/5VNShVBbnBCs8999xhgjLnnHOmxx57LMhN1XSZlleEVbf88sunBx54IH+5W7duafLJJ09ffPFFYuk3Lr17906HHXZYyx8S36gKBF5++eXBpEU7TzHFFFm5+frrr4eo38orr5xuvPHG7HaOUtsIUNkXWmih9MEHH2T3o5/CFUmtNfaj1C4CjFOGyBtvvJFfQvuONNJIQxiqgwYNSscdd1zaa6+9quZFq4LcAGXffffN8RfLLbdcevzxx9NXX32VQQpyUzV9pU0Vufjii9M///nPtMUWW6TVV189TT311Omzzz5Lp59+errkkkvSH3/8ke/fs2fP9PTTTye++ii1hwAiy704wwwzZBfUNNNMk+NurrnmmkS2NlEqJsdXX301zTjjjLX3klHjIRDYdddd02mnnZZdj0grC1/MpEUwyE3td5bPP/88zTLLLNmrIq7mv//9bx7XjVV45GbaaadNk002WdW8cFWQG2TmjDPOyL74RRZZJE+M/fr1C3JTNd2k7RURkObHAGhcDIr5558/Pffcc4MXPf1h3nnnbftD4w5VhcDCCy+cDRfFBgHuaJNmlNpF4JFHHskxNb/++mtaaqml0jrrrJN22WWX/EJBbmq3XRvXXIzkoosumgkro1RsLCJb7aUqyA0GWOyGYsHzyb/77rtBbqq995SpfgIRb7311sF344Ykc0epHwTef//9tPjii2fXhTLXXHMlC2PEV9VuG1PpxNPY8KFceeWVeR7fYIMNgtzUbrMOVXNK3EorrZTVde4pGwVqYfdyVZCbxmjy1ZKqg9zU0egYzqvYMbXgggum1157LV818cQTZ7dU7Kap7fYnZT/66KP5JV5//fV04YUXDlZjxxtvvCTwWJBilNpF4JxzzknbbbddfgE7Hi163M/FrsdQbmq3bRvX/LzzzkvbbLNN/pNUDlNNNVUmN0QInpY11lgj74SsthLkptpapJPVxwTJHVnE3GyyySZ5gqwFy6CTNVWLXteWf7FVjYuJccMNN0z77bdfdj1HqV0ExMv9/e9/T59++ml+CaoNxeass87K41kJclO77du45gceeGCOl2uu9OjRI9klVU3bwNU1yE199L+afIuXXnopB5DbNaXIZcQlJYg8Sm0jcPPNN2eLrnGR4IsbY4899kjib6LULgI777xzjpNUuJW1t2LXq92vBbm5++6709JLL127Lxo1z+P12muvzWRVCAm1vWmyRjAxSjfddNOqQSzITdU0ReeqiBgMbom+ffsOfvETTjih6th/52qV8r2tJI1cT8pbb72V89o0zjpOsZP7KErtISClgxgMaRwQ1uuvvz4ttthiyeYALozddtttMLmx3d+uOTthLY5Rag8BO5cZnnY4Utg//PDD9Oyzz6ZTTjklPfHEE4NfyCYQSRyrJeFukJva62s1X2PxVOuvv3565plnBr8L6+DEE0+s+XeLFxg2Aix7LkdWn2LLqF0YE000UUBWYwjYEYXQKPIUTTLJJJnYKI5g+O677wa/EZeF4xdkKo4dkDXW0COo7scff5w3fiA7inYWdzXTTDNVxYsGuamKZug8leCK4ptvrNjsvvvu6eSTT+48IHTSN7WdtAgyBsHtt9+eFYAotYUAN1OxQ6rUmlN7llhiiVIvj+tqBAE7IB9++OHBtUVuqiWsIMhNjXSieqjmfffdl10RH330UX4du2YOOeSQwTJ2PbxjZ34HkrVdUhIwNs087IwpeVCKreBwigWvNnuLeJvGZ0g1fgu5rIpzAf1dUk7b/Z1LZPt/lNpCwJi25X9Yh58++eSTaZVVVhmcfbzaErAGuamtvlaTtRWE5iBFxKbx2WELLLBAzljMd1/I2lIB8N9HwGntNbVTwMVR2enGup9tttkyyZGQU4yNLeFFmW666ZLJkdsiSv0gcPbZZ6ftt98+v5AYmzvvvDMOzqzh5v3yyy9zkLCMxOZr49VcLV2H9A6NiawM9Mcff3zVvG2Qm6ppivqtiB1QrPYi9X7xphbBYR2kSc05+OCD6xeQOn0zB9yaAEspV1xxRerVq1cpl8Y1NYRA49w3QW5qqOGaqSq1XUD4iAqD9IYbbqgqY6Uqyc2kk046+GwpFt6LL74YmUxH1Luq+PNSTopuXH3EBsGJUlsIOAHaieCN1bmmbyC/jfYd0cnhtfXmUdsCgVNPPXUINzPF1nlTUWoTgcZK3LDewDEM1Pejjz46jT/++FX1klVHbkheLLpC7jIZOqjLVsIotYkA/7wkT6UWScCqKV9CqfWO6/7a9q29bRF97733EleVraGymQoo5a6KHVL121PsinIQskK5kd7B2XFRahMB28DtanVUCrey5I2KTPJCB4xnyRyrsVQdualGkKJOgUAgEAgEAoFAIFA7CAS5qZ22ipoGAoFAIBAIBAKBQAkIBLkpAaS4JBAIBAKBQCAQCARqB4EgN7XTVlHTQCAQCAQCgUAgECgBgTaTm19//TXODCkB6LgkEAgEAoFAIBAIBIaNgM1Edl+V6wyyNpEbu5jkNShXZTpDozt8TAPK+SJhXZRAoBQE7BaUF0jCw2HlBirlHnFN5RAoxrnsrn6idB4Eou1b19ayIf/jH/8o207ZNpGbM888M+9vR25MvFGGj4BO7+BAKeotVpNPPvngzLyBXSAwLASMKyS4OJxOagT/DoJTvf2lW7dueQu8dBbG/NRTTx3jvHqbq6w1sxY6XobxKuXBOOOME+S2RIRhJgfWdtttV+I3hn9Zm8iNW3/77beh3JTYFCa9zTbbLJ+oe9FFF6W11147HyEfJRBoDoGC3Mj7IyHaJZdcktZaa61YLKu4y1Bm5WoyxiW1k+QsxnkVN1gZq2a83nXXXWm99dbLeZ3k/YlSGgLcUs4hM37KUdpMbspRic5yD4mQpKmeb775klT1UQKBUhF4/vnn04ILLpjmmGOOfCZTuIJLRa7y18moPu+88+bEhS+99NJQh4hWvkbxxEojsOaaa2Zic/PNN6fVVlut0o+P5zUgEOSmQt1A4PXcc8+d3njjjfT4449H1s4K4V5Pj9lpp50SV7AfykCU6kOAu9D5Wg4WvPfee3MG1yidD4FXXnkln4I+yyyz5PmeIhGlsggEuakQ3oKvd9xxx7Ttttsm53VECQRaioAYjiLV+auvvlpVh9S19F3q9XoHgm600UZp/fXXT1dddVW9vma8VwkI7LPPPvmU7JNPPjntvvvuJXwjLiknAkFuyolmM/dybPw888yTfvzxx3wI6JRTTlmBp8Yj6hGBU045Je8oQJTPOOOMenzFmn0nmwW4oz7++ON8Hs9MM81Us+8SFW87Aub9OeecM8fHUfKmmmqqtt807lAyAkFuSoaq9Rfuv//+6Zhjjkm9e/dOhx12WOtvFN/s9AjYhWMBdYjdc889l6XvKNWBgDFurO+6667pP//5T3VUKmrRoQgUir0dQGeddVaH1qWzPTzITTu3OKXGqbh/+9vfwvfazlh3ltsLVBSwuPrqq8dujCpp9H79+mWiOckkk+TNAuOPP36V1Cyq0ZEI2N6sXzBGnn322ao9QbsjMWqvZwe5aS9k/3dfC9Att9ySrrvuurz1O0og0FYEbCvWl5Cc22+/Pa200kptvWV8v40ISPFgm/4FF1yQt35HCQQKBGwNX2GFFdKKK66Y7rjjjgCmQghUnNzI1infS7GVlT/SZD3yyCOP8JUvu+yyNO2006aFFlpohNdWwwV9+vTJC48dE3ZORAkEyoXACy+8kBZeeOHUs2fPHN8xxhhjlOvWQ93HDiC7/X766aecPND4lZwstqP/BdVjjz2WUzyIq7MzBj5RAoHGCKyzzjo5v9mVV16ZNthggwCnAghUlNyQ6JZffvkcQS7XiyIo0oTA6hlRscVylVVWSQcddNCILu3wz6XJX2SRRXKeC4uPwLIogUA5EbADQ2zHCSeckPbcc89y3nqIe9mZZfePHDsWbgHxYsdKMUiaVurSSy/NxKhecn8w1ljl999/f5LHypiPEgg0ReC1117La56xYz0Ya6yxAqR2RqCi5Ib1J3089srqVBzfQNUQeEXFEZuiSFo26aSTZh828mMSQWrWWGONtMceeySdxeSKMM0666yJz1tugZlnnnnwPdoZu+He3vY/9Yzgwo5shfp+9meffZb7u6M8TJiO82iP8sQTT2Q3mABmChGCY6zaFUTJMVHLzCqmYNxxx01LLrnk4GqINZDbaYoppkhjjz12ztxq14jgescSSFVP8aDeilWZffbZ83094+uvv85jW44Q6giDQdbXQhkxL3zxxRdZyZXqviPKhRdemLbccst8Hs7FF1/cEVWIZ9YIAtYD68Jxxx2X9t577xqpde1Ws+LkhvV30kkn5QnJhMjqfPPNN/Pk+e9//ztvmTNpc+dQcygf8sJgvQ7p1DFEnpsQTeryxiBARx11VA7cEsArvwCFp6OKLYCSN5HtTfgm9iiBQHsgIKGf5H677bZbsk28PQpyI6bEOC2KcYqo6Od77bVXNi6QmJdffjkbLoceemi6/PLL8w4RqiWjRhLLnXfeOY066qjZUPn+++/TEUcckQ0VRgqXM1cuQ0csEXeuuULumHvuuScTKfc68MAD04knnpivnW666dL222/fIbvG1N989tVXX+VxXhhm7dEGcc/aR0A/sW5JGcAQn2yyyWr/par4DSpKbqgvs802W5al7Saw+Pft2zdLueeee26eFJ3H8s477yTyNVLDChRrw4LTMTbffPM8kbNSTXzkctbcNttsk60n3zvttNPSww8/nA+oLI5RpwJVqpjsTb7B0CuFeOd9jq3hxg/XEbdI4e4tJyIUG+5k44tayj0sh8uiiy6aHn300UxwFOP7oYceynl4kBrjgMHS2FWz4YYbphlnnDGTH0nubJ+m0hYKrOB7Bs8HH3yQyQtCZcwLymTMiG0RnM/ypeiYNzqqHH744Zmk2f7NuIoSCIwIAf2VQc5YsNZFaT8EKkpuuKWQm2OPPTbn6lBYntQWltq//vWvTEb69++fI8tlY11qqaUyATKxUWNMsmINWIImQiQJ6aHwjDfeeHky5ANnSXF5kbhNxJWK0/EuVCn1cwaQekcJBNoTAWOnGBt33nln2R/F5WXXH8JOdSlOJqfcIFUOuuNqvvbaa7Pr6YEHHshqChLS9Ay1ddddNyscRx55ZP6O+Dtj1bhHkuwAQxSmmWaaTIBuvPHG7N6l7Jo/PMM1E088cZ4HRh999HyPSifGpFRJ8WDOQc68d5RAYEQIMACsDwwGrlbnxUVpHwQqTm741LmbWH+KiYnkbFJGUFiHPXr0yCcgf/fdd5nc+Iyf3nekNjepOZTu6quvzooOokQl4cpyUJlgRx2HMmTS5KMfaaSR2gfBRnclmyNWd999dxyY1g5oWwS1ZSSuGxpcxoBxggyISytnQdI32WST9NZbbw2+LbdUr169sjtK7Ivtz8YxokNdMQaNSeoMpaYoq666ajZGEBfjl9HBePn2229zvI17IDfGO2WEAcOV5VoEgrFAhUVqFDtP/J3LupKFYnzNNddkpXjjjTeu5KNr7lnvvvtuVuIo7FFSHqfG67LLLpvVyWrfXWdnpnXUuK2lUlFyIyDQpGWiKoIODz744EwGkBGF1M03f+qpp2ZA99tvv2zZLbfcclnidj231AQTTJBuuOGGPJGed955Ob8EHz2rcZdddsnuqkoXhMzkXY/5DD799NO8INkOzFqlsol1IrNagLQH1wJrnpXftFC0XCtOwXWIKpIq7qrUYiET0KqtowyJgLgVSidVRIxMsfiXAyeuJ4Tp/fffH3wAoGdQi8THUUsZJRILOmKEW9iESGExRo2HCSecMKs5PqPWMmqouJScZZZZJsfTFN/j5hFsTCkSnyCmSLuLt+nevXt+ll2WgonNDSuvvHI+jqJSheuN0cUCf/DBB6t+cSpwofBR02D9888/5zmyErm3tCvyaQ5oTUEABK1bG+qlMNLFklEibROvlmItNWYpo1QmRgsSz5tSa2elVZTcICuUFT74YneDAEQTJPJCwuanNxCKc1l+//33DC45HOC+RxaXM0BnL+5jAjZ4sMtCFapkh0HcTHZkekStcLtVsg7t+SzkhrUugNNOF2RGTFRBIrkZWPYscQvN1ltvPbg6tsn+85//zBa4thEnInaj2B7P3SDOSs6Wxouy+2l/fQEJMtDEWZx++un53vqNHTV2DDXOuWIHjt03SFgxkasv9c6/HUApmK8lxKo9sS3XvYuD+sSx7LvvvuW6bRIgL4YNaS0UULhb2G3p1pZUVzE/+r3PjE1ERNKy9957L6stBekVQ6c9KK1Um/vuuy+PW+oNmd6coJ0ZOYr+Ybz7XP/jmlYf15kLzB2VKuYwhpl31a8b7wyrVB1a8xwpA8yjYpUQYIuVudOY++abbzJ5pJQXsYl2uVHExDYaS+IXXU9lEBhrPta+2kT7U2aMKfGURfE3hgw1TnC5vsA4KuZsz7W7zjh0f8/Td9RDcLm5wN/NMciu4HPGsUWXYuj/9RNzrz5ibCvuWe1Fv+fWFFYhuLhatoabt82fCClMuYcJDIyWwqi0Fug/5mX9gZGh/vpQkQvLv7W9NrZu+4525T6u1AnpFSU3w+twLE+WuQmaZVZrhdJEUaJG2O5Xz+WAAw7InZb1TJI3IVLVFNv6TaAWPpOfAWJRo+gI+m5aTF5UIPfT6Q0qk5pnvP3221m9Q1IQGrEXJlL/b4G09dZkWsRdmDS5ZbRFEfNEBbAwUgcE8onzMNG6rt6S0BUH9SGEfPqxS6/8o1CfE+CMaNeKgohkUNXOP//8oVy6iD6Cagwvvvji2QAxh1mILFRbbbVVVqls9kBSLE5UPNcyRLlWkBoEw1imyomdskUePtQ56pr7i4F0f/exoK+11lqZ8CApVECfUfERpkIBVHfrAcLCQHKdxdaCimCZg7i9GFSUZOogJa8WivcQf8oNa56qhgI/rmVzaFFgq321p3lXIHRBIM3X5n5khmHLqELcqLautQ6Y/20w8B07nXlbKlGqhtywwlkEBkOtFRMEawhzpR4ZZPVYdFgxBiYekqrOKhaDy8HONcWkQ53RqU1a1BcTKzULERG/IUAV8RGzYVAjNWI0kBeTp+sQEpYmAuI6ap+JzsDjmjS5skZNuiRe+JtsTcQUJVaFWA+DyqJPar311lszGXMvro56LEV+Je9XKFz1+J4d8U4IuH7GpWNxpnrUQkHojQNKk2IcfPjhh3l82l3nnSxM+oxxyM3IADBOLWxciH4zXCgo4gqNM4szYmNrPsOlmAuMade4B6Lju1yaiAyVTb+k0jOCuEFY9uKrLIYWSQYNUuXvds5Rbhgr1GGGEEXAgsoAMuciZ+YB96eeVyK+shztTqUSZ0aJggeVpKOLZKBi6LQlJYzbWOwccgNv7SdmVtyjdjV3U1KlbxBugojqP/qaedp6rl30m0ob/VVDbjq6UdvyfIoNpivPiP+v16LTmtSpHjq0AdCU3CAghUVGSTGpsba4I0nNXFuICwuP9I2YcDVwLfGtIzbcVpSe4oweJIeFhqyY8LguxP8gSoqBJe6HBSSGgOKjIDHir/xNfU2mCJHYHxN7PRYTP5eQhYnFXLh26vFdK/1O3LFcI/pepXZfluMdjT2qCdc9Y8FiY4GilttibzwxRhgWSIJtyjvssEN+NCMCkWHYIEXUQONZcDCV3ZikZrkHUmPBtiD6TNyV4lnGqOdTX9wDUaTqIjJUHbFVFkMLaTHPqI+x35jcqIu/c2lzZ3ofbcIAMp/UWimUQOSw0kHxw8IKueHypU5qHyQT8VS4kbVfETulX8FegLQ2krC2OGYIafZ33yVaWBe5rI0dSnwlSruSGx2dlY+1Davo2GItLDQkxhEVFhOVxCJZLS4F20BZCxZn6kQ5AzlHhEdHfU7epo4IKkVuTE6sO0W8B+aPwBSZbE2GYipYXgq5G6MXt8Dq4jKyIFNlTFwGhEmzGFSsSZamz5EfAXgmYIu33TMGGCnUwCGBGnysN88ksbuWxSfgm0VpAq3nUhzUZwESYN/Wor34zJHQlsQpmRyRXeO1tTtCLHrUQM/uyEKBFLAtBkX/rtQEXY53hh+SQu2w4UFBDLgQEBaExr/N01xOFiZqDGudCwHRocwKSDZXCxBHMnzfOGUsuD/jwYYB7l/fQbCLOYHxgdxQfLmszJfcUIccckheIxAji6XUHYwUhqL4RWOW8gt7hNJvRgt3mPlAe/g+Q0gMVinrSDkwLdc9qDbGKeVGoHqRub9c92/pfQpSi4wWhaInHADhMZcycBXtrj0RGsRGrI65XjxdETLAiDVHayOkl5Jno0AlSruSGwsei8CLkkWxeS9p8TEYsHfylkFjS/eICvIAXJ24GkgE2c5kYOCyhgz6ei1kRgQCuWCJIXQmG0nZkFgKCaKHrZOdGysGSAwLwCRlYkJokSAWGv8tH7zvG+jYvUy3SIlJ0t9I1yRPkx7SYlBRdgwiQXmIlr6mTv5O3TFJmDx9Rh0yeSBR2qmedl0019/0S4tFOXZjaHuTHku/JSTF4mSyE/8jcLI1xTsgpiZUyp6F2hxQ6VIkCK3Vgw8tVhYVY8oCY86irFBhEQ1EBIE0F1NQtLcxg6xQFIxfZIL1zn3MgjefG4N20RhbFkHkxFhFori7zPPGOneTxZtxiqAY7wgU48h8zlAR78GA5TpWB/c2n6iza5AifVGfMD8wjhEx8xJ11uJai3nFEEv4wcr7daThrj2ov9qwKEgNomsdp5AxZs215nl9APY8FwiqNUC4AjeifqIdGbrWSt+33jNCK1HandywHC2GBgjJix/WINPRBT6yrguLoGnEuIWN9Vf8HfM3yZjoilOQDb6mCbRE93Nt8AcC1XMaH/LnbwZGW32z4jg0LDeMBqznYqIzqWgTkjDCoFhwtDEsLWDIxbASqpGMYUQFUJDZIj8I9o/wmjy1r4FBGjXxajf4iuMxBZA2nQAAIABJREFU4DwH5gIe9SnxNCbSIkitCHQWC1AMOHVCrk2UnlVr1l1r+hU8ETzWuLZry24Mk6+Fy44o7V/sdjCuGo8hk6I2VCguVJuC3FA6CtXH+PPjmsa7a4xb1/gpdr5YhE2aiJK+pr0bbzgw/j2zPRe1YvGxAOlDLSF4rWm79vqO92BsajcLqNQZxhWVBLEoCKgFlhHArcxdYrFikBhvxW4XxIUrigrKIqfOUYEEA1sgKa2sdvdEmrR1QUoFoVIrxJuYO7iuLaDGtLroq+IW9QPGE9JiLDOMKLMIOzKm7yFdxrN4HetLW+f09sJ+RPc1x5nvrI/euaOKOdraaM4sinXO2Lbhx/yqH/htPFDQFOOzmCf0LWEEdhKa583byKvcdPpGpYSJdiU3ZFCLlIWFz41bQtCnv1nYTJhcDDo6v5xJk/xpQBhcvqcYBBggC9D3WJAmNQFOVANgCm6jFojp4KbA+i2kBh22SN6kEmgkEqZBUTRMazoSJut5rAaTvjpG6XgEtIfJ0fZjMjkyYwK1K4GF6SygzlIoHmItqFos7dYWyhufOlJhDFoUjSEHRgr4NIGx4ljtjl6Au3GGmBrrtu3aBcOdaaE0kZOyLVoWPfOEAHDBiupqXBnbjBYWIgWO5W6BsyPH+GbgcFcqXJztFQODzCHO4rsYVx3tNmhtG8b3qhsBO76MI242RCAyXre9vdqd3JgQioMysXkLjAmMcsNSYwEgLiw8kpeJjypgO18x6ZlEkSCynd/IDWLEuhOX4Z7YPPZu0nUNF4g9+4gPpum7FjlkyHY0Flhb8iGwMEzknWHrd9u7WeXuYAGlBLL6yNkCibW1SaMWd+K1BTkqB9lenzdmWntEAYJifMLVzjgkhHvG1lAKGZmZuwL54Tpm+RnTiCWDhuFil53dFSxDxgbjxHeRI1I2i9VcYAyz0Fny1B6kiqqA3Bhv3FIUAWodA0W9zCPttUPRO3qO+nCLRAkE2gsB8UfGkrHj/6O0DYGKkBtbwASgkTZNbmInyIokTFYaq45kZRIzoYm7QIgQI8VkRnnhuzXZsSTFWoik933WlUmcbCaqX6CrIt7CpInUFL5miovnsuRbW5A0fuMieRmVKEogUI0IiLVAKtqyG4ObgjFR7EbhSqaU2PVCYbGLqFCIGBXIpG3Sdq1RR1mlSALiiSgpxj+5m0tC7IcxXRygS61hgDA+xA6J/0Bu+PcL9waDh0rXngU5NM+Q4Kmz9brDrj0xjHuXjoDEeNYz6xPCz+sQpfUIVJzcsPgoMiY3PlZWHL86q5rSwgIj/bL4iiMZkCNKDxkaubFbwTUCTfl9BaGZGPl0qTgFuSGV8/fxMwtaNQErtgOXEsDcHKwmWy4zPybhKIFAtSIgZk1cBeWGK6g1CbSQGwSJX128CXLDDcwvT2n1DMoo13OxQYCxgtxQzvymeggER2IoOoILuagZCowWYx2pMT8wHBgjyA2y1JjcUHyMOSqR+rRnKZKslTvjc3vWOe5d2wgwyBn5cWp429uxXckN3zhSggRQY/jLCxUF6WDdidQ36QpSFUjF14jYcEuRg5EQPnyR9VwL5G++fZYjvzvL0YQoCp+riEtLTIDrTLYCj22NVRAh8Tzk9dYW/lDvIsaGH75SwVGtrW98LxBA7gX36bcMg5YGXVJWuWUQEeTG9l/jzt8YGLaBUjYQGgYKo4XKYoxTXcW+mbQZGwKduZcoMT7zd64o6o5t+kgSVxMVVnydv5noKTyeY0s6YmR82/WGXDU+yqNcrU0VMieZc1jRjQOfy/WMuE8g0BQBLlZqJ4PCulXJo0XqrTXaldw4pI3FiInKiWByKzLMkuD8DZExUSI6FBqTp0nMhOJ6kf0a2ERnwhGvY0LUCfy/v9maJmBSPEBxjb9xg5GxKUOuN1Gy+hpHgre0QU2qdm24Z5EzoqX3iOsDgUojwHBgBLRmKzNCYocLI0UMm/Eprg1hEjOD8CMo4pzE94iDM76psVw6jBw7KbirqLaMHCosdzLjBnEx9hEe19qqLCCZAeGnOGwTkeIqoqgIUjb+qUaCxO2UKWcR/0cF9l7FzsBy3j/uFQg0hwB1k8JKcfX/LTVGAtm/EGhXctMRIJtcizONWHwsQfEGJneEp5igW1O3IlumiV0Ac5RAoFYQEC9DibA1nOHQlq3hxTuL50E8KDQISb0UJEzOKhY01SpKIFBpBApjxA7fjsjrVOn3bY/n1R25sb/ehITt2o3BX85S5OdncbZ2UufrF7RMDWLJ1tNk3h4dK+5ZfQhQNwTqU00EAbel2BFlrAm4ZWHWS5Efi9VMjZIfyJiPEghUGgHGiBi0Hj165BhSXokoLUOg7sgNN5atp+RzSajKVcjpYn/ECxSHRJbr3nGfQKASCCDoXDjyy5g8JUuMMiQCRUBnLZ36HW1YnwjYACNXlZCL4nib+nzT9nmruiM37QGTQEq7QAQnSxLYXjk12qPucc9AoDECkbel+f7AKDLOqTeUm1o59Tt6eH0iYEs45ZAxIh5NwH6U0hEIclMCVral2sYqGaD4nSiBQK0iIIiX3C3uRs6ZyLj7/y3JQhYgTaW1TT1KINDRCIi5oSLaUCMRZpTSEQhyMwKsbPe2hVxuD7k4irNzSoc4rgwEqgsBR5tItSCxpp1/0adT3tVpZxbrGPErzq6rrpaL2nQ2BOwaNE7F3Ri38kZFKQ2BIDfDwcnxDraPC1Cu91O/S+sucVW9IGAHhgNtZQ2W7bezF+kh7IC086stqSI6O47x/uVHALGhttrtyNjuDAf/lgPFIDfDQVFeDW4oOS/stooSCNQLArIGy0NjFwZ/fmdOUicfl5OtJQ90fEutnvpdL30z3mNoBCS0LY4wCWOktB4S5KYZnOwsEVzooD4nIcvKGiUQqCcEiuMFyrE1vFZxkQRQ5uY333wzZ2929EOUQKDaEJCCZKaZZkoTTzxxzgbuDMYow0cgyE0z+BTb8GzFk0U5SiBQbwgg7gKK/SZ3yxbc2YpcPTvvvHM+v8pxEFECgWpFwJFDsn9LSXLcccdVazWrpl5BbobRFLbeOdNKIkAWnURKUQKBekTg8ssvzzsxuGVk4O5MxdZveX9suXVsS5z63Zlav/beVYoCcTdvvfVWPlexLYc/197bt7zGQW6GgZmTx030Jn5psKMEAvWMgB0YguYd1ue8qM5SihQP1BunnkcJBKodAWcarr766jnoXfB7lOYRaBO5sU3NCd2yAddDodTI3OqgTjE2zpjxbnZNRQkE6hEBJ2o71HLTTTdNyyyzTN49pdRznxcw/N577+UttmIYvP9oo41W1+9cj323M76TvrvWWmulZ555Jh/eLC7UUSj1ULzHBBNMkMYee+yyvE6byM2hhx6ak145DbgeCiIzYMCA/GO73ZhjjplPJY8SCNQrAsYuUu/AWaVcE0s142WcCyQm88vx47y5GOfV3GJRtwIBxoh++/PPP2dC7uePP/6oC4C8xxFHHJF23333srxPm8jNrbfemg/PwybrgeCY9PjhH3300ZzMi0+zXjpOWXpL3KTuEDBuTZT33HNPtprk06j3YpyLs3nooYdynI04hnpWquq9PTvT+1lrHQ3iSCBj1fmJ9bJGMTgE9lOmylHaRG7KUYFqu4eTgJ1yvM8++6Rjjz222qoX9QkEyo7AZ599liaddNLslkJyOkMpMhLLY3XWWWd1hleOd6wTBLbeeuvsPnZ8yqKLLlonb1X+1why0wRTuS5sj42TWMvf2eKO1YmAuLkpppgiLb300unee++tzkqWuVYSF4pXsFA4CTxKIFArCBQJ/R544IG0xBJL1Eq1K17PIDdNIOeSwoYdnOcAvSiBQL0jQOLmnhFgK7i2M5QXX3wxJ+yzUDgQN0ogUCsIyFB84YUX5rFqzEYZNgJBboLcxNjo5AgEuQly08mHQE29fpCb0poryE2Qm9J6SlxVtwgEuQlyU7eduw5fLMhNaY0a5CbITWk9Ja6qWwSC3AS5qdvOXYcvFuSmtEYNchPkprSeElfVLQJBboLc1G3nrsMXC3JTWqMGuWlncmMnyvPPP59zAdmNIjlg0yLnxieffJITqP3444/59NeivP322/l/p5tuutJatMxX/fTTT+nVV1/NuUCa1t25W/429dRTD36qa8cff/y8tbi9y5dffpkzdUpqpQ7zzDNPs490ki4s55tvvrwzKMr/IxDkJshNjIfaQSDITWltFeSmncnNLrvskhMuSfMuE+zpp58+VMLDN954I0e+S6Zmi6pI+KIceOCBefGWCbojyg033JDWXnvtnNjQFvnGZdddd81JpHr37j34z7169cr5Upzb095Fhmy4ORtJfqLZZpst+RucG5c+ffqkCy64IO+OkSDK0RpRgtzEbqkYBbWIQJCb0lotyE07k5tNNtkkH765yiqrpEUWWSSdeuqp6cknn8wH9VEdqAnzzz9/euSRR9IPP/yQKAz//e9/00UXXZTefffdfI2kgo0JRGlNW56rJDNEIFZaaaV0+OGH55vedNNN+R0efPDB/G4777xzOumkkzIJQyR22mmnihw4uueee2Zytd9++6VvvvkmrbHGGumoo47KypHtvfKYrLbaanm7JFWMciYLrza57LLLcjbqnj17pi222CKfzyLb9jvvvJPbpjMRoFBuQrkpz2wRd6kEAkFuSkM5yE07kxsLPbeTMsMMM6R1110359Z4+umnc5ZJJzHLknryySenFVdcMR9n72Tmc889N2233XZ5sUYsDjjggNJatIxXWfwpMH7OPPPMRMWRwVZd1e2www5L22+/fX6i96Hw7Lvvvunggw9OTlZv77L33ntn0lIQP2eScP9RwBAdx4MglH4jQdx9F198cf6Ruvyggw7KJ7//5z//yWSNa5Db6tprr81EZ5xxxmnvV6iK+we5CXJTFR0xKlESAkFuSoIpBblpZ3Jj8Xd+D5cJArDBBhuk0047Ld1+++15EZURlpJArVlsscWStPDfffdddp842v7II4/McThHH310aS1axqucOksdQVqQgLvuuitdccUV+X24fxAuBw+KKTruuOOy2oG4Lb744lkNae+C3Iw77riDiR/CVcQBIZEUJ8npnCWkbhQcBMixGtQm2COWCM3dd9+dr6XknHfeeVk5o/x0hhLkJshNZ+jn9fKOQW5Ka8mKkxuulxdeeCEv2OJQ+L2bK04qRgj+9re/pWmmmaa0N2rjVeXOULzxxhvnRRWp8duxDs6y4Tahznz00UfZDUI9QArE31AZvv/++6yCWLApDkhOJYuDBB1iJn6FS+2SSy7JB4ly+XChca95NyrT+++/n4nAmmuumX+8z2abbdbu1f3HP/6RRh999KzcIGLiaqhfV155ZSYtlBdBxjJNzzLLLBl/ZI0LzbtRzUwUcEd0Jpxwwqz0OCXatWOMMUa7v0M1PKA15Mb49b2ZZ545vwL3KtyM6eZK375902STTdaik8eph5RPpJOq6UBbJyO3tVRDhmJuXG5QGCLgiHmPHj3yT3PFNVyrxmFzRaA9zCjFIyq//fZbxtWGhWFtdii+79R0c5N7Mmg6slg/Pv/887wmlNt9rE2EA1hzqMDVWILclNYqFSc3LH9uC7EaOqlJS7Bs0yBQk5qFyOcWV3EnlSjlJjdIiXuasCyclI0TTzwxKwUmKbuQVlhhhXTppZemeeedNy8SVAULt8nGJOX9dehKFuqRehxzzDF5d5FYIO2k7lQbJNUkisSIGdpjjz3ywmbSQW4E+bZ3QRKvuuqqNO2006YBAwbkOsw999y5jv369cvER0C2s4OoMvqQ99l///2zS4p7SkzRsssumz9H2EYbbbTcJpXGu72xGt79W0NuHnvssfSvf/0rq2MW5k033TS7+rhhmyv6hO8gxKUWpJpbEXHVrvrkeOONV+rXm72uGsgNsqefIdaItPiwzTffPLuumysUXUH7jKXmCqwow9dcc80IcTK/MKzgOjxS9cUXX+T6uaex0hEFwTrkkEOyUmxOmnzyyRP11jgvV2GobbTRRnnOLrXoo+aWchOt5p4f5Ka0lqk4ubEgiW8Qb8L6M1gthlwwBhnmzHVw/PHH52t8xgKnYAhW1flcw/Lu3r17jgExOVARuH7aWspNbiggiIAiPqQolJni346sdx13j/9H9PwbweB2KT5r67u15PvqIci2sZU8cODAwVabSVHdXGdx8xmC4Z0qWV/Y/vrrr5koNi7qp/7qCFfFb39jkfkNZ7/93TuYPH3PZDnmmGO2BK6avrY15MYBswLMLaKKnXO2//tBdOBovFLyqJQwvu666zKpFBNFsbT7jnJhsTIPTDLJJHksI8xPPPFE7v+u5b4V80WRMw8gBYwBZJrbtzVKQrWQG/MbBVFBbCiN5jUL2AcffJAeeuih7LZG4hH2G2+8McfhFe5gcx4FA1GHh/u59uabb86u5DvvvDOfHk0h5142Rs2z+j6CIDaNC9b8aQxzj/tsvfXWy3Pre++9l13M7r3yyivne0455ZQd0t/tIrURQD8q5k5zjVhA64IzAc1X+guFCZ5UZnOtul9//fW57vqmfvfZZ5/l/qTPUqUY3uYBhifjWz8Wh/f666/nfnz11Vdn5ZA3QYoP34UnlZdrm3GkX9twgXwykrSDumnXprtNWwtikJvSkKs4ueGKQSBYF4qBpvEtQpQKP9xRXDMGkslLPIfJjuVgIMu9wkL3by4HlqB4ENus22rVlZvclNYMcVUg0HEItIbcPPfcc9nCZWRYEEz8FhPj0AJrDN9xxx154WDEmPypZsYr5dYiwQo39i0eFCALiIXW/zNuLO6rrrpqJjWC1z2PesMNabFyD2kHhudOaQ7VaiA3VFoqDWKBrFAAqI+IGwJDHeMioehSTBARqqPFG2GkplJ4YY8cIpwWbwoCDGFHtbRQIwXaxyJOFddmyIt5lXJp7jzllFMGK5wWZm3shyvMJgILNhLVUeRmnXXWyUTPu+ob3gFB07f0MwYy9zRi5vdyyy2X1WV9DGnzd0REH+XW8324U6KdDk8hd1+EiIuV5wCm2sPOUPjps0gRA924sX7Z8KE/UiYRMLGTSL++qr6Ivf+fffbZyzLIg9yUBmOHk5sjjjgidz4DnXsGE2dtiJnAoFlsOh22btcON4IOi4WLAXHsu06NALFYkJ62lCA3bUEvvluLCLSW3HCPmPAtEKxepIOSR7GhjnFTMVCMVUqYxQlBsTBTZakBPn/llVcGKzZUBgu5RZl1zXBBbrh3LeRiuyzQFtm2lGogN96PmoLUcUshdpRtmwrku5LegNJFIUNUkAs/DD7zoUUUsUNu4N+/f/9MZJCVTz/9NCsWFn7Xm1O5aCke/t98i0iZMykUSCIFSVspFFFkS1LOZ599NrcBAmDx7ihy09itqT9wV3pvSr++p/6Imw0DiJ/3tR5QZF1PaeE+Qm64RxnUu+22WyaY7gULyou/IUGIJRXLb0Ra35Z2Qv+l6EjTYf0xBsRSIoJwQlYRRZtA9GOxk+UMqwhyU9rIrzi5MXh1QpaEzrHXXntla0RHwLR1IizcwDSB6RwsFkzc4DIgkRtWISZ822235QmTKwGDbuz6KQ2CIa9qb3JDavdTit+ay4Qlwbc8POnddQgiK6Y1En1rcDLg1csEzAISjFuUot6CR1tjVTdXH88yKXNLku7rZTcTvFjH+jWL0YTM2rPA+Lv31b9lYeaCg7tCGnd9W7est4bcUBUsvKx/xdg0gXNhkN9ZxhYL1rJddcYqI8XiwGDxmcXAAoToSHaJLFkczA2MHgRJgDjL2YJFJbIQWWCpFwiB/tWawM9qIDcUKwYbpUDxbix95IQbg/GGbDD0EApz3xJLLJFj37hi4GyMaQfuD2qN6wXIw5b6TUGDHdXM/+szRV4of6cwIFieoV0oOIKLKWzuYWE2R8PcIq5tSpm7WjOnjOg76oRMWBO8t75B0aPyqSM8kRQkUX2NHfF43EgwQ/y4PF3jvYwbmCImyA9STamBFSyQcX2S6w8xQsS5Ca1NYic9E1HUx8UsmYOtWbA0LhFzRIdSWS6XFIzKSW6ICcUOXeTN+ss9Cd+mcbDNtQ/XnFjLIsN+R5HfpvWrOLkxCDW2idBgM2BYJSYrHQVA3E0COzFkHVpH4sbSCXUc36PqYN86pQYS1KojFfEVIxoozX3e3uTG5O1d/YyoGEQGpSDN4e1C4UOGmQFdiWMaDAKWni3tBgbMGwdB+px8S9Y1GZG4y7HbzS4nE5vAbIHmFsZSiwkOOapEoHOpdSquE0thDCDnJG+FEQA7VqnkgxYUu+ZMqCRy7WzCtRC2NadQa8gNa97iqD8jt1QVCzIVQF8wHqmsFk+xCNqLtes645qbA1GzuCDlFibSvQVEtmmkxXsjehZyBhCL2neLRJgWfwt7a+KjqoHcaHdzGvUBeUUQLahcHFRsi6b5zm4mBBFhNN7MCeZR/YFhZ4GnVCB5XCwMD+qZ71A0kGTGAHWbEmPcWsAECZtHESp/E+9kcTZetaU5iqFJzdA26kqRKMh1S/t5W68Xf8UI1leEH1Bp5KPyjkiLOntnqpXYG649/QiuVBrzJJepmBi/YeJ6fQ6miA3CYz0RPqEtrE8IpXkDpvA3DxUGuDkXOWdsW4+0i3nb7kzPQKjMgxS0cpVykptC3UPgGKj6nr7AoECOSyli4IxjY1tfZahUQ6k4ubHwWWR0VOA1tuwpGsDWcVllJj8kp7BcMUTKhM5nC6MJgdWrM2PKOnBbS0vIjUbVmXUKizembuEhrevUFiATDYtAwCuSxrIymEwcnmUBo0CwamFjUVNM+AaUaw0yg1X+Fe/L5+y77u05AjELf29ryI0YJotG4b82yFksBqwdFCZCGFNNvOOCCy6YFx4THUvQpGsxM0mrk8/83SSofsUuJQtcW4qJW7uz6hULrMkG/qwFFlkR0IpwmbgtlIIpWaQWV/fQr2BKFRPMilS4lnKi7t6BMmFi8w5UBgQAeW6PM7PsGjQx6AvaF2kRN8HqNKFqd4VKiTxwTbAsTZ7k844gN+oJx2K7vLGJ5BQBn6znYveN8W7MFguHNjTuXe97Fl+fFaojK7Dxzh1uBdebB4rnIYEW88aKYUv6VjWQG+Pd+5vH9Ffvx1q2YJtDLJzmNcVncDLWXAsTvwvM9G3zH3zg63P3hbvPWOKuL/o8lUdBMov51ecMR983p3ie+6iDtirmY//fkUUdrR/mVO+o/ubHQmkw9+gXBTYwNsdZV2Du/XzmfX3WuE8xrn3mXq4rNlR492Kt4v6DAVLtOvcxd6iP/0cG1UsfVjf3a4262BzG5SQ3CGLhltPO5nn/JjQYt+Z072XeMf8I2oalede8aX4SU4cUFzF03KW8M8Yx/IpEr0ig5/m38a5/a0tq7/B26rW2r1Wc3LS2opX6XqnkhgRJikQqEBaWNeuSdWQx1fg+py6wrllWFnfWJsuBxYUc8LezTHVYCyjLyqAh91MbfJelaoEzuBALZIFLzz0xZUxbh0RQWkpuDHZ1NPAt6ixl5AZZ8wzKGQvcJIeA8e+TgXVkEyOLh5Xic99zDZKERPgMBpQWVk3THU0tbVN1gYvF3G4IlqYBA5+ivsgmK86EIohQPJZ3smCYgOzqYa0JpERoWGGIJkxJx8gNN4E8FxYF70Y1RD4M7NYupsN71yIwlMqBzKsbS5m7QNsixRYnkyqy5jdr2/sLNmXht6W0RrkZ1vMspIWyVo6di215pxF9txrIzbDqaEFl4LCgkdtyF32L2qYfI8fDy5dT7mfH/cqDQDnJDTWLgWQ9YsjJuWR+5BHxQ7Wyluknds4x8Lj7zLkMQPO7sBFzl7lf+Ij1xFzqPgzkwtti/tXv/LZG2PnHLWsNbWs4ybCQDXLTBJVSyQ3WiclSZVipiAD1ACHhImJZW9RJv1gtRYpagO0iRiYxCyi3gwVbh0BqNDg2K77AvS1iJGpMGilSWBsYNeVCB0OOSK8mxZaSGwsbJajw/SM5yIx38QwKDoKgE6uHz1glgkC5JTxTh1U/70xx8K46Ony41DBzJK2tBVkqdkOI4TBwED5EywCEA4uXBAxjz0VWFKQTbtw6Fo5CYbPbASnUZgaodzKIDXjEguSt/ZAfbpHWuEBG9N7IDVnX872P90IiuarUh9WEvJmITCzInYnDhKBPIchtKeUiN22pQ6W/W63kptI4xPNqD4FykhveEkYbgoJMzzHHHHnOYURbyxBhCp41whxe7LSj4nNfMrSsVeK4qPSUHGua+Yx6Yw2h5lL/zanURcYiV517I0++X85cRUWLVj25IX+Ttyyg5chMOqKuXCq5oRBYGLlCLJxkcsqMBqWikPioGZQF11A1LP6C4FjfZF8dg3LASudH1nGQHMSH0mGRK/y+fMCsYh0QayYru1YnQq5Y964RENaSggQgL0gMdYBSYaeGdxNXg1BQEBAbZMFz/L/FV90pIlQr9cHquUzIwu4HIwPR39vqOvFOSAyZ1+BTvDs1yEJPCjWouHhIw6RS70NxISFzZZFZ/UZ47Dah3Bh8/r8gY+IXxEIUcV8GtXbiojIBIDjlLurMTw1DdYSz55G8EVq7VhQkS99BugREwh+BFIjflhLkpvMcv2A+ZXCZT0sNGG1L34rvlh+BcpIbaw7jiFFtLuVSo7QgKuYdc7g5h2ou0JrCY75BSrjPxUAhLYxfhjgDDXGRXJHR7h7c+lxZDERxYmKdGJj6obnO9xjn5S5VT24sUhYzwWxUCsyyPQPaSiU3GstCqXNQMSgJghv9jXVvGyzL279tXUV0LMIWSopMcTYTRmvx1XlY5RYuBekQg4EUIDOUBkFe4nNgYEG2ewYp4n6xsHNztTRwlyuBciFvA9WFu8e9BeMhWDoet436IDEGAJKBsCA+CBUFCimiciAUZEb38BnipcNTeNS3LQWJZGkUR1Egd3y3BhLLgRvJ54gOcoUw8KftNUmzAAAgAElEQVR7B4pUsSuCRUIB4uf1d7jBWXwTyVRbUEUQUb5y76CdkKlyBgYWWHAH6iuUPvXXvvoKy8YEAUfFJEGtgwPCj2QaG363pVQjudEvEWjt0tZNAsPCprMqN/oxAs89O7xNCm3pT/Hd9kWgnOTGemQuZzhT65EbMTHUFesKQ9faZX0Rb8nzgAxRk6k75nmig/m3SPzI3WktRJiQG7vuECLKujnXbj4KtfnWvc3f7eHG7lByg6yQo8REyD1AlbC4WKSAjCWSscS0+AybBLCJ3+TkWpNfW7fCNu6KpZIb3ykSOWkkCxOXB2XBYqHeRbS5fBbqqGG5RgSn+beGtbAhDRqb+mPhRWS4dhACi52FFgGiiJicEBiuq+I+4kuQLYy4tYFr6lwED6qLZ7qnZ2gHA4B8WZAnCoNrvK9nakd1tegKurU4FYGI7l0E/7Vl2KtPcV/3QXwtfIWriDsJWTHYkBp1K4IL4a1u3k3buJYfGXZ+Cpy9i+f4njq7j77o2vaKT/BOrJgiI3XRb9Sfilf4o/Wdoo28v3qqrzidtpRSyY3ga1ggusi73SnIFlegWDITmGsoX8X5R5RMxBfhNckVY5t6RrGCvcnSexlH+jcrjiLlNwJbbN8VRMqqhBUlVEE2XavdqZylBrtWO7lhEDB2jD39AbHVf4tMwv5tkRDfB2PjsTg6AGmhFmsHixHjgyrIEGMYakPqsjmE4QI7cytVhwtBn2MctIcLti39tDXf1bctskWQMEPH/MqNTT1g0NnebS1xrfWEgSb20ZokdoTi4HpKbxHz2Jq6lOs75SQ3Yi6tNcXaoQ8Um3rUt/Ha5d/GYIFlsQvP2DUXmYeKTQbmZvOsOczn7g9j/bRYC/RDfbuc63djjDuU3GCIBiJLgvWJDXLjNM6jwEo1abGm+ea4UMipJjeTn0myrVmJW0NuLEhcN8VhcthqWxcZwX7UGZ1CrIpBVg2F+mSStJhFqT8ESiU3rP3isFG+dcqdyYpySQkzRrnOLJCsPqSM5UfapvYhL0XGXf9P1vY9nyEbYopMjuYEBg8XqM+MseJIEmOdsmUeoC76HkKDIHEtlqryVDO5gRcsSfZcoZRbuFloGVGUPC5w7gIJ/riCuaNhhOyywi3ovuMa8YGIEMuc+8CGAC5N+MG5yAdj0WLcIVSUxHo4OJbBiLxQXy3G1AVrh/emisKAoov0mb8ZEFy+8EdqXItMuM4cyLju6HmwnOSm/maz/3+jDiU34iGKw89YCuIbyFhcMwaWjojsCHY14E2G/Hk6IIsOGWLVlTMWpyXKTT13jHi3zoNAqeSGMol4cz9SUKg1YpOKs4zsFqTGsPy5DimzFAMWsHGKUNjdJZ6I4mJXmpxX1BokyCKN4HDbFjspxKMZ/yxqBgUZ3Pe57BAsMV/mBvMC5ageyI0Ac1I9ZUHcG0ICQ6qjwH0ubW4A5NK86W/cANpD/AP5n6JGoYCj2D0Yipkg/8PZddoH1ix1ZFFsnXshN66pl5gcihVCgCjru/qU2A8GqdhHfQ95QaopWHCkevkOA5YBTeWCE69BW1NatHVmCXJTGoIdSm7EMCAmBiaryyBm+YmB8HeWGwvQRGrAmiCpPawKsiHlxiRA2SlX6QhyYzFgVbBKS52cy/W+zd1HNLz6jMgVw5XCWizycbR3veL+5UegJeSGjG1x4B6xW6IIbDdOGSdiwLgzGB5ilgTR89+LFbOIyIdk8bS4WnSpgvo/osN1RV0gYbOQLbBFEkv38pkFCBkSCF4cFaAO5gGqp62spZRqVm7Un2SPTJLwLbSUBHF9yJ0F2sKM7MDJPIrwcLEgO0gKd5N4LHOqNBLuReWxMGs7bikYagOuRLsgqWjUHkTIM8zJtV70LWQASfRbHxOLh5RbN/RD/UdgrPnO+iI2EDksksKK4dOv9FXqenFYbEdhE+SmNOQ7lNzoKCRBQawGsABWwa1kUxIpNxRJ1m+DlZXGb29As24srJh0OYOROoLcyFVjYjZBFYmS2ssPWUq3MBmy+KhjIzoTxUTBGmdl8ktrmyi1hUCp5Mb4NA65OJBZi6pFkPvJeLSA6gPGrkXCuEVU+O2RHQsGSR9pQVb0MQoP9RZpEdPAB0/+R4LER1houKmRJjFr+hlyQ92lOkjOiDQxCizepeZSqmZyg+hx7VGxuALF2pj7zJOIIUIixgEuxh+Fm4HINQUz34EPdaJwyVDVtBVyA3+uKtgxYijh3OB+F/d2refVetFf4YF462NICpcoAi42UJ/WN5FoqiSDmorD9cd7oG8iQsi7eDEuUUSwI0uQm9LQ71Byo4o6DD+7SYkMWmTh9Bkp0ITmt62LJjAkSMcUnKTjlTqZlQZHyj5ngbMmatZSWwvp14Rt4pF0ja/X+8gU6sck733IziaTQh5G2gROCtYki1ZqohHfwLoxidr2DA/BYeRaJExwGCtcveTUMRGYMAQzchPw9wtgNKlYmCp13IGdZfoGxc+kjpSx7C2ErFn9xQJpIWehWSQV7+edLRAWYlYZ3MVwlCPjdVv7TyW+Xyq54UZWWPba2HgVMMja18ctBvBWYGcBFrhtURFwbpwjPvq7Bdt3LOD+hixZaI1/Co1xr9/JmKrv61/ieyT/0k5cBOYEn2tb46slMSLVTG7gViinxTk93p8xx2Uixkick74OG/MJvLWHvsvVUgSowxHeRbB642u0k/sYD+ZS96EYeeaIFNtK9MtyPMM7FRnx3Q850V/0G/+viMuBE1x9Bj/92rwAO3jYYKD/Co7v6BLkprQW6HByU1o1K3dVucmNRRM5ISMLBqREyV2CzBgoBgxJnYLFJ8xy8B2uN9YW+ZilTJKuREEAPLuoB9JAtmYlmnQNelaOa1jn1DeDn3VO3i2S4gnOI2u7rhLFs7kqqV8Il6h/SoGFU/0QMm3AahUUS2I2obFei4h91wk8LFwqpZ6tUon3a89nlEpuiiBhxLfWSzWTm1rHNurfvggEuSkN3yA3TXAqN7kR/Ijc+G2x59sli7I6qUN8wSxiCwe1Q+Ak8sDaRXIQIsGSrNVKFW4BrkE+fIGbpG2Wtm2n1LMizw0SgPywgNSPz55yQ3Vi9fhNqapUEYyurghkkaiPVQp3cQgCLOVOEcQqdkSAKuXALhRxXqR599BWFvDWbquv1PuW6zmlkptyPa8a7hPkphpaIerQGgSC3JSGWpCbdiY3FBBSMr+vHAkCpi2g/L1IjS3wFlU5bRAJvmFxCK4lkVJ1SPoCMytVpNmmaAhe5Da0C0WdBZCSu50p5RpbJikmVCUSOUVKkKKCwPH7CwSvRLIwcRfwFIdBUkcKEUZyfXHaMiKmftQdyg4XiIVdtk1Exm48rjfXay+uuM5Qgtx0ngzFnaE/1/s7BrkprYWD3LQzubH4UzDEKMg5IQ6E68OCbzGmkiA3yAtyYOG1wIp3EXDJ1ytI18JbqSJOhpLBHSWwURCiBZDqJICRf95nCJA4GwoP9UMwo2A7PmzuLYSBi6g9DkVrigUckUFEzDZjygyCRZ1RL24yQZTID+VG3bjMiqzOSKYYD5hTqZDKEQVTV6o92vs5QW6C3LR3H4v7lw+BIDelYRnkpp3JjdsLDhRbwxVloRcMaXGlMBQBroLexHwIyBQ7UqTCFgBYzt1gpXQLdVJXhEBdxK2oN0KGbMkbIcGgYDuEgGrD/eM9iwyxFB6KTkuCPEupW3PX9O3bN2MsLkg9BTtLTiYAWmyTegqqRMyQIKRHTI33Edgt+JlCxp3mmiKQsy11qpXvBrkJclMrfTXqmfKWdoYaw9lW9ijDRiDITQXITXS+QKCaEQhyE+Smmvtn1G1IBILclNYjgtwEuSmtp8RVdYtAkJsgN3XbuevwxYLclNaoQW6C3JTWU+KqukUgyE2Qm7rt3HX4YkFuSmvUIDdBbkrrKXFV3SIQ5CbITd127jp8sSA3pTVqkJsgN6X1lLiqbhEIchPkpm47dx2+WJCb0ho1yE2Qm9J6SlxVtwgEuQlyU7eduw5fLMhNaY0a5CbITWk9Ja6qWwSC3AS5qdvOXYcvFuSmtEYNchPkprSeElfVLQJBboLc1G3nrsMXC3JTWqMGuQlyU1pPiavqFoEgN0Fu6rZz1+GLBbkprVGD3JSR3AwYMCBnvq1kkT24tQc8yugrW7JzlhyIWVJpeL2BXQalbl26pm5/tuA7XQelkVLX1PWPlLo2ZGeW8XjUUUct6ZFNL5JpGNYl17nhBjByvYzFpZbG39GusjYXGZhLvUfT6wYO/K2hHs1/W5vARV09Ux38dpyE4u/F/6vLsPpb4++4ZkT9oxzkBq7N9X2vO/DPQRm7kfSZhv/++KNL+q2hKUYZ+U//THnU+HvXhv4xaGh8YDao4TuaL3+n4Q+yd7e21MrBmcZm0d5N37VLA2CD/hiUfvvttyHGUlv6jOeZU2q5wKP5Mri3/e8SKP6Z/hzU8J1u+lMpc5rvNBy8O6ihMzZ8p0vDXNiWvthSrNuL3Ayvr/1veP41Toco/lIKZo2/9P/fgVtL5vGWYBXkpglarT0V3EnUTvV2ZEGlCI5Jz0J4xhln5OMDWloc4nncccelHj16NDuBDnXPkbumlWdYIL3U7/X00e/fNaxGIyZz3UYdOa083XzpyTdfSl+lX1L/r77O52o5oLKl5ev+/VOvDTZIP/70YxopT0aD56hmb9W1YfL55Zef088///LXu/75F1EYXvEdRzk4DsMxGY5vcP6UQ01bUyymzhjr1q1rngybDnXLu6MqFll4kXTX3XelPxtw7dJABn5qeK52HmPMMQa/r8XnjwbC81tD3QoSlCeIhh+//V0f1DccDur0diedN1faQm7UbYsttkhfff1VA+kYZRiTX8ObdfkzLT7VnOn9rz9L7/30dcO7pTTG6N0ajhUZPz313PcNfejX1C39nhouS6P/0vDO3RteZVDDgtNAhuHS1ULS8Fn3sUZLM84wdnr+xS8bFvTf84KiD7fm7LJaIDd33HFHOumkk4Z5hEkedQ2gGPczzTRTuqPPHZkhan8GCyI5Vvexkn6sL4zc0GcsXoOwQ32l4W9dulqUujRc0yUfXeK7jlLR5x2K60DZWiu9e/dOzz777FAEbfAsxWBoeO8/GkjhoAaijdiM3NBvp5l1gfTBG8+mAb/81IBLw4JbvHgDKTdejbdcjN2G/x9l1NFTz5nnTR82fOfHH3/I876+WInjZtqD3Jx77rn54OY8t/zPkGra9vrUGCOPlAZk8tiAQYPhNUrDGPwTwW7oWz///hdGIzf8bbRuKf08sGFM/8+S+/1/68SoI/31nZ8ajDz9UXFG4fTTTz/knJj7ctt6X5CbJvi1ltxs0LDg6hgOaSwarW1NM/xv6zTffvttPgTyggsuyKdgt7RYbBEyP42tnWbJWe5sXdL4m96Xft95jvT9ohOm9NsIiII1d8Cg1GPzB9KA3vOlX+ebMG2ywUaZKBx//PEtrXLq169fWm+9ddPaa6+dunfvXhLWYzWcgXVNwzt+//0PaYvNN0u/NKg+IyrOzTJZaVPk4JFHHmk4B+yjdM8994zoq8P8/Kqrrkq777572mXnndLvDYN6MMYNE+WghsnExKFNV111tYZDSZ/Lp697v75930jTzzB9mnbaadObb7zZ0ObfpEkazs6auuc06Zlnns6qzOgNpGhgw+JkUnIfB7POMcecadFFFm447PSYtOFGGyXku7nSFnKjr1O0llpqyTTvvPNmRa0ofzRMcMqgbl3SLO+Nnsb44sf08jw/pm6/NPx78tfS/D2fSI8+OmP6vOus6auR/yLnsz8+KL07U9f07UQjp+4D+jcQoy5pQJfu6deBo6WF5rwvTdfz43TN3Tumj95/KV10wfnp008/zWeEtbTUArk5+eST0/nnn5d69eqVycdfo489Qcn7a9Edc6yx0pINJOSxxx7L2I85xpjp5ZdfTnPNPXcm8n37vp7VykkmmSRNMMEEyXs7Qw3xLdTP3xoWmpManrX66quluRu+d8455+bDfPfYY4+Wwtqh1xtT+uB0003b8B5zNbzfX5j9X3vXAV5FtXVXeu8hBAi99yYloVcRBBRERUQQRVEEBQXEAhaeig/wVxFELIhKFUVAeu+91xB6GqT3nvx7Hby+GO5NJglB73XO9/H5HszMndlz5py11157bw7ai1iOG2Zqnie8pReeTUaE2qBPxrnjVF5VvNggC5E3I5GWGMEz4OFVEVGJmchKvQlXFzf5ZgXY5KbBXqjFc8k+uJjnj0d8LuP02fNYuvxn1XDXw8OjzG1QFuBm8ODBai3lWpd//6J7YSffb2ZOLqIyrHEqIRcdZdlPyczFtdQ87IkRNjUzDVWdgb7VXBVwTLF3xoGbaejkK3tUcibSxVHxE2eG9g/LsMGe6FwMrW6HjOREjHltEpYtXSy9Chtg1eoT8s6ylAP47DPtxGlxLJUtdXBTwHwlBTdPPfUU2rZtqxaFezW44LEb9nvvvYf27dsX+2ffeust2Vz2YNu2bdrPjcpETPMv4LNtBFBb44d8MRHRnb+G7zGxjZ8jevXqJZtvE8UaFXewOeczz4zAU/IRagE3BAxkFL786is0a9YMgW3b/GUDNvb7PIegYfYXc9D1j017165dOHP2HFatWlXcW1bHE0C+//77eGfqFAUkuRArj1q8GE9PL0RFR8nCYIMWLVqiUkAl5X2zO/yyZcvQtWsXtYnFxcQgXd45761FixbiLTohTpgsMlHh4eHyXGmyON+STuefYdp776K+NAx94okhuL/XA5g1a6bJ+y4tuKlevbpi0zp2bC9sV6r6nTxZydxjs5Fta43EcvaoEicgbXsobIKOI8quDnxrhonnnINj1/oj284dKdZeyLPNhV/0LdTYHY+kTrGwcY5CdF5tRNrUEwztii4tP4VVYi6uhvSW86Lw9vS5CAk+p8BVcYc5gBt6tOuFkRn57LPCPKbdtusfjJy7mzsiIyMUSGkj646nbNYEuMePHxcAvgVdZM6QwWMIl6CXID0wKEiOyVQsJOfMZfmW+G90GNasXYupb0+Bh6c7Jk58HY888gjGjBlTXLP+rcfTNmSbCOoDA9sqpvb2yIOrqwfSZUNOT4lFukMNVK/ZEJ7OWYhKyMC8vWECYhLwWgthsXJTkJicgmzx2bLsK8C3Qn0kJtyEu30ubOTfMpLC4WCVha8veyEtxwFvtnPHwYO7MX36h7h0+bLZghvuXwSGY8eOveMdxsnfeMmfk4IVJ8i3Wd/LAVFpOcgUNuZmWjZmtvdCCwE3f/gy2LIvFDN+O4fWQbXQKLA6ytsBHT1vX3b5tWx8eTYeH3T0RTkBnKP6d8PHsz6W+RiAxx6fJ02M4zB1Sm9MmthTgZzSjDIHN/v27VNdmLVoHbip0GPu0KGD8i4MHzPPN0WVGXt4Hkuq2lU2hOKO0oAbej330tuJlY2NDAZDJSVhbkjh7tixAzt37tRsptR5h5H281n4rB8qs1kbb5j8wU5kHQ6H1y+Pq9/p0aOH2pynT5+u+XcNBxLcjBjxNIYIG6EF3DB0EScM1/TpH+Oll15ElcpVFO1e2CA1T7DwfwISJk2coDqg0zM+L8xJacDNu+++i7fefEN9C5yjtz2kPNSoXhP+FSogXjrDlxMWwtPTE+fOncPGjRvwm4Cpl0aPlpCUjYQZ3NS9cG7zW/Hx8UXwxWCcPXNaNi8HZQ83dw+1AQbIcVHSvf2FF15AnwcfxMyZZQtuHhk4UAB2kNpQcvJskSNAzT0lEzU2xyOtYibcWu+Bd9RNxGc0wpmAQHRt/zlOXXoAF6+3hZtNLHyyL8Ir9xac7K7A9mhV2UQq4/j9tZGT6QB78ZbL55xDm/Lf4VZsbdy06ondVzPx0YzPcTH4vEWDm99/X4MR0gXaoOfj3CE7V6tmLbgLS0DQQybP3dMD52XOzJg5C/v27RXHYTqyJXTn6eEpc6qcmjMMGhAUnZH5EhoaqgAP55qDgGQ3WSvdJIwVERmJadP+o9iil156qdjf5995ggHctG3TGm3kTwY1kLKBZos2JtfOGx4VG4q9UpAsDER5Lw/YCki5HHwcP193RGufNDTxTEZEmhs8ffyFbXSFp0MeKvvaITrHC5dO7UR5x1TEZbnJtXzlHBsMqOeGRj6ZOLB3Mz797HNwbTJX5oZh60aNGmHChAl/eYUZMmnGLToFRMXDpX5lXBWQ6CTO2ZvNvfBreIbY0AqjfHOx99B1rNsVgpMnQ+Hm4oDybg7YcyoSn859At1aVMLxMxFYu+EsVq05Df9+rTHmydZo6pqNof0eQI3a/RAd6y3fsYM4RxmY88VgODkKIirlKHNwQzqdm7CWl06PljQzPVZDDI66hyFDhiBOFn6tYk5ep6Qfpw5uCp9R8SNWwsrBFh5zH9Q89WIfXgy7RuXh9n7Xew5uuICflUWfIO75555TgKIoTRS94UOHD4sXfEK85mcUkDh48GCpwc1UYW3efOMNBa7IvgRUqqR0D56e3mqTsXewR6iEvmIElPB/z5kzF5lcSN6YrOzGMER2tnibAvYZknR2ckaDhg0RFhaqNi2GIX5avAixMbHiILRX+okpU95Bj549hLmZZfJ9lZa5qVatGgYMfBTtOnYSViAT/u6X4ZYXjbzEdLgnxMHxdBVkeaThSpW6sI4VhqFxLO5vOQ1H9g1CXooVnG2iRXDsiTgrfyTZVBDP2hFVD2fDxj0CWTUi4ZaSAA+Xm6hU5zTWhryFbKtyCA05gekzZuFC8EWLBjerV6/C06JpSk1NFZbGHlWrVJMQXbqsp17w8vIUB84ZF86fpyRWNu50pV8IqByAEcOfhq28/zwB0SmpKYgWnVuisBNewhJSo3P1+nUJYbmJnswLv69dJ3MyQ65dWX7DUW3Ujz76qFmCm44dOyKwTSu0lT+34tNg5yxJAM7lISkQCPBxhJeLPaKzHXHg6Bk0q2gn31EYPjhbDgOrO6BRRU84OjnACUnIS4tCUmKcfG+ZcPGujfBUJ2RlJKFWlQoIj03B7GMJeKF6BCq4SVjr3CWx++cIkX1Lyz6neeE0cWBZhKXI3DRv1hTjxr8q6jfgVPAtLP/tFEKOXkVK2u0kiPCYVDz6dHvU6dUMAyrYY9D/7UPk3vNwk/nItIBWgTXQI7AaWraqJmuTPZYsOojZX+9B/VrlcDk8EX6+LjhxPFTC5sPRqmklbN10GmNeHinzsRf+88EL8l8/Ce0lonx599Ka6PZ6KQt90YrQUvwUFz6GH/ixFDXoLTcQKp0bSZ06ddTh3IzoxXJD0Apu6N1Uko2jgnjDxR3mBG64wT388MPiaU27J8xNXkY2YnsshMv4IDg+VE+TafNkgYm5/we4f9wT9p2qqXN69uypYvv3grkhE7jg+4WKih/z0mj136KGi2hYvpg7V7GII54erjxggp2z586XirmZOXMGpkloiowitRG+Ek4hkGd4gZsXwQhBPUEMQ0zRAlJ4D06ODiIEzZENKppfrAAZD4RHhIk37oHWrduoBXX//n3KAfjk008RFBiIVkIx161bFyOfe14xoRSmmhqlATdZ8q01qF8fQx/ujAea+8AmLhg+FXKR6WGD09c7IM3eFZkSg/cW56/S2QjEdstA5UqbUN7hMs6EPSgbcmVkpXnjVgV3BGSeRpRNDWRb26FO6m7UPBGOG1XK46RfZzSsvQflfS9g04GXUcX2PMIvHsFLn+7EpQunLBbczJ49G1u3bsHLY18WRs5N3rv8kXd+6tRJxEiIMjExRYC6LWrXri3zJ0WJrNNk3hDAEATbSjj2xo3rEvq0kxCmgzrH17echM8Dhc3IFKbnhGJwXp/8hjDOr6C2zD1676+MG4/+/fubZViqY8cOCGzXGY1b94ST6GQcnH3gYJODxIgTyMtMRLJs1F6+/ki2q45bYo/Q+EwcirXC+BaSdWqVqb715PjrcPepguRECflmZ8CjXHXUqdcY50OuwTr+NHaH2+FInDOerRENV29/nLoQhlkfTsJlMw5LvTBqJLx9qyCgTm/s2HYGJ6/FI8/XA5MfaYz+PeqJ/sgZO7cH4/Wpa1CnfV341yqPtV/vwKOPNBd714SdfKcd/R1xTiKBdrJn13K1wfbIDGFudsBa1q5PXgwU+0Rj8ifbsXbJ0wg7F4lnxy5GZvKvmPflDLRqFVjUslzsfy9zcMN4PMHNoEGDirw5sjYENwcOHPgT3JB2pXKfsePCwE1+jEZw07t3b9EbPFHkbxY8wJzADW3Sr18/fPDBB/cE3GSfi0KsABXfw8/D2s9Fk20z91xH/NAV8Dsj8Xun29lN3bt3R8uWLcsc3KjsD3s7zJ07T232rVrd96cw09TN8xzOsy+ENeneravS6TAktHX7dgEiIVi9erWm5y54EDU3SyUb4Z13piIyIlLdR/PmLeSawQgOCVYbEOcwxc9NmjZVwPw/H3woIMgZlcUTpyC0UqUAFYcOkfuIi48VL9tJ7lW0LcLapEo2GDeq//u/TzH25bEStqipYuhdu3VXGqeyYm4yMrIkw6sNxvSugMZ1q+F6ejVUscqV8JItjmRWRJa7+MyZkrllk4aaCYfhdjkblT0icKWbO3aGPAnX3GTU3JgGx+b7keGbgQs2veGQlypCz3hYRfvAKkM2ZT979Gr1MeKTArD39JNo57IV+67kYvzHy3Ap+LRFgxuGOp4bORI3hGmhmrh27ToIDg4WNjwcm7fGSWadsFoeDgoY29nZqP8S5FJA6yTMHp3C2+m2oiHJknIMMs/SRODfsJ6LiOsDcPbsBSUgnjhpgmSi1UH16jUwVLz4xx57XMCNeYWlGOoluOneayDuaxOENGFlvMsFICnPTxzkQ/BzSIKzZG5miIDarVwNEafXwKw9CQgLv4BRtWKRAQGB3vUlJOUo2T5ZiA07I/aUAhaSPUW7ZufZwz4rCt9e9oWD6MOeqhoH18qtcXD/LgE3k6v4MtMAACAASURBVHHpyjWzY25iYlKweUswflw4Q1jjHAR2ehytm/rCv21dTA/NwXtt/NDB83/al90XY/DlJ5uwbsVRPPhEG3z/yUC11P16LRWnY9KRIgkmE5t5wdvBBglZ8t3bWWF3TA66+9jgramrEZqchQUzB4hDvk00S8k4uHeWaL2oGe1QonW1sJPuCbiZMWMGBkpMvqjBDBF6m/nBDUNM1DkUVdeEm4VBS0G2h8xAoHiwxR3mAG74fN9++y0WL16sBIRbtmxRz1vcUVzNTeq3R5G+4hy8VwtoVGmkRY/kGXtgfTIGzgv74deVK/GlMCIMEU2ZMgVvSIimuKM4mhult5GFfuasT4S1eUnoTr8itV8MYxEkzP3ySxG2TVFZS3v27lM6hvvua1Vi5mb58uWYIhqnN//Q3JCJaSPiZm5AERHhkkLqosJLhvAr37GT/F3lgAAFgAh8OgjlHhMVjVsiPqY+h3OerI2j6NOSJeWbc2GPaIPGyqYUEFAFO0UETTu/+uqrhaawl4a54X1WqVIVAx55HB1EzJmUlIYKvuGol3MZoeubwaq6CDC7XsD5s/cLMBM2IcMeXW4eQNStAJyqIx60lyNqXb0i4sIbuFq5EtJyPZBkLQyQiI29cQ3xVuUlW8Ma3VvNxqkrjyI+uiLsrizAf1Yl4cy5C6JzCFFZQMUd5iIopuZmqGRgZkjYiKIZOgVk9tLSErFv/01s2nxF7Jorf2ejQk9k+ny8/QT8xikhPf8/HUSCmqzsFGHCs2XOuUsIyknE9S5YuuxnJQJn+LVcOT+s+f13kDGiRutZETKb0zB8I21b36fCUtR/OTi6wCvgPkTEpyJFvhf7bKEWki/DyV4cH0F83173R/MKHmjlHoqE+BiUryhhP9fGuHX1hGzQSXKNJBWWdnYrh+yMeMkMysXcEG90r5SN1v7Z2H00BBvW/YbQqxcRculyicoSFNfGdyssdfWqlOQY9zP8ynvh4oUl6NatFd5663YInOPlfRJaFmG1iwAUT3trDKvrDn/JeuIY/dEWXHJ1x6fDm6Ouqy2SBNR0Xh2G4XXcMaiGK/ydbx93PTkbXo62cMrLxsBhC9HnyQ54rndtEbyPlTIXZ8RRO4T1GzYLA926uGYo8vgyBzeVK1dWCyw1MIWlSHMCcVPhQx49elSBHA4ClgULFija3lixH05obmJMxS5J1kRBC5UG3LRp0wajRfxZloPUMtP1rl27hudEQ/Ljjz+qNF9mahV3FDdbKu6RpbCp5gn3Gfdr/qnkXouQFeSPV6IXY8/abXj99dfFU5yv2JuS1IwhuHlWFuJh4l2ytkRhQnVqZ7iJbZT07VeYBcAU2iKisBSy7969B6fPnJHFvy1+/OknBAUFqs2BYcCVAtBKMghuGJJ6++23FFAnaG/StInoayR7Q0IJ9FxCQi6KJ31WCYMXLVqMJKmfMUs2Gf5dJREIlxc2hyGp06dP4eq1q+Jp1xbAVl50J8FIFW3a4sVSp0KeuVq1qsKANlQagAWSFk4Gs7AQYGnBjSFbKjCwDRKTMuDjHo2KAcE4dywIjfeEwblSIg5WqY90Zzv4eFxH9/YzcOj7iUL/+yGjTgzqZu+EY5hobkTkedajJdyyY1E3Yx1iHWojxCoI/l7B6Bm4ADMWPIPUy4fg5e2BvZdysHnD74rFsGRws379WgmNjlA1lzi4LvJ9eYhQODCwtYSojsv/vyIhKmssWHhVMu4k+060OMy2I9vgLPM5RTb57CwrmRe2eOnFliqz6vSps5J5ly36ms8UYOI6yxDnOZlr69avV1mfFKOb0zCAm47t24kj0lKBNnvREHn41MDxyyFoVKcRrBy9cf3sbnjbpyAm3Q6zg70wqY3MSwcpOZAqYV+PhrBy8kFMfBQcYk/J9+YIF9/aEjlIElB0BTeS7PBThD8edj6JXRtX4aaApnq1qkrGKZndi2YFbhIS0hAaFo+GDSrImvq0sNQtRGf1vwy56cfj8GAVF2yPSMO8c4mY3toHD1RxliR54On98ehdwQG1XKzR0tcBn59OwA8Xk1BVgM6cDuUUGPr5SrLKqhrVwAMRV6Px+OhfRfD+IBZ9NgXrNu8Rh/M5LPhugTDrc2WNDbrrU63MwQ03fKXoF1q9sI2IoQAed+HCBanfcVg+xGrqYfl3ZBgMhakKWsAAbvghMl5c2lEacMMCTqxNwU23LAbrVzBFs0uXLqpGDLUbBAnMwilJKji1OmSA1koaKEWGhY08iVXHPvADXMaJ3qa/Nr0NEiTtdNDPGBE+H5fdU7Bi8XJVdIzp640bNy5RKvjVq1elFsyDeKh/v9thJqllQdGtscGQzkzRmvh4++AZybBKFHajqEEW5JNP/k/pE8j0PNinj5pXBDynTp8uMXOzYsUKybyaJJ7RG4ptIVhnuIuMDbU3dAK4wZw7e0Y2o1Txnr9AfdGydOrUUS2YQUHtES7MDgVy8Qnx6lyCfYZyqaMg+zNLnvXKlauqJs7HkonG4mITJkxET6kpVFZhKTosBDfdu3UTdnaA/CbZASH4XdPhszIXXv5x8HW7iZCbTXCtuRvqVduLquWPYsPx0bCR8HGbtG8khBWBmzE9kXa+CTI7n4dXxg1E2tdH3o3qSBYBaL32u5CZsB99hyTgjceqoWGXp3A0JAYfTHtPgZuSODXmwNywOOeCBd/hFamPRNDNzdpWiqAR/PKdc01lSnfwhTOSARWGz+dcUKJyxq8c7WUNEnKVGhxnZ3uZK2JHKd0w9MlqKnvQTUKZFyUF/DtxHBMlvF1DwlETJrymwv9kOgcMGChpweaXCs51sH69unjoof4C+FMlPCcammxXXEcl3FfVExX9BdidvgD3zMs4FuOA9TddMbrGLdhaS0HE2i0RniYh3oQIkRTbwCM7EbauFZCZJABdWEcnqwzsjrDC2gspiFs2Ht36P40uPR/EzeCdss58qlLqzVVQTDaIrDXnnKGieaiwLtNPxCFawpgx6RLyq+CEV5t4IjYjB8O2i+C4e3l4Sfhph4Cfd4/EIqi8SLEl9Bko/z0WnYFKLrboWskJrk52OLbqJD5auBU5sYsRfcMOL74zExOfaYvOnTur/assCkaWObghWKEQsqgS/wQpXKy5YTeUDJC/qwR4ScHNqFGjxNtepOq3sLAe053v5iCw4TXphRs2qtKmgjNcSODIRZIZaa+99prK2jE2so5FgMyN78HnYO0jRQ20jH03saHXW5jfKx7z580XoePta5cmFZxea/fu3WSDT0CTRo0F6PRRwIAhmoLMoKOwGP+RInbtpcBh586d/qwVYurW+VEzw+Tll19R9UMmvz5JbRbMODl46FCpsqXWrFmjxN8UyrPoWjupxcH5XqdOXQVQWKiP1WSvCSPDCqvMWGEIy1OAUIN6DeBTzlfYmitKX1NfWJldkr5//boIHOUa7UUwHCw6HIr2A6RGzhcCjKgVYFbVlClT8YDoz8oqFZw6B4qg+Y2T4eotwLVctQD47kqQEJS0ZJDCaJUuJeJGri9uNPVB1w4zkBrri+2nxqCq9RHUzt4hwKYFkrxc0fzCPoRWrIfz5Rsiw8YFfqFJqLQrF/Vmzsf7888jIWIAXujtg7PWgbh08Rz+O2OmRYObb775BpMnvy7fZwU1Z6gn4aCDwHdLITEZwOuix2EdpiVLlkqNmsnYsClZwieOAoSsEBMXi0mv9UDX7g2x6rdVSlBPppsOEuvhjJAq4WSDCKKS5JtiOOvz2XNkLj1mdpobxdzIt3Dy5EnFZPfp/QDKi+1irQJQw1vakEidmmx3mV+Xb8Ar+yoWXXWW+jXA45VuwUpAjJ1vU/kmpZbNrYto3CwQO87Jxn7tGAKcpVaQgxRBLFdVsqRicXrzIjxV3xpBj72JsEtScPPSYXz2xTyzBjdM+2fxT+r0KBfgGv1LeB7O3EzA0FqueHlvlCrEx7BTlICdDaGpmCtFXHPE5sO23UKKFAb6JMgXC4OTsUgYnI/a+OChai6IzsjFwlDg+McL8MNXY6WEx8OITOqEqe8/hA5NPcUp76w0o8xyu9ujzMHN3b7hsr5eScENkS89ZoIDbiT0ICZOnKjATmkHvUxONtYiyF/Vt7TghuFC6l+YScP6BtxkWcSJ4a6C4u3U+Uekvs0Z+Gx4StPj3EqIxZFx38M/Tujwn0bAy/l/6X2lATdKYPncSFm4eoumZLcCAgQv99/fQ1H1DPkY+uNck0X/a9kgJrz2qkqbLqxWkiotLvoECoZXrvxNvIl3VP0QXo8gqbTghoJiXnPAwwOUroHtIGbI5kxNzYkTx5VN6Y1zo2Htmvffn6bq+TQSoJ+clCzs1O2wAQuvcQMis6RSyuW+neS+GZr5QooOEsT1lLlC9pNhibfeertMwQ1tXVPEy/dLBhwZgV379mBg5wfwgk1bhPRwR5JLFuyjM1HxcBpcLuQi4KUtOOXXFOkXs+GXF4Zrzm1Re2Ei7LtsQ7jHfUhIayBF/yQNnNWWpV5GubVRaNZoF1ZJjZJ6KUlIs3ZClFMzXLl41uLBDen6taK5aSqi9tWr16jU7ylSaM9FWnEwBEJwzLAkGb5d8i1s3LQOD/buj2XLo3FZ9BRuLo5qDgx4uJKUDPAQEBQu34YUo2PNJHEi2XZgphR3fFYADhn2Xbt2Kibxdiq4eYKbTsIENG7YQOmP9opOrlXbjhg4ZDS8bGPkm4lV9aB8/KshWerVvL3jJtq4R2JQA1fcRE3cCL2M/p0b4EpkjhTDDIcjBAhmRUsYRqqH20oKeYqtFO+Tmjh21zCkczOci7KDd84llYo/WxIQzJm5YSscOomcLz9IZfbWwor7DhiLqQMkG1PWpjSpMnzoVjrWXk9VYaphAnKG1nbDVGFsqkpmlJe9DXZHpqG2pz3ukzBV54q369RxfL1FSmr074X3Jz+NFs2HYvb3B7H0x2FwkPpVXbv10MGNph31LhxUUnBDHQwXCCJghk4++ugjbJcMm65duyqwwKybkgyCD+qVOPkYRso/SgtuyNqwgB9/g14PBcoGbQZ7P/F3DcUU4wYsgW0TqVXzTpciHyNSCoE9MnwwntpZDs99+S7EzfnLOaUFN9z0h4vmhuEcgp31GzYq4W/Lli1ESNhGNgEvVRNk06Yt+E281Q8+mCbPlyvgxnjVA37QHAQ1GzZuVGEW1pZh6IjjboAbam7el0rS/5n2PhJED8G00YYNG+En0fQQANevz1Af2UtrSfOOVM9Cz5waCC6aVatWEw++vBLb8365QRkaj7KSsgonSKo5QRxFpEeOHFY9sd54480yBzcGzU03yS47cu4kvFdcw47EC3DsUB0dWwbB1csdGVK6vtLlq7gv7DTCk/2R3vgSzvh1RxZc0WBVGK629UWS0Nm2knprJ5sJQ7zbdx9GyNVf8G37bjiR0Qy+FdfjIroh19FPmJvzFg9uWLNm7drf8aKE3Dm/IyOlyKGzE8gC9pTaRTXFmWJVYvaNukXmLDAIHhKyOnLkOJavuCqNHV0x4KFKUt35loAaKMaG3zPn9XwB/f7l/ZVTkyPsD1uAULjOkBeLV5oruKHonpobMl1si7Bx+wHERlxS+rZ2outwl0KFVhI2jcx0x4Ir3ni9vZ9q5Hv+7ElUdIpFgxYdseeolDOwkhYMUpLA2kZ0SzIXjxzaj6VrdsuG/y5ebSqFAR3KyXcaiqruqTh5+pzKrjRncKPq3PxRhDYyPAxj3v0vTm3fgM4d22HMK+NUNIUjUYrgPLoxQsJRIiMRoNyvqpTLEKHxwuAkxAlL83Ljv1atp352+OCBcmwdTBNGcM/64/Ct4YMpYzsrHRnb8Jglc0Ov99dff1WMgJbOn/SeW7Vq9RdxEWnUMyLuLG45HlLlJREalhTc5J8chp2c9CjFvuxLRHBDkR5pU62DtDTZn8mTJ6uQUcFxN8BNwQrFfGcGkTLf2TCp8/JIvwFwf2ITPD7qDXQqvHaQ0pYIlf5wpwfwxoEGcP+6H2xaV7zr4MZQoZibPOdNiICc7dt3qDYG9UU/RDEwaXdWZ+3Xt6+i4/OHrQwtFgyps/O+mq+YHUcnRzSTVOyuQtvfbXDznsSWDdlSpM3PicdHgTJDji4uruIttRJgVU3KuF9BH9H6+EkoigwNwTLnMqsXn5I5xcWWYVtWICYgZc+sa3LMJAmjvTDqBRE3bv2zcOa9AjesUNy2S3v4nk6Ga0I2ltlcwMY169V9Ul9Vo14rdG11FoEOC3Hi9zeRlFkJMVVykORvg1qr4xHW2hVZ0k/KwcZeaajoGKxZswtvTLLHE+0r4caCFshufgEn7B+Dq12OYi4sPSxFcMNsqeHC2HK+UiTOekYbBMyflFo3ZG26de0mvbXKic2y0Us2CorT09Li8fHM4wi7kY3nn60BZ1fWdrJTwObkyVNY+MMPAqgbSwj0uhK4ExQxrJUkRf7Y5sPcwU2QZCG2btUCOXbijHn44vi+Vdixc7f6lho0qI+gFk0QbF0Fq2MqY1o7b8mRl3pBqeHIThH+pnEQ9p+8hEoOUjTWTpogi+X2SQbi778uh3fQEFjVfwjvda8oPZMScevKYZT3Zi+vM2YPbvJXKA6R9nAbwnPRLkmea/ZnyqHi/jVu9Cj4Ng7EgF1JaCjNbas6W6FPgDBZUsX5p0spCEvNxsR84IZ7wdhRz6Pj8Bdxq+IAxC/aIM5MLn759QXUCvA0b3DDkAGLQVEJTW+ysLAAvQqmspIay5+RwmtQq1B4G/s74QIXBrYmKO64m+DG8NunRYjKDKGNwgrw+Zid8NBDD6kwFjUd+UNABCxbt24Fu7RSX8J+RKaeoyzAjeGe+a4Icr774XsEpDlhYmIgjozwxX092qvKunyffGcEDBR7HxJNClNImdkz/q1JGF2rHxImr4PbhiclvPDXUtp3g7kp2H6BLAbtSEZkl4h/z0nDwOuyeHcRmrqnhKzIaDBkaLA1QzqRkTdVfP6kgAs222Ooi+Xrn3xyiCpoZmhWeLeYG4IbaigogKXonKCFdiTwOiCFKwnOyPzVqlUTe/fsEwbKQ7E3BJxewsL4SruFo0ePKOBy4sRJKSx4SDFVrIuzcOEPSnjKb2X37l3KoeDz3itwM3DQQHRpFQSfndEIa+IEK39X5KVn4/KVK9iwbQ+s4q9hxaR4obYr4VDmENSUrC/PdBukVJSMi3nhuNZXMlTcMnFSWIcdwiaSZBs+bBRGDFiKU5EN4LxVinje8sOxlo2kM7GVygT7t4AbZgZWrFBRNVwNDb0uISU31aRx85atao1gyxd7qedEJ5BsXd060qLiZooI0T0FALlIksY50ehES9hqswjOrwgI6qkypphdN3PGfyUFuLsApvUCbhItA9yw/YII8K2dA5ARd0V0adI0U5wg9n7auWM7rogI3b/vJKmK7Yj7vcPke6sKF/dyyEiJRr2mQTh44iJsJTPq0rUb6pvMkpDwk48NwracZnBOj8KQQElckUznm1cOiKPhqjIrzZ25IbhpzAKOwuTNP5so4mFHNPQSQZIMOl9fz/tSgPbvqFK3EVJrt8Wkh7ugR8uGiLF2QVU3O6y7CcSlZeBB7wzVq5CJKufFeZs25U3kSgLAGcnM8txzDFuOhuHX2Y9I81FpsGnOzA378VCcRBpVS58ndrfmsUR8hsEMK6bgFneQXjXQ9sU5tyzAjeH36TmwESJ/gyCAoQQWLeQmRKBgYKnomfcVtoEb3e3sB+OjLMGN4RfpuYS+vw7RSw5iWtMzOHv8NBzEG6cImTbmPYeFSTaB3DPZCDJMAaIjSXl3BzKOSBGtVXcWUiwLcGO4XzIFfO9nxL7zhY1hewJqVNhgMiCgsrIzR4JkHLFcfZUqVVSjPYaFLkjvqJ9X/CJhgFFKy2JIG7+b4IbMDbOf+O45t+mRKyG9gJwa0i+I1binSa8wHx9vVfOGOhw+EwFx/Xr1MW/+PNWegdkt7aXFQhNhRdjx/Jg4Bp+KdkplYkmWCNPK2YvqXoKbniLCTJffTpTqxDbZtxMEyIz5ZYfANfE0Gt6/Hx8vrIGvv72BSpV9pcCar7AJjhh6rhqW+1zAWclKcZO6JGTO2rQNgrNjrrA97+DEKWH/wkWcHFIXtyQ1Nau8o1Qm/veAG2pi+M1R06SK3UgaFEE614aqklW6RUDOnDlfqHUkQkKaZK0dpTcPsxKlgykWCbvH75TfbJ8+vRVwXyTAhnOQonnOdWbosbwEwba5Mzdsv9C+gzQOlTmYmhwjtrpdc4UA0NnND1dFGzLnghX8rq1F6oWdsHaQCtoCClnuwcfXD1ExcQi/IS1ERLzfpEkjaefQRmJ6jnj/uAuG1khFQymmmZYr7yAjSkJcElmQhrqWAG6aNG6EF16bgDNRGWglfZ7yjxiZdj8evI4VK1fDLewEfDPEwTp/EbVrVhd2zFMKJUqXedERhl88LUDSVjHPrJPEveDpnVHoJVlT5cTJPS7dwttJ1lUbP/aRMuOwFJtmMqRCJsZUFk5+AzIMs27dOtVB2TAYs2N146KaHRbc/hkOIjtS3FGW4OYvk4Wlv6WuD9EtvWyyBFysSOFTIMgNsKhxL8AN7yFl6ErYNvWHw2tthe2IVE0lmaFBwMoJyuwNslD57zm2z4/SoqE+nEe2vOMx7ga4eUwyg/j7d9ROYpVf2dQ3SW2bo0eOqjAQQQKzS6h1Yadkbg7ULrB2DMEAQQYBDIEN68eMEwYk9Y8uzLx5/tthYRAvhlwqcSo4NTfvvvOOYm7Yx4f3YAjVkiVjRWIPKa3/iZQSsJaidYMk5Z+bDYWRvG+mpVeWpp9MFWeZBLI/vG+CNWbJsLbJE4MHK6Cprit2IOB8WwSove9B48yH5VsLah8ofWjSpLPy7Vcu0lWpQByNchnBsK7mg0YNVmHr/nEIi0wV9umWFPxLQrr07mkshfpu2CTCtZwXqsoz2gsgSpRISu3Kh6QvzRbs3fGoXFNqZtg0gr3oJWydHRR4myXpt5acCk72ec2a1aqmE78zAhq+W0OIvrKAdVbgniAlBhqKk/TAA72U7iMhIVFqJCVLReuKirGkXqdq1SpqfVHzX64xU3qNtRGBOoursngkr6sKR0ro6nPJtjPHCsWGOjdtRAzbqlVLpEl9H6s/gA2r0VnbOsHRzR+hMUlYdsUOw6onSFPWeFwPjVRzkVW+mWpPIOnt7asqg7NtRY70TrqS5IhVoS54vh4rPlsjMy0ONiIydpR6LmfOnMWX874ya82NqcaZ/I5zhEbdcTMDviLwn3k2DaPqO6ONJAocld57dMYiwiNUbzPqmRqIjpDaHcNeQB3OyJ23ML6xJzwkbbyBl52IuXPhZieA2pzBDZkbFopjHRUttV8Wikqb1YjzgxsagPH1wjQ3/DdOzvwbHQVQjEkXd9wrcFPc+zJ2/L0AN3lS0yC60Wy4z+0Lh+41NN12Xlwaopp9Ca+Vj8Ou+Z0andKCm6dFB6RYLfG2CtZO4iLNBfrTz2bL4l5BZScZGlWySaWhrjJr+bFaK4WUTKcmO8IwB8Hl/ULbs6OwYZAJYjYKM6ZK2n6BjN2HkvL40UcfqhBrwflsJRsXU84nSquRRwc9qrKe0gXw8t4MGw/DErxPzvMcATbUG/HZXhVvi01Bm0njO4aw1JDzPAQgj5W09m5Sg6Ys69wQbFEX0qWriASlzk3+wYZ66dneaFD1R1T124bNR2bL5pElbMH/wJ0k8UM6+6jnVx3T5eVkZbmjae0v4e1+AduOfiIbSarYQtSM8t6cJKRHvdLUqe9YNLhhmJed4ceOGWO0jAHnBRmXD6XcAdmdunXrqPnMWU58S1vergNmd3uuy7zh/46NjcH0j/+LV155WWUEquPkpXGuMVvqgw8/FDnBQ2ZZ56aDpMv3kNpfzKA0aOYM85GhTmfpM7Ve6qzsuWmH91plysyzViErGuzPtUFOyJOD2Z9LtUSRqPqii7a4lGSDN5ulI1UYIR7PNYT2On78mLKnOQuKCwM3BvtdiM/Cq/ujsaibP9wlNKxl7IpIx6xT8VjSrbzo6f56jlmDm/3796uKvZ9JFUwtxY3o3TLtOb/mhnVyyP4UVYmWmhYt7FBRL0QHN3+1UOau60iauBFea57QXN8mfXUwUmbugffaJ2ElVWkLjtKCmyelHP3SpUtVSMnY4CJOcEvPlxu7lkHdED0OghCGgAoOhkrJLDLurEUcX/B81kBiHHrDhg1GtWe8JlmIESNGKK1TdWHCcpniUsjgOUz5ZmYbhft+IjjOr2tjSIj0MLOZuFGaGqWpUMzvku/hq6++Ur9l7DuV7RV2aY8h11pEng6TZBNh3+HCR55sOnapfZFr2x859s/95RyCuhOileommYj0HEvixJhDET+WaKCYk3PHWHV3MjmbhaFkmxAylQT1RSVeMESzfNlSzJs3T7IMNyiAnP8cMoGsecV6J+PHjy/qNf2j/p1znyU4pkx5WxyUXkbnop1ssK/8LEX8HK3xbp9akPIsRQ6e88yPZ9DA3wWvdqsm2Wf/y7qk/fiOKCMguLkbe1BRN3S32i/k/x0t4GZRSBI2habhu85+Rd3in/8+50wCzgko+rzdnS1SzBrcUFfCBpbcOLQMfmQMJVF7YxhceAlcCmvdwEWcIKoklUoL3ldpwA0/LKZ936tRWuZGS/uF5I92IWPzZfhsHqb5sRInbETO1Th4LX/M6DmlATdcQIYPH67YQFOhOwrTmTpPIEKdgZbBrDGmxXKzMHZdgh62ASkpuGHKNzcpnm9qcJ7zNzgHtY4Pxcvmva+XkvnGBhurEnyUNbj55ZdfCmkBImG4eAGirj+JdqG7xkeLkXNqAW5bRbx5Z980ri383iwZ3JBtO3bsGH6Q7CZTgy1MGP6nVlHroACZYVqCaGODhULNGdx8+umnKuvW2JByLQj67x580K8uutXT1pMsSfpJdZyxF18PbYyWlf+a6szfYNILU5rNGdww25eaSWb093omlwAAFwhJREFUmhpj90ajibc9nq1XtGTCcI1ndtxCr8rOqt9UwWHW4IaAhGJg/rcoj4IPTk+E4SsKVf+uUVJwQzRN7QwXG2Oef1k8T2nBDTdGapN4z2zrYMzu8Y8tg62Ellxf15jCLrUPYvsthqMsHs7P33fXwQ11KD2lYBw37eeff16JJwsOdqFnxpmpDd/YTbHnFTOtCGKMjdKCGzI/TOtnEUZT2W8E6ATqbOGhdZDFog3eET2PsUGPkpqosgI3/LZ5fb4T1qswCiazdksVsHECbgTYWWv0+jKl+3r6RwJuNkoI4M4O9MxAZFVTSwY3fGcs5EcGkmXqjQ2yZcxI1epUkd1g7S2GdfnNWxK44R7TTsJR1CyyQCnnZcFxNiIJI386hRWiBfSXbupaxr7LcXh95XmsebGVCN5vJyTkH8wUpXjbnMHNSOk8z7WV9dlatGhxxzOmCyocuDESk5t7ob2/tvZCCQIKB22OxCypYdVIQFHBYdbgRsvE+acdU1Jww8nBc1lAjn9Y6ZcLflmO0oIbFuxjCwbW3mG6HwsRkp78c1FIkGJXNaQ307onYdc6QNOj5FxLQFTzufA9MBK2tY1nepWGuaGQmV4S2RVurPwQSaPn703CDZ/PoLUxp4ExpB2M1RPig5cW3FBLxpATF16CeG4s9JAN2XB8FnrLTP1n7ywtgzozFo4k48NF/e8CN2wpQV0SKXpunGTN/lKZO/VtETgdE6CinV1AqjRtzBP9jstCo8/1bwA3DB0RtLICNEEvW7yQ2TZkgdJxZCiVIVqtXZXJhJPxIkPJMgOWBm4IAtkKhMkGdDIHi8g+f22xL3ZcxebzMfj1+TtDz6a+uffXXsSl6FQseKqp0UMsAdyQsWHInIkNDG8yJKmy7f4YhyWD6r/SZ2p+Rz9pWWGtZXnCtjAJYQUnqnMK6m14AbMGN2x6Sc+qoLDLlGW4ODJ+zsyb/IPnF9WbynA8Nypeh5kiJRklBTek9bjB9urVS8WzuRkyvZANPbkglQUbVVpww7AUdVFc6BjmoTaKix83qFFjRqPOTWekjtsIj+3Dxeu+02MxZt+M34OR9N52+OwYIR14jZ9TGnBjCEsRLLDWB71aMjScMwwrcZFnM1F6vdz4tQxmk3BRZNjIVCXp0oIbhqVYcI8MDv/75Zdfqu+CLA7BALUqBDV8F1xgtAy+OwImhiVMadrKmrnhfRNI8pm46VJ7w8W+ktRCmjBhksylzkDG0NuhJVutGg6JHST1ldzd/oDDyH8tuKHmhtoghqcYqjfoCgnm2UeMdW0I4Bnq1JKwQUMyxMV5zjCWoUFiQQObc1iKQIbsKL8HrgGbNm1SIO7VV18V/V1XjF5+ARXcHfF2r+paPjF1zGNfH0XbGl4Y19X4OZYAbujUMixFFpBrE+cI92KCnoelCekvca7Ydj0B3wTdGZYzZchPREh8KTELs9uVM3qIWYMbfpjc8ClSK9iryNjTGh6W8XvDYKGzMX9kC2i5BmlXLrJsVUCvprijNOCGG6NBhEfgwcWIz8L75oZOoKN149Jy36UFN2y/ULBCMQswcWJvPbIL72Z3Ru+6nWH7Q18R4N0ZGjB2j/FDVwiosYPH/H4mH6E04IbtFsjMLFmy5E+GiXOERQ+ZZUfWjIXK+BxkSbQMAoqXJf2bsXNTm0RpwQ1tyg2Ki61hMPOKc4T3z99lFWKCNkMtnqLunSwPNzjawtS4F+CGmh4+Gxk1DuphKL5euuw3tGlVG9/NPglbt5+lxkhgUY90+99zr0mdd2mkp/Q2NY2e829gbghumHHKRAsOZsIRHNPW/PYpKC9Y9LQoAxNIc43Mr2sseI45gxuyUu9JmxM6OBxcLwi4Vyxfiuq16iKt3XhM6lsPfVvcGbIyZruY5Ez0nXsIcwc3RtMA41oTSwE3jaSIHx1EDtZkYyNNfse+UmbCv9MAdO/TDyODjLN9BW3HhprP74pCb9HbDKh+p96Gx5s1uKFHSWNx8eWmU9SgmJJaifxF/Jg2y02HKa/FATcENiXpLF4acGPozZH/OenZctOlx8QFmZ4FmRwKrUvKLhmuXxbgxnDtM5fPw3rYOiwL3YmVFcPQPaiTAhX8AEx5fCwrG9P5OzgObACXl9uafN13A9yQKWAKcv7BQmVk0DiHCCK50NHWDA8a+kcZuynqbfgxE2iYGmUBbgy/xQ2MImmG3OgMUEdBz7woMTSZHjJV1BeYGvcK3DATjKxl/hEZGY2tW6ahaY3VePnt6hJeqSvP+aS6Z5NziBfIXCU7+XTAfYf8H+Ps378F3HANNaYDYz0whpHJVJNp5TfFmjWFFf0kOOI7ojfO+WVqmDu4eVcqgdMe+UeiFPKc8vlC/HLdE24HP0fHts0xeMhQFc4tbC7uvhSLV5adxZ4JQXCQ+jbGhiWCG8Nzct9dJg76F9//jMhzR8BUe7LNDFkVViT3VloO+qyPwFJJAa/hfmfGrEWAG1YopjeqJSxDb4IUa/46NywaR4ElP0wtKbj82AlqKLAzJjYtCmDdbXCT//fIZDE8wdRBxsvZloJsD2lT3qup1GZT91yW4AYxWUjqvgDpczpjT8w5LPx2gfKCyCpwgaTHWE96OLHCMlOQ1bgk/Vb6LJDO4cNgU9U0fVlW4Ia3QADGqpgEORRjsqgdU6wpPmXHbdqYNmd6tGEQULBtAVOq/w5ww9+kTXnvLDhIRofhN2oGCAQ4P2hnzhEDwGcGItPciwq//Z3g5rYtP0B28hls2/ecsGtzVXNGfsdcHBnO4rvgc/3F+Ul5Vs4TAaLLHJPv498OblhdmMwkPWuuK2ztQkE8nafAwEA1Z6jVyR/ip0SA/8b/FsYgWyK44UT66UQCtp68hqerxmGOrA3BF0MUi0XGkbZijSvOxfwA8T/rQhCRkI7Zj0vLBRPDksENH/m8JDt+fiwRwxyv4tfFP2KntLehronrOEtucG3ifKsoRVENY1tkBr45G4evO5WHY4H6NoZjzJ65Ibj57bffNFXcNQZuCALI/BBBFgZuaChOVAO44QfKuH9xR1mCG8O9UGtBgEOGgboJslOGwm5cfOiRUwNSFJgrS3CTsekSEsetR7lTo1lMVw2Ge1hXhffNdGuCSFZWpri378D+6J1XHwFLIuGw/c6WC/nfQ1mBG84VggRqFAgcOTgfKJQjO8I/1IEZqrzS4yWAoKiaFCwXuL8D3HCjJpPHTcqwybMyN5sZ8t65kRHUcI5QvEsxMhlBMjZ8D4WFsf52cJMk4mj7zqKdud34lWCTc57Pxeel98fnovPTo0dPVUCxSS3R5jgT4DyugxsTzA0BMPU2bMrL98+1j5ssv82d0puLzqBhXaHonqwOATPPK6wcAQ1uqeDmiW+OoW4FV0ztfTu0wuxWzkWGivm9cT2jzdiCgmvDg9KqYsr+HPRtFoBn2pguCGvp4ObDY3G4lJyDrzvcTp2nY8W11CBp4PzjesQ1ivvXgP4PYrldY7iJHd9peGeWlEWAGxqAYSkyMdQTFJYOTsNQiEv9AwuSGQYzQih25SZqLCxlADOPPWa8pso/EdwUvCduuPS62IqBCxO9MKr9CQzJKJgaZQluEl/bgDzxWDzmi6jTxOC74T1zg1386zI8EhKAxs2aoM7Xw1DeXbrtmhhlBW4IGDkPCBZM9TLjJkAmh8fQzlzoCYy5wJmqjcHHKMuwFNkXbkr5tWb5TUcxPXU5vG+CS94rWTR6mXyGwujhvxXc5Eo3vSQJD7h+b7RWDZ+RYm4+C+fR4iXLJQgViW8/y0ECZgrTZromzr+duWHpCW7GXDONDTqDXFPI0hyUpqyc56xtwxAtw/+FOU6WCG4SpInroK+OYIoAm/a1jK9NZCNoM2rG1q9fJ61mYpHR9nm8078u7g9sbHI9s3RwM2ZPtGqb8EID42w89wHajQV3uX8d2L0Tcc7l8MKYV/DqYEkMMDHMmrlhejHV19RGUDBZGLhh3JMGIk1N8aVhsP8Ss3oIAEyBG16btU3+DI8UF9HkO/5eMDdF3R6RMRctZi+RxWF4xdgoS3AT0/4bOD3RGM4vti7qdv/894xOP+Ht5BX4Nfccln+32GTmUVmBG84BFj2jHkfr4Nxi2JRzk2CSqaPGRlmCG8awCVR4/1oGwQ71RGxLQq+c84QhQmPjbwU3WSKeThkLeJ6QWzPtweW/74TYb3Hz8hT0e9JbMlxewciRI4w+178Z3PD9k+kjkGe2nJZB9o8iW7IV9K4pwDeVYWeJ4OaIZPoMX3gce19rZ7RWjTEbrjoQghe+2w+//TMkzD0U48a/atTUlgxuotNzMXhLJOZ2KIdaJrQzBY1y/mY8npo2F0nrv0HHLl1UU1Fj7LJZgxt6yRTEMWW3ME/BECYgwGEc2VT9BS0fcWmP+SeAG8Mz0JtlPJibHzMnCo6yAjc5oYmIe3gxPL55CHZNtPXnyr0Qg8RhK+G25FFMmj8Nq39eqUJvxsqRlxW4oVfaRT4mtuvQOhi+osCSAJyaFy76hkyL/NcoK3DDTYehtKlTp94hyDX1DGQ7OCeY8sp+bFu2bFEhCWOb1d8KblLflLigsDcuX2t9HSImfkUaWbtg++4+GPz4ABUy5HspOP7N4IagluCGDF5BUb0pQzPsQtE62UFmE3He0QkwltRgieDms61Xceh6PH4Y3kzzXJy++ToikzLxqF84etzfW2k/2em64LBkcLP/VrrUt4nHYhEG20s/OC1j261sLAoFXnO/igck/b53335Gi4iaNbjRYoh/2jElBTfMXOBGyXTvuzmoUeCGzX5bFG7lH4wPc2NkdgA9+eIOU+0XsldfRMrb2+BxXHsriYxvTyBTYtpue4ar26BXycwqppsXHBSTUrynlanIfz51A6zJQB0XQ52GwUwpxsnJeGktAUDQzU2C2XncJKj5Ykl6goWCg1oFMmilab/AazPLJf8g+GfmCusLaR1kmli3g5scx6BBg5Swz1iVYoY1KfRjPSBTo7S9pSguZyE5irb/MpKlqrUr58MzWh9NwlhSvsHtPTm+r9LlGMoVsLBY/kH9F/VSllyhmNoxZooyCSH/4FrAf2MIQOsgaCewYYifw9AqhsL7goPfF4swco6Z0zD0liLoL1jUsvP/HcDjbatjVFuNFbLlwe+bvhev92mIRxp5qNIStAfDxwUdNoaxOPfNuUIx5wGLiLL4bP4x82K2NL7Nw5v1jWc8GZsfU09nwsfJBmNr2iimkM4ss4WNrctM5iDYzl+E9W7NOSuh4//XBexuXdWMr1NScENvh6JIU2GNkpqEITd+VFxsCuqKGL5iKIV1HAwC2uL8DjcOev5z5sz5s+uwlbSlb7wmGSnhcbj8fGWwK7hqGWxiKEZOzmm+OB7Rmcm48VQluNg5qclMsSP1JIz/G6YZNylmJXHTLQm4YeiSDA3741AwTiEbbURxGxdwPgs1KPkbSBq7dXqs3CQIFLjxkzZlCJQiTdqUGzbBIwe1DdSCkS0g8ClK6G3s9+glsz0B213kH9SX0QMncNL6KVL8zJDvzJkzVaiWRQypazOmv+DcYRiirNov0P5MWTf8juHZPN2T0KDyGzh28WWkZd7ZIsOYjcp53UKtCu/i8IW3kJVTQb1DOg2sGl1wYaROhy0EqEWy1MaZBDAE3gUrbbN3EkNTxWlsyWswbM9K6mTIOYeokWCtpIKDQnWWUCjO9Yuz7pTVsZwvLNxJsJ+/YnOOrRMm70jDk7Wz0MRP2yadYe0s5yRjdKNc1PSSxq9SIZprO+dcwWrQBDdsrcL1w1wbZ/I747pZkCV9/2gcWvjYo09VbXXO+G7fPBiDngHO6FTRSa3NXBsYkSl4bUpNuBdw3c5fRfpuzQ8d3BSwZEnBDUMhBAqFdS8v6UszZJQU3LC5yTIUwU1aa8G6/PfAjb3gZptrlSeN0Xrgeko0Ntw4Cpu8wkttqw1Z6j+MrvsAjidcxa6w07CRjs4EC7w/A0DI/7s8hwwXMziKO0hlMozEhcSgweLvUHBOO/HvCmuyavg9wzmGon20LRd9/iEYKzj4XlkZ1hgtreUZ6PnROyp4bd4H74EfutbBZ+SzGs4x1PAxZmsCMy4uhaW5l4a5od3ILFLsnH9+tmhWEZPH1cLTLx1FclKypkfr0qEaRg4LUOdkpKeqd8l5ZMgkzH8R2o3MHTPKtNTQKngD5tAVnGwY313B92qwi7F5asrQBec25wW/E2PfiqG/maneU5pe5t900OOPP64cnfxzsUrNhmjSazj2L/1YUpijNN1ZzQatUK/TQOxZ9AHiExLVWkab5XfUDBfi+2BqPeciM63KepRFV3CyvqzzVXD/svsjFJW/E3pRz8dz6A9n/9E93dT+xetw7WO1bDL5d3vo4OYugRtOCq0NQov7Eg1MgTHPnh8WF6OSsAmm7iNbTc08yVzR1kOE1ynJOcW1gzkfz8XW1CbN59LK2vBYY/PBoFsraCP+PQFCYYXKSgNu+Ht8roKbpJUV546t/D2zHLXF6nmONE9BXu7/yj6Yei7+Lud+SQp18lxzADdlOWcKW1P4b1xTtBRN/ad9k8bnonwDMgczs7JhJXNGy+Czy0xEZnbOn+eU1VzUcj/5jykLcGNq/+KXW9zQTsFzippr/Ibv5v5lsJUObu4SuCnuBNWP1y3wT7FAacHNP+U5inMf5gBuivM8+rH/HguUBbixROvp4EYHN5Y4r/VnKoYF/s3ghhsFY/760C1gLhbQwY22N6WDGx3caJsp+lEWawEd3OjgxmIntwU+mA5utL1UHdzo4EbbTNGPslgL6OBGBzcWO7kt8MF0cKPtpergRgc32maKfpTFWkAHNzq4sdjJbYEPpoMbbS9VBzc6uNE2U/SjLNYCOrjRwY3FTm4LfDAd3Gh7qTq40cGNtpmiH2WxFtDBjQ5uLHZyW+CD6eBG20vVwY0ObrTNFP0oi7WADm50cGOxk9sCH0wHN9peqg5udHCjbaboR1msBXRwo4Mbi53cFvhgOrjR9lJ1cKODG20zRT/KYi2ggxsd3Fjs5LbAB9PBjbaXqoMbHdxomyn6URZrAR3c6ODGYie3BT6YDm60vVQd3OjgRttM0Y+yWAvo4EYHNxY7uS3wwXRwo+2l6uBGBzfaZop+lMVaQAc3Orix2MltgQ+mgxttL1UHNybAzfjx4zFz5kxtVtSP0i1gxhbQwY0Obsx4+v7rbl0HN9peuQ5udHCjbaboR1msBXRwo4Mbi53cFvhgOrjR9lJ1cKODG20zRT/KYi2ggxsd3Fjs5LbAB9PBjbaXqoMbHdxomyn6URZrAR3c6ODGYie3BT6YDm60vVQd3OjgRttM0Y+yWAvo4EYHNxY7uS3wwXRwo+2l6uDGBLgZN24cZs2apc2K+lG6BczYAgZw07lzZ2zbts2Mn0T7rZ84cQLNmzcHN4pvvvlG+4n6kboF/mYLDB8+HN9//z22bt2KLl26/M1388/9eR3cFHg3O3fuRKdOnTB69GjMnj37n/vm9DvTLXCXLHDt2jVUq1YNbdq0wf79++/SVf/Zlzl27BhatGiBIUOG4Mcff/xn36x+d7oF8llg8ODBWLJkCTZt2oTu3bvrtjFhAR3cFDBMfHw8NmzYgIYNG6JRo0b6xNEtYPEWSE1NxcqVK1GxYkWQvfk3jKSkJKxbtw61atVSIEcfugXMxQJ0QC5fvoyePXvC19fXXG77nt+nDm7uucn1H9QtoFtAt4BuAd0CugXK0gI6uClL6+rX1i2gW0C3gG4B3QK6Be65BXRwc89Nrv+gbgHdAroFdAvoFtAtUJYW0MFNWVpXv7ZuAd0CugV0C+gW0C1wzy2gg5t7bnL9B3UL6BbQLaBbQLeAboGytIAObsrSuvq1dQvoFtAtoFtAt4BugXtugf8HyeuDoepkWgQAAAAASUVORK5CYII=;" vertex="1" parent="1">
          <mxGeometry x="1310" y="1180" width="567" height="306" as="geometry" />
        </mxCell>
        <mxCell id="CHFiDNSgDXIeCjRcxI2d-76" value="" style="rounded=0;whiteSpace=wrap;html=1;fillColor=#647687;fontColor=#ffffff;strokeColor=none;sketch=1;curveFitting=1;jiggle=2;" vertex="1" parent="1">
          <mxGeometry x="1480" y="1170" width="400" height="290" as="geometry" />
        </mxCell>
        <mxCell id="CHFiDNSgDXIeCjRcxI2d-77" style="edgeStyle=orthogonalEdgeStyle;rounded=0;orthogonalLoop=1;jettySize=auto;html=1;entryX=0.455;entryY=-0.003;entryDx=0;entryDy=0;entryPerimeter=0;" edge="1" parent="1" source="10" target="CHFiDNSgDXIeCjRcxI2d-76">
          <mxGeometry relative="1" as="geometry">
            <Array as="points">
              <mxPoint x="1388" y="1120" />
              <mxPoint x="1662" y="1120" />
            </Array>
          </mxGeometry>
        </mxCell>
      </root>
    </mxGraphModel>
  </diagram>
</mxfile>
